<?xml version="1.0" encoding="utf-8"?>
<!-- Generator: Adobe Illustrator 17.0.0, SVG Export Plug-In . SVG Version: 6.00 Build 0)  -->
<!DOCTYPE svg PUBLIC "-//W3C//DTD SVG 1.1//EN" "http://www.w3.org/Graphics/SVG/1.1/DTD/svg11.dtd">
<svg version="1.1" id="academany" xmlns="http://www.w3.org/2000/svg" xmlns:xlink="http://www.w3.org/1999/xlink" x="0px" y="0px"
	 width="150.75px" height="24.989px" viewBox="0 0 150.75 24.989" enable-background="new 0 0 150.75 24.989" xml:space="preserve">
<path d="M150.75,8.009c-0.854,2.167-1.713,4.332-2.56,6.502c-0.833,2.136-1.643,4.281-2.484,6.414
	c-0.639,1.621-1.788,2.259-3.525,2.025c-0.226-0.031-0.281-0.13-0.249-0.311c0.03-0.169-0.139-0.438,0.208-0.468
	c0.121-0.01,0.243-0.029,0.364-0.031c1.406-0.022,2.188-0.781,2.562-2.09c0.105-0.369,0.055-0.662-0.083-0.99
	c-1.487-3.514-2.97-7.029-4.438-10.55c-0.078-0.188-0.363-0.418-0.109-0.628c0.246-0.204,0.927,0.055,1.054,0.366
	c0.853,2.085,1.7,4.171,2.551,6.257c0.537,1.315,1.076,2.63,1.617,3.952c0.231-0.128,0.233-0.373,0.306-0.566
	c1.149-3.037,2.289-6.077,3.43-9.117c0.353-0.941,0.353-0.942,1.355-0.888C150.75,7.927,150.75,7.968,150.75,8.009z"/>
<path fill="#ED2D27" d="M11.367,0.239c1.037,0.599,1.981,1.145,2.927,1.69c2.339,1.349,4.676,2.702,7.022,4.039
	c0.299,0.17,0.411,0.356,0.409,0.706c-0.016,2.832-0.002,5.663-0.018,8.495c-0.002,0.335,0.112,0.51,0.393,0.669
	c1.383,0.781,2.751,1.59,4.135,2.368c0.297,0.167,0.424,0.345,0.42,0.701c-0.02,1.782-0.009,3.563-0.009,5.345
	c0,0.137,0,0.275,0,0.403c-0.187,0.05-0.279-0.063-0.383-0.123c-3.207-1.848-6.409-3.704-9.622-5.542
	c-0.308-0.176-0.397-0.368-0.395-0.71c0.015-2.816-0.001-5.632,0.019-8.447c0.003-0.378-0.134-0.567-0.439-0.74
	c-1.38-0.783-2.749-1.584-4.123-2.376c-0.182-0.105-0.343-0.188-0.342-0.454C11.371,4.292,11.367,2.32,11.367,0.239z"/>
<path fill="#83BF44" d="M38.008,6.811c0,1.313,0,2.535,0,3.757c0,2.561-0.007,5.122,0.008,7.683
	c0.002,0.359-0.091,0.567-0.418,0.754c-3.16,1.804-6.308,3.629-9.459,5.448c-0.495,0.286-0.496,0.286-0.496-0.309
	c0-1.718,0.018-3.436-0.013-5.153c-0.008-0.436,0.153-0.648,0.51-0.847c1.332-0.744,2.641-1.527,3.972-2.273
	c0.301-0.169,0.419-0.356,0.415-0.707c-0.02-1.59-0.008-3.181-0.009-4.772c0-0.207-0.016-0.405,0.212-0.536
	C34.463,8.861,36.192,7.859,38.008,6.811z"/>
<path fill="#82BF44" d="M10.339,0.356c0,0.845,0,1.698,0,2.551c0,1.081-0.01,2.162,0.007,3.243c0.005,0.292-0.087,0.453-0.344,0.598
	c-1.396,0.789-2.775,1.61-4.174,2.394C5.533,9.307,5.443,9.491,5.446,9.814c0.015,1.606,0.005,3.211,0.01,4.817
	c0.001,0.232-0.015,0.414-0.258,0.553c-1.67,0.95-3.331,1.917-4.996,2.877c-0.038,0.022-0.088,0.025-0.135,0.038
	c-0.104-0.132-0.054-0.279-0.054-0.412c-0.003-3.673-0.001-7.345-0.006-11.018c0-0.286,0.035-0.486,0.328-0.654
	C3.546,4.177,6.747,2.32,9.953,0.471C10.057,0.412,10.152,0.307,10.339,0.356z"/>
<path fill="#1E3A6F" d="M37.496,5.928c-1.607,0.928-3.166,1.782-4.673,2.719c-0.591,0.367-1.016,0.363-1.599-0.008
	c-1.203-0.768-2.47-1.435-3.696-2.169c-0.304-0.182-0.523-0.162-0.817,0.014c-1.158,0.692-2.332,1.36-3.504,2.03
	c-0.131,0.075-0.248,0.199-0.467,0.188c0-0.905-0.011-1.805,0.006-2.705c0.005-0.273-0.081-0.425-0.322-0.558
	c-0.788-0.435-1.562-0.897-2.406-1.386c0.633-0.368,1.217-0.708,1.802-1.046c1.664-0.961,3.328-1.92,4.991-2.882
	c0.18-0.104,0.327-0.189,0.556-0.056C30.717,2.015,34.073,3.95,37.496,5.928z"/>
<path fill="#1E3A6F" d="M17.974,20.93c-1.79,1.033-3.493,2.016-5.196,2.998c-0.55,0.317-1.102,0.632-1.649,0.954
	c-0.154,0.091-0.278,0.161-0.471,0.049c-3.351-1.944-6.706-3.88-10.128-5.857c0.289-0.171,0.535-0.318,0.782-0.461
	c1.425-0.823,2.858-1.634,4.272-2.478c0.307-0.183,0.517-0.164,0.812,0.011c1.365,0.81,2.75,1.588,4.118,2.393
	c0.251,0.148,0.435,0.149,0.687,0.001c1.308-0.773,2.628-1.526,4.026-2.333c0,0.961,0.015,1.843-0.008,2.724
	c-0.008,0.317,0.1,0.482,0.373,0.63C16.37,19.985,17.129,20.441,17.974,20.93z"/>
<path d="M103.787,9.872c0.843-1.485,2.061-2.258,3.708-2.271c1.692-0.013,2.988,0.66,3.579,2.416c0.08-0.137,0.138-0.22,0.18-0.309
	c1.132-2.386,3.72-2.417,5.273-1.776c1.279,0.528,1.868,1.621,1.945,2.942c0.162,2.807,0.028,5.62,0.074,8.43
	c0.007,0.425-0.241,0.364-0.51,0.389c-0.378,0.036-0.423-0.144-0.421-0.463c0.011-2.587,0.005-5.174,0.007-7.762
	c0-0.577-0.084-1.138-0.36-1.651c-1.008-1.874-3.906-1.935-5.254-0.106c-0.655,0.889-0.862,1.917-0.864,2.996
	c-0.005,2.139-0.002,4.278-0.001,6.417c0,0.3,0.084,0.586-0.432,0.583c-0.499-0.003-0.446-0.265-0.445-0.578
	c0.003-2.383,0.003-4.767,0-7.15c0-0.284-0.022-0.569-0.041-0.853c-0.176-2.694-2.727-3.394-4.643-2.154
	c-1.225,0.793-1.774,1.988-1.788,3.419c-0.021,2.241-0.012,4.482,0.001,6.723c0.002,0.376-0.02,0.59-0.502,0.59
	c-0.49,0-0.445-0.266-0.445-0.581c0.003-3.565,0.007-7.13-0.005-10.695c-0.001-0.383,0.029-0.58,0.506-0.58
	c0.495,0,0.445,0.266,0.441,0.579C103.782,8.908,103.787,9.39,103.787,9.872z"/>
<path d="M131.62,10.045c1.139-1.892,2.795-2.56,4.88-2.424c1.937,0.126,3.248,1.338,3.496,3.275c0.175,1.36,0.08,2.726,0.095,4.089
	c0.015,1.385-0.003,2.771,0.008,4.156c0.003,0.34-0.003,0.566-0.466,0.562c-0.435-0.004-0.486-0.179-0.484-0.545
	c0.013-2.363,0.006-4.726,0.007-7.089c0-0.551-0.017-1.1-0.193-1.629c-0.505-1.52-1.96-2.31-3.723-2.027
	c-2.013,0.323-3.416,1.892-3.56,4.059c-0.147,2.216-0.046,4.438-0.048,6.657c0,0.471-0.134,0.609-0.586,0.567
	c-0.277-0.026-0.33-0.138-0.329-0.383c0.005-3.687,0.009-7.375-0.005-11.062c-0.001-0.363,0.156-0.387,0.44-0.391
	c0.309-0.005,0.496,0.032,0.475,0.419C131.597,8.865,131.62,9.456,131.62,10.045z"/>
<path d="M67.584,11.502c-0.595,0.169-0.896,0.056-1.05-0.621C66.2,9.419,64.926,8.54,63.151,8.394
	c-1.948-0.16-3.575,0.781-4.393,2.631c-0.853,1.928-0.79,3.891,0.078,5.791c0.788,1.725,2.382,2.513,4.432,2.319
	c1.605-0.152,2.927-1.348,3.418-3.055c0.058-0.201-0.051-0.512,0.299-0.597c0.554-0.134,0.742,0.037,0.626,0.602
	c-0.523,2.543-2.899,4.193-5.548,3.852c-2.677-0.344-4.348-2.096-4.694-4.955c-0.199-1.644-0.093-3.251,0.731-4.739
	c1.522-2.75,5.446-3.566,7.95-1.657C66.921,9.251,67.359,10.075,67.584,11.502z"/>
<g>
	<g>
		<path d="M57.534,19.096C55.53,14.043,53.532,8.987,51.54,3.929c-0.153-0.389-0.25-0.695-0.809-0.696
			c-0.539-0.001-0.676,0.264-0.834,0.66c-1.269,3.185-2.55,6.364-3.827,9.546c-0.77,1.919-1.539,3.839-2.302,5.761
			c-0.057,0.144-0.275,0.311-0.028,0.464c0.343,0.211,0.971-0.044,1.13-0.441c0.57-1.433,1.159-2.859,1.696-4.304
			c0.149-0.401,0.347-0.503,0.751-0.5c2.239,0.02,4.478,0.022,6.717-0.002c0.418-0.004,0.609,0.13,0.752,0.513
			c0.534,1.424,1.115,2.83,1.649,4.254c0.141,0.375,0.303,0.608,0.731,0.488C57.822,19.812,57.693,19.495,57.534,19.096z
			 M53.844,13.534c-2.217-0.008-4.434-0.004-6.74-0.004c1.208-3.071,2.391-6.08,3.636-9.244c0.86,2.27,1.657,4.371,2.453,6.473
			c0.302,0.797,0.588,1.601,0.909,2.39C54.227,13.458,54.165,13.535,53.844,13.534z"/>
	</g>
</g>
<g>
	<g>
		<path d="M89.549,3.242c-0.462,0.004-0.413,0.247-0.413,0.538c0.003,2.037,0.003,4.074-0.001,6.111
			c0,0.138,0.051,0.298-0.068,0.423c-0.846-1.833-2.313-2.65-4.238-2.704c-2.024-0.057-3.655,0.73-4.554,2.578
			c-1.15,2.363-1.113,4.812-0.016,7.191c0.641,1.39,1.781,2.251,3.324,2.496c2.382,0.377,4.239-0.396,5.555-2.509
			c0,0.585,0,1.169,0,1.754c0,0.296-0.093,0.59,0.429,0.586c0.493-0.004,0.449-0.257,0.449-0.574
			c-0.003-5.113-0.004-10.225,0.002-15.338C90.018,3.453,90.016,3.237,89.549,3.242z M88.265,17.124
			c-0.734,1.382-1.935,2.027-3.498,2.034c-1.719,0.019-2.976-0.757-3.701-2.296c-0.973-2.065-0.961-4.178,0-6.24
			c0.69-1.48,1.936-2.21,3.562-2.24c1.594-0.03,2.871,0.613,3.625,2.034C89.429,12.63,89.445,14.902,88.265,17.124z"/>
	</g>
</g>
<g>
	<g>
		<path d="M79.254,19.16c0.013-0.177-0.008-0.278-0.253-0.294c-1.062-0.07-1.128-0.154-1.129-1.239
			c-0.002-2.301,0.006-4.601-0.003-6.902c-0.006-1.553-0.876-2.614-2.386-2.956c-0.924-0.209-1.861-0.213-2.789-0.106
			c-1.965,0.225-3.123,1.327-3.425,3.228c-0.033,0.209-0.31,0.593,0.223,0.643c0.372,0.035,0.635,0.013,0.688-0.494
			c0.128-1.207,0.83-2.007,1.963-2.408c0.799-0.283,1.63-0.327,2.468-0.186c1.861,0.315,2.499,1.166,2.325,3.035
			c-0.061,0.658-0.395,1.048-0.99,1.244c-0.603,0.199-1.232,0.247-1.862,0.299c-1.194,0.098-2.401,0.144-3.531,0.605
			c-1.416,0.578-2.05,1.703-1.953,3.43c0.077,1.37,0.88,2.309,2.315,2.707c2.387,0.661,4.473-0.087,5.985-2.174
			c0.023,0.247,0.036,0.461,0.063,0.673c0.149,1.152,0.887,1.639,2.02,1.39C79.339,19.578,79.239,19.362,79.254,19.16z
			 M76.826,16.022c-0.391,1.763-1.862,3.025-3.664,3.119c-0.67,0.035-1.343,0.053-1.996-0.157c-1.065-0.344-1.614-1.062-1.689-2.21
			c-0.071-1.084,0.436-1.97,1.413-2.414c1.06-0.481,2.213-0.478,3.34-0.605c0.901-0.101,1.821-0.109,2.713-0.627
			C76.885,14.158,77.031,15.095,76.826,16.022z"/>
	</g>
</g>
<path d="M130.037,19.387c-0.004-0.168,0.005-0.291-0.241-0.32c-1.154-0.137-1.186-0.187-1.186-1.38c0-2.28,0.007-4.559-0.003-6.839
	c-0.006-1.418-0.731-2.398-2.094-2.789c-1.275-0.366-2.574-0.369-3.852-0.022c-1.587,0.432-2.494,1.558-2.647,3.199
	c-0.021,0.222-0.168,0.523,0.272,0.5c0.283-0.015,0.561,0.1,0.63-0.401c0.204-1.481,1.078-2.361,2.478-2.639
	c0.706-0.14,1.408-0.152,2.12-0.023c1.675,0.303,2.379,1.222,2.202,2.909c-0.085,0.809-0.365,1.162-1.139,1.388
	c-0.568,0.166-1.157,0.207-1.745,0.258c-1.172,0.101-2.358,0.141-3.47,0.589c-1.437,0.579-2.085,1.665-2.001,3.336
	c0.075,1.493,0.825,2.4,2.33,2.817c2.351,0.652,4.306-0.051,6.031-2.234c0,0.272-0.007,0.435,0.001,0.598
	c0.061,1.234,0.791,1.771,2.009,1.526C130.056,19.794,130.043,19.617,130.037,19.387z M127.617,16.095
	c-0.315,1.698-1.73,3.055-3.448,3.226c-0.728,0.073-1.465,0.094-2.182-0.121c-1.074-0.323-1.657-1.036-1.724-2.109
	c-0.079-1.265,0.388-2.102,1.451-2.559c1.049-0.451,2.181-0.455,3.29-0.576c0.903-0.098,1.822-0.116,2.718-0.636
	C127.672,14.309,127.782,15.203,127.617,16.095z"/>
<path d="M92.408,14.088c1.445,0.026,2.891,0.01,4.336,0.01c1.384,0,2.769-0.026,4.152,0.014c0.505,0.014,0.606-0.158,0.585-0.613
	c-0.025-0.53-0.052-1.055-0.161-1.574c-0.476-2.264-2.16-3.899-4.205-4.082c-2.649-0.237-4.634,0.909-5.546,3.233
	c-0.604,1.537-0.667,3.129-0.381,4.741c0.46,2.593,2.259,4.235,4.754,4.354c2.74,0.13,4.59-1.179,5.313-3.696
	c0.159-0.554-0.018-0.606-0.486-0.593c-0.404,0.011-0.364,0.307-0.441,0.537c-0.588,1.758-1.819,2.8-3.452,2.921
	c-2.049,0.151-3.475-0.577-4.303-2.216c-0.399-0.791-0.566-1.643-0.645-2.522C91.892,14.202,91.995,14.08,92.408,14.088z
	 M92.006,12.86c0.285-2.518,2.048-4.276,4.341-4.284c2.121-0.007,3.791,1.569,4.123,3.892c0.017,0.121,0.01,0.249,0.049,0.362
	c0.149,0.441-0.063,0.501-0.446,0.499c-2.543-0.012-5.085-0.012-7.628,0C92.083,13.332,91.959,13.277,92.006,12.86z"/>
</svg>
