<?xml version="1.0" encoding="utf-8"?>
<!-- Generator: Adobe Illustrator 17.0.0, SVG Export Plug-In . SVG Version: 6.00 Build 0)  -->
<!DOCTYPE svg PUBLIC "-//W3C//DTD SVG 1.1//EN" "http://www.w3.org/Graphics/SVG/1.1/DTD/svg11.dtd">
<svg version="1.1" id="Layer_6" xmlns="http://www.w3.org/2000/svg" xmlns:xlink="http://www.w3.org/1999/xlink" x="0px" y="0px"
	 width="500px" height="250px" viewBox="0 0 500 250" enable-background="new 0 0 500 250" xml:space="preserve">
<g>
	<path fill="#0AAA64" d="M78.112,152.458v-2.247c0-0.182-0.097-0.35-0.254-0.441l-4.615-2.69c-0.157-0.092-0.254-0.26-0.254-0.441
		v-6.025c0.193-0.077,0.389-0.164,0.573-0.271c3.033-1.719,3.418-6.756,0.863-11.237c-2.547-4.486-7.074-6.724-10.103-4.998
		c-3.032,1.717-3.42,6.752-0.861,11.236c0.364,0.642,0.769,1.238,1.201,1.779c0.07,0.088,0.109,0.196,0.109,0.309v3.83
		c0,0.394-0.427,0.64-0.768,0.442l-5.574-3.243c-0.157-0.092-0.254-0.26-0.254-0.442v-22.321c0-0.183-0.097-0.351-0.255-0.442
		l-1.45-0.838c-0.256-0.148-0.589-0.051-0.72,0.214c-1.734,3.506-2.705,7.439-2.705,11.614
		C53.043,140.346,64.156,151.849,78.112,152.458"/>
	<path fill="#EE3045" d="M64.249,110.607c0.158-0.091,0.352-0.09,0.51,0.001l5.215,3.012c-0.031,0.209-0.044,0.422-0.044,0.637
		c-0.021,3.485,4.139,6.337,9.298,6.372c5.159,0.029,9.361-2.77,9.382-6.257c0.02-3.484-4.146-6.333-9.304-6.369
		c-0.735-0.005-1.452,0.05-2.138,0.157c-0.113,0.018-0.226-0.003-0.325-0.06l-3.315-1.916c-0.341-0.197-0.34-0.69,0.001-0.886
		l5.593-3.209c0.158-0.091,0.352-0.09,0.51,0.001L99.08,113.32c0.158,0.091,0.353,0.091,0.511,0l1.399-0.807
		c0.255-0.147,0.339-0.483,0.177-0.729c-2.174-3.302-5.115-6.14-8.771-8.247c-12.091-6.983-27.412-3.26-35.001,8.232
		c-0.162,0.246-0.08,0.582,0.175,0.729l1.43,0.826c0.158,0.091,0.352,0.091,0.51,0.001L64.249,110.607z"/>
	<path fill="#1B459B" d="M100.355,121.057c-0.001,0.182-0.098,0.35-0.255,0.44l-5.215,3.014c-0.164-0.135-0.335-0.256-0.524-0.364
		c-3.007-1.757-7.564,0.42-10.167,4.873c-2.605,4.453-2.284,9.49,0.724,11.25c3.007,1.761,7.558-0.418,10.165-4.875
		c0.373-0.631,0.687-1.277,0.936-1.923c0.041-0.106,0.115-0.194,0.214-0.251l3.322-1.913c0.341-0.197,0.768,0.051,0.766,0.445
		l-0.025,6.445c-0.001,0.182-0.098,0.35-0.255,0.441l-19.319,11.157c-0.158,0.091-0.255,0.26-0.255,0.443v1.677
		c0,0.296,0.25,0.536,0.545,0.517c3.899-0.253,7.784-1.376,11.395-3.459c12.059-6.967,16.503-22.029,10.412-34.334
		c-0.131-0.265-0.464-0.362-0.72-0.215l-1.467,0.846c-0.158,0.091-0.255,0.259-0.256,0.441L100.355,121.057z"/>
	<g>
		<g>
			<path fill="#231E20" d="M112.483,105.771h17.473c7.072,0,11.856,2.288,11.856,9.204c0,3.641-1.82,6.188-5.044,7.749
				c4.524,1.3,6.812,4.784,6.812,9.413c0,7.54-6.396,10.764-13.104,10.764h-17.993V105.771z M120.647,120.8h8.268
				c2.86,0,4.992-1.3,4.992-4.42c0-3.536-2.704-4.264-5.616-4.264h-7.644V120.8z M120.647,136.557h8.736
				c3.224,0,6.032-1.04,6.032-4.889c0-3.796-2.392-5.304-5.876-5.304h-8.892V136.557z"/>
			<path fill="#231E20" d="M147.948,105.771h8.165V142.9h-8.165V105.771z"/>
			<path fill="#231E20" d="M178.785,104.888c11.493,0,18.253,8.58,18.253,19.604c0,10.712-6.76,19.293-18.253,19.293
				c-11.492,0-18.252-8.581-18.252-19.293C160.532,113.468,167.292,104.888,178.785,104.888z M178.785,136.921
				c7.333,0,10.089-6.24,10.089-12.429c0-6.5-2.756-12.74-10.089-12.74c-7.332,0-10.088,6.24-10.088,12.74
				C168.697,130.681,171.453,136.921,178.785,136.921z"/>
			<path fill="#C0BFBF" d="M212.014,105.771h5.46l14.509,37.129h-5.46l-4.057-11.18h-15.704l-4.16,11.18h-5.097L212.014,105.771z
				 M208.322,127.561h12.585l-6.188-17.317h-0.104L208.322,127.561z"/>
			<path fill="#C0BFBF" d="M261.208,116.952c-1.04-5.252-5.252-7.904-10.4-7.904c-8.841,0-12.585,7.28-12.585,15.028
				c0,8.477,3.744,15.549,12.637,15.549c6.5,0,10.244-4.576,10.713-10.713h4.939c-0.936,9.257-6.708,14.873-16.068,14.873
				c-11.544,0-17.16-8.528-17.16-19.345c0-10.765,6.136-19.553,17.576-19.553c7.748,0,14.145,4.16,15.289,12.064H261.208z"/>
			<path fill="#C0BFBF" d="M282.216,105.771h5.46l14.509,37.129h-5.46l-4.057-11.18h-15.704l-4.16,11.18h-5.097L282.216,105.771z
				 M278.524,127.561h12.585l-6.188-17.317h-0.104L278.524,127.561z"/>
			<path fill="#C0BFBF" d="M305.307,105.771h12.74c11.44,0,17.836,5.72,17.836,17.681c0,12.429-5.46,19.448-17.836,19.448h-12.74
				V105.771z M310.246,138.74h8.217c3.38,0,12.48-0.936,12.48-14.612c0-8.84-3.276-14.196-12.377-14.196h-8.32V138.74z"/>
			<path fill="#C0BFBF" d="M341.395,105.771h25.638v4.16h-20.697v11.805h19.293v4.16h-19.293v12.844h20.853v4.16h-25.793V105.771z"
				/>
			<path fill="#C0BFBF" d="M372.752,105.771h6.76l11.701,31.201l11.752-31.201h6.761V142.9h-4.681v-30.889h-0.104L393.345,142.9
				h-4.212l-11.597-30.889h-0.104V142.9h-4.68V105.771z"/>
			<path fill="#C0BFBF" d="M432.761,127.716V142.9h-4.94v-15.185l-14.352-21.944h5.876l11.128,17.681l10.869-17.681h5.615
				L432.761,127.716z"/>
		</g>
	</g>
</g>
</svg>
