<?xml version="1.0" encoding="utf-8"?>
<!-- Generator: Adobe Illustrator 17.0.0, SVG Export Plug-In . SVG Version: 6.00 Build 0)  -->
<!DOCTYPE svg PUBLIC "-//W3C//DTD SVG 1.1//EN" "http://www.w3.org/Graphics/SVG/1.1/DTD/svg11.dtd">
<svg version="1.1" id="fab" xmlns="http://www.w3.org/2000/svg" xmlns:xlink="http://www.w3.org/1999/xlink" x="0px" y="0px"
	 width="500px" height="250px" viewBox="0 0 500 250" enable-background="new 0 0 500 250" xml:space="preserve">
<g>
	<rect x="118.557" y="83.774" fill="#11286E" width="23.137" height="23.137"/>
	<rect x="87.958" y="114.787" fill="#11286E" width="23.137" height="23.137"/>
	<rect x="87.958" y="144.948" fill="#11286E" width="23.137" height="23.137"/>
	<rect x="118.557" y="144.948" fill="#11286E" width="23.137" height="23.137"/>
	<rect x="149.131" y="144.948" fill="#11286E" width="23.137" height="23.137"/>
	<rect x="149.131" y="114.787" fill="#11286E" width="23.137" height="23.137"/>
	<rect x="149.131" y="83.774" fill="#11286E" width="23.137" height="23.137"/>
	<circle fill="#C70927" cx="99.448" cy="95.24" r="13.325"/>
	<circle fill="#C70927" cx="130.344" cy="126.136" r="13.325"/>
</g>
<g>
	<g>
		<path fill="#231E20" d="M193.279,123.688h-5.694v-6.363h5.694v-2.679c0-6.096,3.818-10.517,11.588-10.517
			c1.675,0,3.417,0.201,5.024,0.268v7.101c-1.139-0.134-2.277-0.201-3.483-0.201c-2.545,0-3.617,1.072-3.617,3.952v2.077h6.564
			v6.363h-6.564v28.269h-9.512V123.688z"/>
		<path fill="#231E20" d="M211.631,127.976c0.536-8.909,8.507-11.588,16.278-11.588c6.899,0,15.206,1.541,15.206,9.847v18.02
			c0,3.148,0.335,6.297,1.206,7.703h-9.646c-0.334-1.071-0.603-2.211-0.669-3.35c-3.015,3.148-7.436,4.287-11.656,4.287
			c-6.564,0-11.79-3.282-11.79-10.383c0-7.837,5.895-9.713,11.79-10.517c5.828-0.871,11.254-0.67,11.254-4.555
			c0-4.087-2.813-4.689-6.163-4.689c-3.617,0-5.961,1.474-6.296,5.225H211.631z M233.603,135.01
			c-1.608,1.406-4.957,1.474-7.905,2.01c-2.947,0.603-5.626,1.607-5.626,5.091c0,3.55,2.746,4.421,5.828,4.421
			c7.436,0,7.704-5.895,7.704-7.972V135.01z"/>
		<path fill="#231E20" d="M249.004,104.129h9.512v17.416h0.134c2.345-3.55,6.632-5.158,10.919-5.158
			c6.899,0,14.335,5.56,14.335,18.22c0,12.728-7.436,18.287-14.335,18.287c-5.091,0-9.311-1.54-11.388-5.358h-0.134v4.421h-9.043
			V104.129z M266.287,123.555c-5.627,0-8.105,5.292-8.105,11.12c0,5.761,2.479,11.053,8.105,11.053s8.105-5.292,8.105-11.053
			C274.393,128.847,271.914,123.555,266.287,123.555z"/>
		<path fill="#231E20" d="M288.857,141.642h10.517v10.315h-10.517V141.642z"/>
		<path fill="#C0BFBF" d="M329.784,128.445c-0.871-4.354-3.886-6.9-8.574-6.9c-8.239,0-10.785,6.498-10.785,13.531
			c0,6.364,2.881,12.661,10.115,12.661c5.492,0,8.774-3.216,9.512-8.44h5.827c-1.272,8.44-6.564,13.464-15.272,13.464
			c-10.584,0-16.21-7.368-16.21-17.685c0-10.383,5.358-18.555,16.344-18.555c7.838,0,14.135,3.685,14.938,11.924H329.784z"/>
		<path fill="#C0BFBF" d="M341.77,104.129h5.693v17.886h0.134c1.876-3.818,6.297-5.493,11.053-5.493
			c10.651,0,15.943,8.44,15.943,18.22c0,9.78-5.226,18.02-15.809,18.02c-3.551,0-8.642-1.34-11.188-5.426h-0.134v4.622h-5.693
			V104.129z M357.846,121.545c-7.636,0-10.584,6.565-10.584,13.062c0,6.833,3.082,13.13,10.919,13.13
			c7.771,0,10.383-6.632,10.383-13.397C368.563,127.842,365.215,121.545,357.846,121.545z"/>
		<path fill="#C0BFBF" d="M411.296,151.823c-1.005,0.603-2.277,0.938-4.086,0.938c-2.947,0-4.823-1.607-4.823-5.358
			c-3.148,3.684-7.368,5.358-12.191,5.358c-6.297,0-11.455-2.813-11.455-9.713c0-7.837,5.828-9.512,11.723-10.65
			c6.297-1.206,11.656-0.805,11.656-5.092c0-4.956-4.087-5.761-7.704-5.761c-4.822,0-8.373,1.474-8.641,6.565h-5.694
			c0.335-8.574,6.967-11.589,14.67-11.589c6.229,0,12.995,1.406,12.995,9.512v17.818c0,2.68,0,3.886,1.809,3.886
			c0.47,0,1.005-0.067,1.742-0.335V151.823z M402.052,134.071c-2.211,1.608-6.498,1.675-10.315,2.345
			c-3.752,0.67-6.967,2.01-6.967,6.229c0,3.752,3.215,5.092,6.698,5.092c7.503,0,10.584-4.689,10.584-7.838V134.071z"/>
	</g>
</g>
</svg>
