<?xml version="1.0" encoding="utf-8"?>
<!-- Generator: Adobe Illustrator 17.0.0, SVG Export Plug-In . SVG Version: 6.00 Build 0)  -->
<!DOCTYPE svg PUBLIC "-//W3C//DTD SVG 1.1//EN" "http://www.w3.org/Graphics/SVG/1.1/DTD/svg11.dtd">
<svg version="1.1" id="Layer_1" xmlns="http://www.w3.org/2000/svg" xmlns:xlink="http://www.w3.org/1999/xlink" x="0px" y="0px"
	 width="50px" height="50px" viewBox="0 0 50 50" enable-background="new 0 0 50 50" xml:space="preserve">
<g>
	<path fill="#0AAA64" d="M23.878,50v-2.142c0-0.173-0.092-0.334-0.242-0.421l-4.4-2.564c-0.15-0.087-0.242-0.248-0.242-0.421v-5.744
		c0.184-0.074,0.371-0.157,0.546-0.259c2.892-1.639,3.259-6.441,0.822-10.713c-2.428-4.277-6.745-6.411-9.632-4.765
		c-2.89,1.637-3.26,6.437-0.821,10.712c0.347,0.612,0.733,1.18,1.145,1.696c0.067,0.084,0.103,0.186,0.103,0.294v3.652
		c0,0.376-0.407,0.61-0.732,0.421l-5.314-3.092c-0.15-0.087-0.242-0.248-0.242-0.421v-21.28c0-0.174-0.093-0.335-0.243-0.422
		l-1.383-0.799C3,13.59,2.682,13.682,2.557,13.935c-1.653,3.343-2.579,7.092-2.579,11.072C-0.022,38.453,10.573,49.419,23.878,50"/>
	<path fill="#EE3045" d="M10.662,10.101c0.151-0.086,0.336-0.086,0.486,0.001l4.972,2.872c-0.029,0.199-0.042,0.402-0.042,0.607
		c-0.02,3.323,3.946,6.041,8.865,6.075c4.918,0.028,8.925-2.641,8.944-5.965c0.019-3.321-3.953-6.037-8.87-6.072
		c-0.7-0.005-1.384,0.047-2.038,0.15c-0.107,0.017-0.215-0.003-0.31-0.057l-3.16-1.827c-0.325-0.188-0.324-0.657,0.001-0.844
		l5.332-3.06c0.151-0.086,0.336-0.086,0.486,0.001l18.54,10.708c0.151,0.087,0.336,0.087,0.487,0l1.333-0.77
		c0.243-0.14,0.323-0.46,0.168-0.695c-2.073-3.148-4.876-5.853-8.362-7.862C25.967-3.296,11.36,0.253,4.125,11.209
		c-0.155,0.234-0.076,0.555,0.167,0.695l1.363,0.787c0.15,0.087,0.335,0.087,0.486,0.001L10.662,10.101z"/>
	<path fill="#1B459B" d="M45.084,20.063c-0.001,0.173-0.093,0.333-0.243,0.42l-4.972,2.873c-0.157-0.129-0.32-0.244-0.499-0.347
		c-2.866-1.676-7.211,0.4-9.693,4.646c-2.484,4.245-2.177,9.047,0.69,10.726c2.866,1.679,7.206-0.399,9.691-4.648
		c0.356-0.601,0.655-1.218,0.892-1.834c0.039-0.102,0.11-0.185,0.204-0.239l3.167-1.824c0.325-0.187,0.732,0.048,0.73,0.424
		l-0.023,6.145c-0.001,0.173-0.093,0.333-0.244,0.42L26.366,47.461c-0.151,0.087-0.244,0.248-0.244,0.422v1.599
		c0,0.282,0.239,0.511,0.52,0.493c3.717-0.241,7.421-1.312,10.863-3.297c11.497-6.642,15.734-21.002,9.926-32.733
		c-0.125-0.252-0.442-0.346-0.686-0.205l-1.398,0.806c-0.15,0.087-0.243,0.247-0.244,0.42L45.084,20.063z"/>
</g>
</svg>
