<svg id="Layer_1" data-name="Layer 1" xmlns="http://www.w3.org/2000/svg" viewBox="0 0 775.48 781.5"><defs><style>.cls-1{fill:#eca641;}.cls-2{fill:#efeace;}.cls-3{fill:#161516;}</style></defs><ellipse class="cls-1" cx="630.59" cy="149.1" rx="115.06" ry="115.96"/><path class="cls-2" d="M625.32,287.75c-73.68,0-133.4-60.19-133.4-134.44a134.89,134.89,0,0,1,9.52-49.87,330,330,0,0,0-139.6-30.8c-184.19,0-333.51,150.48-333.51,336.11S177.65,744.86,361.84,744.86,695.36,594.38,695.36,408.75A337.4,337.4,0,0,0,670,280,132.05,132.05,0,0,1,625.32,287.75Z"/><path class="cls-3" d="M559.41,181.83v-66h24A25.54,25.54,0,0,1,595,118.1a16,16,0,0,1,6.85,6.22,17.34,17.34,0,0,1,2.27,8.82,14.67,14.67,0,0,1-1.5,7,12.48,12.48,0,0,1-4,4.52,17.63,17.63,0,0,1-5.52,2.46v.65a13.17,13.17,0,0,1,6.38,2.11,15.26,15.26,0,0,1,5.17,5.53,17.24,17.24,0,0,1,2,8.71,17.57,17.57,0,0,1-2.35,9.07,16.11,16.11,0,0,1-7.25,6.35q-4.89,2.34-12.51,2.34Zm9.89-37.47h13.25a13.68,13.68,0,0,0,6-1.29,10.51,10.51,0,0,0,4.25-3.62,9.61,9.61,0,0,0,1.58-5.53,9.2,9.2,0,0,0-2.84-6.87q-2.85-2.77-8.74-2.78H569.3Zm0,28.93h14.27c4.73,0,8.13-.93,10.17-2.78a8.94,8.94,0,0,0,3.08-6.93,11,11,0,0,0-1.57-5.74,11.28,11.28,0,0,0-4.46-4.16,14.42,14.42,0,0,0-6.87-1.54H569.3Z"/><path class="cls-3" d="M631.88,182.93a19.76,19.76,0,0,1-8.44-1.76,14,14,0,0,1-6-5.11,14.71,14.71,0,0,1-2.19-8.22,13.35,13.35,0,0,1,1.6-6.9,11.7,11.7,0,0,1,4.32-4.29,22.62,22.62,0,0,1,6.08-2.39,61.9,61.9,0,0,1,6.84-1.22c3-.35,5.34-.63,7.17-.86a10.12,10.12,0,0,0,4-1.11,2.74,2.74,0,0,0,1.25-2.51v-.23a8.82,8.82,0,0,0-2.35-6.55c-1.57-1.54-3.9-2.32-7-2.32a12.09,12.09,0,0,0-7.6,2.15,11.63,11.63,0,0,0-3.83,4.75l-9-2.06a17.5,17.5,0,0,1,4.69-7.3,19.07,19.07,0,0,1,7.12-4.07,27.94,27.94,0,0,1,8.48-1.27,30.71,30.71,0,0,1,6.25.69,18.67,18.67,0,0,1,6.21,2.53,14.07,14.07,0,0,1,4.75,5.24,18.32,18.32,0,0,1,1.86,8.82v32.89h-9.35v-6.77h-.38a13.93,13.93,0,0,1-2.78,3.68,15,15,0,0,1-4.77,3A18.49,18.49,0,0,1,631.88,182.93Zm2.08-7.74a13.76,13.76,0,0,0,6.8-1.58,11.06,11.06,0,0,0,4.32-4.14,10.82,10.82,0,0,0,1.49-5.5v-6.39a4.75,4.75,0,0,1-2,1,27.94,27.94,0,0,1-3.31.74c-1.24.2-2.44.38-3.61.55l-2.95.4a23,23,0,0,0-5.07,1.19,8.7,8.7,0,0,0-3.65,2.4,6.92,6.92,0,0,0,1.27,9.55A11.5,11.5,0,0,0,634,175.19Z"/><path class="cls-3" d="M678.44,115.8v66h-9.57v-66Z"/><path class="cls-3" d="M696.13,124.66a6,6,0,0,1-4.27-1.69,5.53,5.53,0,0,1,0-8.13,6.24,6.24,0,0,1,8.54,0,5.53,5.53,0,0,1,0,8.13A5.94,5.94,0,0,1,696.13,124.66Zm-4.83,57.17V132.3h9.57v49.53Z"/><path class="cls-3" d="M274.41,384.89V419H225v51.6H180V324.88H285.13V359H225.06v25.85Z"/><path class="cls-3" d="M541.93,401.56c-4.16-1.47-8.52-2.36-12.66-3.48,1.75-.38,3.73-.75,5.68-1.27,11.62-3.05,20.22-9.63,23.85-21.54,2.37-7.79,2-15.75.12-23.61-1.66-6.75-5.82-12-10.86-16.44-4.53-4-10.15-6.25-15.87-7.84a74.93,74.93,0,0,0-20.47-2.65c-22.1.08-44.21,0-66.31,0h-2.15v146c.79,0,1.37.1,1.95.1,22.56,0,45.13.15,67.68-.08a178,178,0,0,0,22.7-1.84,32,32,0,0,0,20.64-11.22c4.79-5.73,7-12.44,7.7-19.77C565.53,420.79,558.05,407.29,541.93,401.56ZM483.06,357.3a6.39,6.39,0,0,1,1.1-.2c6.88,0,13.76,0,20.64.09a17.42,17.42,0,0,1,9.86,2.85c4.15,2.89,5.11,7.13,4.75,11.85s-2.62,8.24-7.1,10a14.49,14.49,0,0,1-4.9,1.33c-8,.14-16.08.07-24.35.07ZM511.32,440a30.94,30.94,0,0,1-8.8,1.77c-6.41.26-12.83.08-19.4.08V414.81c8.21.35,16.25.65,24.28,1.08a13.11,13.11,0,0,1,3.94,1.13c5.28,2.05,8.15,6.09,8.19,11.41A11.83,11.83,0,0,1,511.32,440Z"/><path class="cls-3" d="M427.73,468.29,414,427.85q-17.22-50.66-34.39-101.33a2.2,2.2,0,0,0-2.48-1.8q-25.5.09-51,0a1.94,1.94,0,0,0-2.24,1.55q-24.13,71.6-48.37,143.15a12,12,0,0,0-.29,1.37h45.13c2.83-10.21,5.65-20.42,8.46-30.56a5.17,5.17,0,0,1,.76-.13c14.24,0,28.48,0,42.71,0,1.22,0,1.51.55,1.78,1.57,2.41,9.12,4.92,18.21,7.28,27.34a2.14,2.14,0,0,0,2.52,1.94c14.17-.06,28.34,0,42.51,0,.62,0,1.25-.08,2.08-.14C428.17,469.77,428,469,427.73,468.29Zm-90.69-58c4.75-17.83,9.48-35.62,14.31-53.8,4.84,18.12,9.57,35.86,14.35,53.8Z"/><path class="cls-3" d="M258.63,583.91V502.8h49.91v10.54H270.77v24.71H305v10.49H270.77v35.37Z"/><path class="cls-3" d="M344.66,583.91a26.55,26.55,0,0,1-13.94-3.51,23.23,23.23,0,0,1-9-9.9,37,37,0,0,1,0-30,23.62,23.62,0,0,1,22.19-13.75,26.7,26.7,0,0,1,9,1.55,21.71,21.71,0,0,1,7.83,4.86,22.86,22.86,0,0,1,5.46,8.58,36.33,36.33,0,0,1,2,12.8v3.82H324.59v-8.07h33.15a16.15,16.15,0,0,0-1.72-7.54,13.08,13.08,0,0,0-4.8-5.2,13.51,13.51,0,0,0-7.24-1.91,13.84,13.84,0,0,0-7.84,2.22,14.86,14.86,0,0,0-5.14,5.76,16.7,16.7,0,0,0-1.8,7.68v6.3a21,21,0,0,0,1.94,9.43,13.8,13.8,0,0,0,5.45,5.92,15.94,15.94,0,0,0,8.18,2,16.55,16.55,0,0,0,5.54-.89,11.79,11.79,0,0,0,4.32-2.64,11.62,11.62,0,0,0,2.78-4.36L367.52,569a18.34,18.34,0,0,1-4.34,7.86,20.84,20.84,0,0,1-7.82,5.22A28.89,28.89,0,0,1,344.66,583.91Z"/><path class="cls-3" d="M419.19,541l-9.68,1.73a11.52,11.52,0,0,0-1.91-3.56,9.75,9.75,0,0,0-3.51-2.78,12.63,12.63,0,0,0-5.54-1.08,13.27,13.27,0,0,0-7.57,2,6.07,6.07,0,0,0-3,5.23,5.53,5.53,0,0,0,2,4.47,16.36,16.36,0,0,0,6.57,2.77l8.71,2q7.58,1.77,11.29,5.44a12.82,12.82,0,0,1,3.72,9.54,14.59,14.59,0,0,1-2.84,8.84,18.84,18.84,0,0,1-7.9,6.06,29.19,29.19,0,0,1-11.69,2.2q-9.22,0-15-4a16.74,16.74,0,0,1-7.15-11.32L386,567a9.86,9.86,0,0,0,4,6.14,13.51,13.51,0,0,0,7.82,2.07,14.38,14.38,0,0,0,8.4-2.21,6.5,6.5,0,0,0,3.14-5.42,5.68,5.68,0,0,0-1.91-4.35,12.67,12.67,0,0,0-5.84-2.67l-9.29-2.05q-7.68-1.77-11.34-5.62a13.56,13.56,0,0,1-3.66-9.75,14,14,0,0,1,2.72-8.57,18,18,0,0,1,7.5-5.74,27.36,27.36,0,0,1,11-2.07q8.9,0,14,3.87A18.13,18.13,0,0,1,419.19,541Z"/><path class="cls-3" d="M464,523.08v9.5H431v-9.5ZM439.83,508.5h11.75v57.55a10.33,10.33,0,0,0,1,5.16,5.23,5.23,0,0,0,2.65,2.34,10,10,0,0,0,3.56.61,14,14,0,0,0,2.48-.19l1.65-.32,2.12,9.78a19.21,19.21,0,0,1-2.91.81,24,24,0,0,1-4.71.46,20.46,20.46,0,0,1-8.65-1.67,14.82,14.82,0,0,1-6.48-5.38,15.93,15.93,0,0,1-2.48-9.15Z"/></svg>