<?xml version="1.0" encoding="utf-8"?>
<!-- Generator: Adobe Illustrator 17.0.0, SVG Export Plug-In . SVG Version: 6.00 Build 0)  -->
<!DOCTYPE svg PUBLIC "-//W3C//DTD SVG 1.1//EN" "http://www.w3.org/Graphics/SVG/1.1/DTD/svg11.dtd">
<svg version="1.1" id="fab13" xmlns="http://www.w3.org/2000/svg" xmlns:xlink="http://www.w3.org/1999/xlink" x="0px" y="0px"
	 width="118.226px" height="30px" viewBox="0 0 118.226 30" enable-background="new 0 0 118.226 30" xml:space="preserve">
<g>
	<path fill="#FFFFFF" d="M117.418,1.478c0.81,0.493,1.043,1.232,0.55,2.042l-6.666,11.001c-0.493,0.81-1.295,1.005-2.105,0.512
		s-1.005-1.295-0.512-2.105l6.666-11.001C115.844,1.118,116.608,0.985,117.418,1.478z"/>
	<path fill="#EA5F69" d="M78.194,27.342c0-0.948,0.511-1.532,1.459-1.532h12.93c0.948,0,1.532,0.583,1.532,1.532
		s-0.583,1.532-1.532,1.532h-12.93C78.705,28.874,78.194,28.29,78.194,27.342z"/>
	<path fill="#467C9D" d="M79.621,2.658c0-0.948,0.511-1.532,1.459-1.532h5.075c0.948,0,1.532,0.583,1.532,1.532
		s-0.583,1.532-1.532,1.532H81.08C80.132,4.189,79.621,3.606,79.621,2.658z"/>
	<path fill="#467C9D" d="M102.645,2.658c0-0.948,0.511-1.532,1.459-1.532h12.59c0.948,0,1.532,0.583,1.532,1.532
		s-0.583,1.532-1.532,1.532h-12.59C103.156,4.189,102.645,3.606,102.645,2.658z"/>
	<path fill="#FFFFFF" d="M16.631,1.651c0,0.804-0.762,1.566-1.608,1.566H3.258v9.141h10.833c0.846,0,1.608,0.762,1.608,1.608
		c0,0.762-0.762,1.608-1.608,1.608H3.301v13.838H0V0h15.023C15.869,0,16.631,0.804,16.631,1.651z"/>
	<path fill="#FFFFFF" d="M42.443,29.961c-0.804,0.169-1.735-0.296-1.989-1.269l-1.819-7.491h-9.649l-1.819,7.491
		c-0.254,1.058-1.058,1.439-1.905,1.269c-1.058-0.212-1.523-1.058-1.312-1.989L30.509,0h6.517l6.644,27.972
		C43.881,28.903,43.289,29.792,42.443,29.961z M33.091,3.216l-3.386,14.727h8.167L34.529,3.216H33.091z"/>
	<path fill="#FFFFFF" d="M53.245,29.411V0h8.76c6.644,0,7.702,5.078,7.702,7.702v0.466c0,1.481-0.508,4.866-3.131,6.009
		c2.878,1.354,3.597,4.909,3.597,6.432v1.016c0,2.581-1.354,7.787-7.956,7.787H53.245z M62.005,3.216h-5.502v9.479h5.755
		c1.82,0,4.19-0.635,4.19-4.613V7.702C66.448,3.724,63.528,3.216,62.005,3.216z M62.428,15.954h-5.925v10.199h5.713
		c1.566,0,4.697-0.635,4.697-4.655v-0.846C66.914,16.589,64.205,15.954,62.428,15.954z"/>
	<path fill="#DBE5D8" d="M110.177,26.378c0.804,0,1.568,0.603,1.568,1.528c0,0.804-0.764,1.568-1.568,1.568
		c-6.392,0-8.041-4.945-8.041-7.719c0-0.804,0.603-1.568,1.528-1.568c0.804,0,1.568,0.764,1.568,1.568
		C105.232,25.695,108.69,26.378,110.177,26.378z"/>
	<path fill="#E53946" d="M109.976,15.329c-0.804,0-1.568-0.603-1.568-1.528c0-0.804,0.764-1.568,1.568-1.568
		c6.392,0,8.041,4.945,8.041,7.719c0,0.804-0.603,1.568-1.528,1.568c-0.804,0-1.568-0.764-1.568-1.568
		C114.921,16.012,111.463,15.329,109.976,15.329z"/>
	<path fill="#EA5F69" d="M114.921,21.755c0-0.804,0.764-1.568,1.568-1.568c0.925,0,1.528,0.764,1.528,1.568
		c0,2.774-1.648,7.719-8.041,7.719c-0.804,0-1.568-0.764-1.568-1.568c0-0.925,0.764-1.528,1.568-1.528
		C111.463,26.378,114.921,25.695,114.921,21.755z"/>
	<path fill="#EA5F69" d="M116.485,18.093c0.948,0,1.532,0.511,1.532,1.459v1.767c0,0.948-0.583,1.532-1.532,1.532
		c-0.948,0-1.532-0.583-1.532-1.532v-1.767C114.953,18.604,115.537,18.093,116.485,18.093z"/>
	<path fill="#A8D9DB" d="M86.154,1.126c0.948,0,1.532,0.511,1.532,1.459v24.757c0,0.948-0.583,1.532-1.532,1.532
		c-0.948,0-1.532-0.583-1.532-1.532V2.585C84.623,1.637,85.206,1.126,86.154,1.126z"/>
</g>
</svg>
