<?xml version="1.0" encoding="utf-8"?>
<!-- Generator: Adobe Illustrator 17.0.0, SVG Export Plug-In . SVG Version: 6.00 Build 0)  -->
<!DOCTYPE svg PUBLIC "-//W3C//DTD SVG 1.1//EN" "http://www.w3.org/Graphics/SVG/1.1/DTD/svg11.dtd">
<svg version="1.1" id="Layer_5" xmlns="http://www.w3.org/2000/svg" xmlns:xlink="http://www.w3.org/1999/xlink" x="0px" y="0px"
	 width="500px" height="250px" viewBox="0 0 500 250" enable-background="new 0 0 500 250" xml:space="preserve">
<g>
	<g>
		<path fill="#1C3557" d="M418.266,83.254c2.338,1.422,3.01,3.556,1.588,5.894l-19.238,31.749c-1.422,2.338-3.736,2.901-6.074,1.479
			c-2.338-1.422-2.901-3.736-1.479-6.074l19.238-31.749C413.724,82.215,415.928,81.831,418.266,83.254z"/>
		<path fill="#EA5F69" d="M305.067,157.896c0-2.736,1.473-4.42,4.21-4.42h37.315c2.736,0,4.42,1.684,4.42,4.42
			s-1.684,4.42-4.42,4.42h-37.315C306.541,162.316,305.067,160.632,305.067,157.896z"/>
		<path fill="#467C9D" d="M309.185,86.659c0-2.736,1.473-4.42,4.21-4.42h14.645c2.736,0,4.42,1.684,4.42,4.42s-1.684,4.42-4.42,4.42
			h-14.645C310.659,91.079,309.185,89.395,309.185,86.659z"/>
		<path fill="#467C9D" d="M375.632,86.659c0-2.736,1.473-4.42,4.21-4.42h36.334c2.736,0,4.42,1.684,4.42,4.42s-1.684,4.42-4.42,4.42
			h-36.334C377.106,91.079,375.632,89.395,375.632,86.659z"/>
		<path fill="#1C3557" d="M127.4,83.752c0,2.321-2.198,4.518-4.641,4.518H88.808v26.38h31.265c2.443,0,4.64,2.199,4.64,4.641
			c0,2.198-2.198,4.64-4.64,4.64H88.93v39.936h-9.526V78.988h43.355C125.203,78.988,127.4,81.309,127.4,83.752z"/>
		<path fill="#1C3557" d="M201.891,165.455c-2.321,0.489-5.007-0.855-5.74-3.663l-5.251-21.617h-27.846l-5.251,21.617
			c-0.733,3.053-3.053,4.152-5.496,3.663c-3.053-0.61-4.396-3.053-3.785-5.74l18.93-80.726h18.807l19.174,80.726
			C206.043,162.402,204.334,164.966,201.891,165.455z M174.902,88.27l-9.77,42.5h23.57l-9.648-42.5H174.902z"/>
		<path fill="#1C3557" d="M271.535,119.901c7.572-3.298,9.037-13.068,9.037-17.342v-1.344c0-7.572-3.053-22.228-22.227-22.228
			h-25.281v84.879h25.891c19.052,0,22.96-15.022,22.96-22.472v-2.931C281.916,134.068,279.84,123.809,271.535,119.901z
			 M242.468,88.27h15.877c4.397,0,12.823,1.465,12.823,12.946v1.099c0,11.48-6.839,13.312-12.091,13.312h-16.609V88.27z
			 M272.512,141.029c0,11.602-9.038,13.434-13.556,13.434h-16.487v-29.433h17.098c5.13,0,12.946,1.831,12.946,13.555V141.029z"/>
		<path fill="#DBE5D8" d="M397.368,155.113c2.32,0,4.525,1.74,4.525,4.409c0,2.32-2.204,4.525-4.525,4.525
			c-18.448,0-23.204-14.271-23.204-22.276c0-2.32,1.74-4.525,4.409-4.525c2.32,0,4.525,2.204,4.525,4.525
			C383.097,153.141,393.075,155.113,397.368,155.113z"/>
		<path fill="#E53946" d="M396.788,123.226c-2.32,0-4.525-1.74-4.525-4.409c0-2.32,2.204-4.525,4.525-4.525
			c18.448,0,23.204,14.271,23.204,22.276c0,2.32-1.74,4.525-4.409,4.525c-2.32,0-4.525-2.204-4.525-4.525
			C411.058,125.199,401.08,123.226,396.788,123.226z"/>
		<path fill="#EA5F69" d="M411.058,141.771c0-2.32,2.204-4.525,4.525-4.525c2.669,0,4.409,2.204,4.409,4.525
			c0,8.006-4.757,22.276-23.204,22.276c-2.32,0-4.525-2.204-4.525-4.525c0-2.669,2.204-4.409,4.525-4.409
			C401.08,155.113,411.058,153.141,411.058,141.771z"/>
		<path fill="#EA5F69" d="M415.572,131.204c2.736,0,4.42,1.473,4.42,4.21v5.1c0,2.736-1.684,4.42-4.42,4.42
			c-2.736,0-4.42-1.684-4.42-4.42v-5.1C411.152,132.677,412.836,131.204,415.572,131.204z"/>
		<path fill="#A8D9DB" d="M328.04,82.239c2.736,0,4.42,1.473,4.42,4.21v71.448c0,2.736-1.684,4.42-4.42,4.42s-4.42-1.684-4.42-4.42
			V86.448C323.619,83.712,325.303,82.239,328.04,82.239z"/>
	</g>
	<g>
		<g>
			<path fill="#DBE5D8" d="M68.101,33.783c0-1.851,1.511-3.424,3.393-3.424c1.851,0,3.424,1.573,3.424,3.424
				c0,1.851-1.573,3.424-3.424,3.424C69.613,37.207,68.101,35.634,68.101,33.783z"/>
			<path fill="#EA5F69" d="M78.557,49.039c0-1.851,1.511-3.424,3.393-3.424c1.851,0,3.424,1.573,3.424,3.424
				s-1.573,3.424-3.424,3.424C80.068,52.464,78.557,50.89,78.557,49.039z"/>
			<path fill="#A8D9DB" d="M92.396,7.437c0-1.851,1.511-3.424,3.393-3.424c1.851,0,3.424,1.573,3.424,3.424
				c0,1.851-1.573,3.424-3.424,3.424C93.907,10.861,92.396,9.288,92.396,7.437z"/>
			<path fill="#467C9D" d="M100.006,33.783c0-1.851,1.511-3.424,3.393-3.424c1.851,0,3.424,1.573,3.424,3.424
				c0,1.851-1.573,3.424-3.424,3.424C101.518,37.207,100.006,35.634,100.006,33.783z"/>
			<path fill="#1C3557" d="M108.516,19.814c0-1.851,1.511-3.424,3.393-3.424c1.851,0,3.424,1.573,3.424,3.424
				c0,1.851-1.573,3.424-3.424,3.424C110.028,23.238,108.516,21.665,108.516,19.814z"/>
			<path fill="#E53946" d="M108.516,52.464c0-1.851,1.511-3.424,3.393-3.424c1.851,0,3.424,1.573,3.424,3.424
				c0,1.851-1.573,3.424-3.424,3.424C110.028,55.887,108.516,54.314,108.516,52.464z"/>
		</g>
		<g>
			<path fill="#1C3557" d="M313.719,53.868c0,1.539-0.947,2.486-2.486,2.486s-2.486-0.947-2.486-2.486V38.604
				c0-1.539,0.947-2.368,2.486-2.368s2.486,0.829,2.486,2.368V53.868z"/>
			<path fill="#A8D9DB" d="M329.326,53.868c0,1.539-0.947,2.486-2.486,2.486s-2.486-0.947-2.486-2.486V5.194
				c0-1.539,0.947-2.368,2.486-2.368s2.486,0.829,2.486,2.368V53.868z"/>
			<path fill="#E53946" d="M326.84,7.798c-1.539,0-2.486-0.947-2.486-2.486c0-1.539,0.947-2.486,2.486-2.486h16.474
				c1.539,0,2.368,0.947,2.368,2.486c0,1.539-0.829,2.486-2.368,2.486H326.84z"/>
			<path fill="#1C3557" d="M345.8,53.868c0,1.539-0.947,2.486-2.486,2.486c-1.539,0-2.486-0.947-2.486-2.486V5.194
				c0-1.539,0.947-2.368,2.486-2.368c1.539,0,2.486,0.829,2.486,2.368V53.868z"/>
			<path fill="#EA5F69" d="M326.84,26.784c-1.539,0-2.486-0.947-2.486-2.486c0-1.539,0.947-2.486,2.486-2.486h33.067
				c1.539,0,2.368,0.947,2.368,2.486c0,1.539-0.829,2.486-2.368,2.486H326.84z"/>
			<path fill="#467C9D" d="M311.233,41.208c-1.539,0-2.486-0.947-2.486-2.486c0-1.539,0.947-2.486,2.486-2.486h48.674
				c1.539,0,2.368,0.947,2.368,2.486c0,1.539-0.829,2.486-2.368,2.486H311.233z"/>
			<path fill="#A8D9DB" d="M362.275,53.868c0,1.539-0.947,2.486-2.486,2.486s-2.486-0.947-2.486-2.486V24.179
				c0-1.539,0.947-2.368,2.486-2.368s2.486,0.829,2.486,2.368V53.868z"/>
			<path fill="#DBE5D8" d="M311.233,56.354c-1.539,0-2.486-0.947-2.486-2.486c0-1.539,0.947-2.486,2.486-2.486h48.674
				c1.539,0,2.368,0.947,2.368,2.486c0,1.539-0.829,2.486-2.368,2.486H311.233z"/>
		</g>
		<g>
			<path fill="#E53946" d="M128.242,49.786l19.38-19.38c1.088-1.088,2.427-1.088,3.515,0c1.088,1.088,1.088,2.427,0,3.516
				l-19.38,19.38c-1.088,1.088-2.344,1.005-3.432-0.084C127.238,52.13,127.154,50.874,128.242,49.786z"/>
			<path fill="#DBE5D8" d="M151.137,29.554c1.088,1.088,1.088,2.427,0,3.516c-1.088,1.088-2.427,1.088-3.515,0l-19.38-19.38
				c-1.088-1.088-1.004-2.344,0.084-3.432c1.088-1.088,2.344-1.172,3.432-0.084L151.137,29.554z"/>
			<path fill="#1C3557" d="M175.599,29.554c1.088,1.088,1.088,2.427,0,3.516c-1.088,1.088-2.427,1.088-3.516,0l-19.38-19.38
				c-1.088-1.088-1.004-2.344,0.084-3.432c1.088-1.088,2.344-1.172,3.432-0.084L175.599,29.554z"/>
			<path fill="#467C9D" d="M152.703,49.786l19.38-19.38c1.088-1.088,2.428-1.088,3.516,0c1.088,1.088,1.088,2.427,0,3.516
				l-19.38,19.38c-1.088,1.088-2.344,1.005-3.432-0.084C151.699,52.13,151.615,50.874,152.703,49.786z"/>
		</g>
		<g>
			<path fill="#A8D9DB" d="M405.215,39.818c-3.333,0-6.011-2.787-6.011-6.066s2.678-6.066,6.011-6.066
				c3.279,0,6.066,2.787,6.066,6.066S408.493,39.818,405.215,39.818z"/>
			<path fill="#467C9D" d="M381.161,52.106h48.272c1.526,0,2.465,0.939,2.465,2.465c0,1.526-0.939,2.465-2.465,2.465h-48.272
				c-1.526,0-2.348-0.939-2.348-2.465C378.813,53.045,379.635,52.106,381.161,52.106z"/>
			<path fill="#1C3557" d="M406.272,2.913l23.951,23.951c1.079,1.079,1.079,2.407,0,3.487s-2.407,1.079-3.487,0L402.786,6.4
				c-1.079-1.079-0.996-2.324,0.083-3.404S405.193,1.834,406.272,2.913z"/>
			<path fill="#E53946" d="M405.921,2.996c1.079,1.079,1.162,2.324,0.083,3.404l-23.951,23.951c-1.079,1.079-2.407,1.079-3.487,0
				s-1.079-2.407,0-3.487l23.951-23.951C403.596,1.834,404.842,1.917,405.921,2.996z"/>
		</g>
		<g>
			<g>
				<path fill="#1C3557" d="M282.624,4.641l17.764,28.789c0.8,1.297,0.495,2.588-0.803,3.388s-2.588,0.495-3.388-0.803
					L278.433,7.227c-0.8-1.297-0.433-2.488,0.864-3.289S281.824,3.344,282.624,4.641z"/>
				<path fill="#E53946" d="M282.264,4.641c0.8,1.297,0.594,2.526-0.703,3.327l-28.789,17.764c-1.297,0.8-2.588,0.495-3.388-0.803
					c-0.8-1.297-0.495-2.588,0.803-3.388l28.789-17.764C280.272,2.977,281.463,3.344,282.264,4.641z"/>
				<path fill="#DBE5D8" d="M266.952,54.539L249.189,25.75c-0.8-1.297-0.495-2.588,0.803-3.388s2.588-0.495,3.388,0.803
					l17.764,28.789c0.8,1.297,0.433,2.488-0.864,3.289S267.753,55.837,266.952,54.539z"/>
				<path fill="#467C9D" d="M267.313,54.54c-0.8-1.297-0.594-2.526,0.703-3.327l28.789-17.764c1.297-0.8,2.588-0.495,3.388,0.803
					c0.8,1.297,0.495,2.588-0.803,3.388l-28.789,17.764C269.304,56.204,268.113,55.837,267.313,54.54z"/>
			</g>
			<path fill="#A8D9DB" d="M288.934,33.554v19.53c0,1.524-0.938,2.462-2.462,2.462s-2.462-0.938-2.462-2.462v-19.53
				c0-1.524,0.938-2.345,2.462-2.345S288.934,32.03,288.934,33.554z"/>
		</g>
		<g>
			<path fill="#A8D9DB" d="M210.434,36.21c-3.824,0-6.895-3.197-6.895-6.958s3.071-6.958,6.895-6.958
				c3.761,0,6.958,3.197,6.958,6.958S214.195,36.21,210.434,36.21z"/>
			<path fill="#467C9D" d="M212.928,5.395v7.563c0,1.525-0.938,2.463-2.463,2.463c-1.525,0-2.463-0.938-2.463-2.463V5.395
				c0-1.525,0.938-2.346,2.463-2.346C211.99,3.049,212.928,3.871,212.928,5.395z"/>
			<path fill="#1C3557" d="M229.076,14.125l-5.348,5.348c-1.078,1.078-2.405,1.078-3.483,0s-1.078-2.405,0-3.483l5.348-5.348
				c1.078-1.078,2.322-0.995,3.4,0.083S230.155,13.046,229.076,14.125z"/>
			<path fill="#EA5F69" d="M234.322,31.716h-7.563c-1.525,0-2.463-0.938-2.463-2.463c0-1.525,0.938-2.463,2.463-2.463h7.563
				c1.525,0,2.346,0.938,2.346,2.463C236.668,30.777,235.847,31.716,234.322,31.716z"/>
			<path fill="#E53946" d="M225.593,47.864l-5.348-5.348c-1.078-1.078-1.078-2.405,0-3.483c1.078-1.078,2.405-1.078,3.483,0
				l5.348,5.348c1.078,1.078,0.995,2.322-0.083,3.4C227.915,48.859,226.671,48.942,225.593,47.864z"/>
			<path fill="#467C9D" d="M208.002,53.109v-7.563c0-1.525,0.938-2.463,2.463-2.463c1.525,0,2.463,0.938,2.463,2.463v7.563
				c0,1.525-0.938,2.346-2.463,2.346C208.94,55.455,208.002,54.634,208.002,53.109z"/>
			<path fill="#1C3557" d="M191.854,44.38l5.348-5.348c1.078-1.078,2.405-1.078,3.483,0c1.078,1.078,1.078,2.405,0,3.483
				l-5.348,5.348c-1.078,1.078-2.322,0.995-3.4-0.083C190.859,46.702,190.776,45.458,191.854,44.38z"/>
			<path fill="#EA5F69" d="M186.608,26.789h7.563c1.525,0,2.463,0.938,2.463,2.463c0,1.525-0.938,2.463-2.463,2.463h-7.563
				c-1.525,0-2.346-0.938-2.346-2.463C184.262,27.728,185.083,26.789,186.608,26.789z"/>
			<path fill="#DBE5D8" d="M195.337,10.641l5.348,5.348c1.078,1.078,1.078,2.405,0,3.483s-2.405,1.078-3.483,0l-5.348-5.348
				c-1.078-1.078-0.995-2.322,0.083-3.4S194.259,9.563,195.337,10.641z"/>
		</g>
	</g>
	<g>
		<path fill="#467C9D" d="M93.075,187.692c0.665,0,1.264,0.632,1.264,1.298c0,0.632-0.599,1.231-1.264,1.231h-9.249v7.186h8.517
			c0.665,0,1.264,0.599,1.264,1.264c0,0.599-0.599,1.264-1.264,1.264h-8.484v10.879h-2.595v-23.123H93.075z"/>
		<path fill="#467C9D" d="M115.532,209.684c0.166,0.732-0.299,1.431-0.965,1.564c-0.632,0.133-1.364-0.233-1.564-0.998l-1.431-5.889
			h-7.586l-1.431,5.889c-0.2,0.832-0.832,1.131-1.497,0.998c-0.832-0.166-1.198-0.832-1.031-1.564l5.157-21.992h5.124
			L115.532,209.684z M108.345,190.221h-1.131l-2.662,11.578h6.421L108.345,190.221z"/>
		<path fill="#467C9D" d="M128.14,210.815h-7.053v-23.123h6.887c5.223,0,6.055,3.992,6.055,6.055v0.366
			c0,1.164-0.399,3.826-2.462,4.724c2.262,1.065,2.828,3.859,2.828,5.057v0.798C134.395,206.723,133.33,210.815,128.14,210.815z
			 M131.467,193.748c0-3.127-2.296-3.527-3.493-3.527h-4.325v7.453h4.525c1.431,0,3.294-0.499,3.294-3.626V193.748z
			 M131.833,203.928c0-3.194-2.129-3.693-3.527-3.693h-4.658v8.018h4.492c1.231,0,3.693-0.499,3.693-3.66V203.928z"/>
		<path fill="#467C9D" d="M147.403,201.134h-3.693v8.95c0,0.699-0.632,1.331-1.298,1.331c-0.699,0-1.298-0.632-1.298-1.331v-22.391
			h6.887c5.223,0,6.255,4.092,6.255,6.122v1.098c0,1.763-0.865,4.791-4.159,5.955l3.793,8.75c0.299,0.732-0.133,1.431-0.665,1.664
			c-0.566,0.233-1.397,0-1.697-0.699L147.403,201.134z M151.662,193.914c0-3.127-2.429-3.693-3.66-3.693h-4.325v8.384h4.392
			c1.264,0,3.593-0.532,3.593-3.726V193.914z"/>
		<path fill="#467C9D" d="M163.007,187.692h9.249c0.665,0,1.264,0.632,1.264,1.331c0,0.732-0.599,1.231-1.264,1.231h-3.394v17.999
			h3.394c0.665,0,1.264,0.632,1.264,1.331c0,0.732-0.599,1.231-1.264,1.231h-9.249c-0.732,0-1.231-0.499-1.231-1.231
			c0-0.699,0.499-1.331,1.231-1.331h3.394v-17.999h-3.394c-0.732,0-1.231-0.499-1.231-1.231
			C161.776,188.325,162.275,187.692,163.007,187.692z"/>
		<path fill="#467C9D" d="M192.85,203.529c0.699,0,1.298,0.632,1.298,1.298c0,2.163-1.364,6.288-6.621,6.288
			c-5.157,0-6.454-4.126-6.454-6.255v-11.212c0-1.996,1.331-6.188,6.588-6.188c5.024,0,6.454,3.926,6.454,6.155
			c0,0.732-0.599,1.231-1.264,1.231c-0.699,0-1.231-0.499-1.231-1.231c-0.033-3.094-2.761-3.626-3.959-3.626
			c-1.231,0-4.026,0.532-4.026,3.726v11.146c0,3.194,2.795,3.693,4.026,3.693c1.231,0,3.959-0.532,3.959-3.726
			C191.619,204.161,192.151,203.529,192.85,203.529z"/>
		<path fill="#467C9D" d="M215.34,209.684c0.166,0.732-0.299,1.431-0.965,1.564c-0.632,0.133-1.364-0.233-1.564-0.998l-1.431-5.889
			h-7.586l-1.431,5.889c-0.2,0.832-0.832,1.131-1.497,0.998c-0.832-0.166-1.198-0.832-1.031-1.564l5.157-21.992h5.124
			L215.34,209.684z M208.154,190.221h-1.131l-2.662,11.578h6.421L208.154,190.221z"/>
		<path fill="#467C9D" d="M226.318,190.288h-4.957c-0.665,0-1.298-0.599-1.298-1.264c0-0.699,0.632-1.331,1.298-1.331h12.377
			c0.665,0,1.298,0.632,1.298,1.331c0,0.665-0.632,1.264-1.298,1.264h-4.924v19.796c0,0.765-0.532,1.298-1.264,1.298
			c-0.765,0-1.231-0.532-1.231-1.298V190.288z"/>
		<path fill="#467C9D" d="M242.853,187.692h9.249c0.665,0,1.264,0.632,1.264,1.331c0,0.732-0.599,1.231-1.264,1.231h-3.394v17.999
			h3.394c0.665,0,1.264,0.632,1.264,1.331c0,0.732-0.599,1.231-1.264,1.231h-9.249c-0.732,0-1.231-0.499-1.231-1.231
			c0-0.699,0.499-1.331,1.231-1.331h3.394v-17.999h-3.394c-0.732,0-1.231-0.499-1.231-1.231
			C241.622,188.325,242.121,187.692,242.853,187.692z"/>
		<path fill="#467C9D" d="M272.53,187.16c0.699,0,1.298,0.532,1.298,1.298v22.391h-3.959l-6.155-18.698v17.966
			c0,0.699-0.599,1.331-1.298,1.331c-0.699,0-1.298-0.632-1.298-1.331v-22.424h3.826l6.288,19.064v-18.299
			C271.232,187.692,271.831,187.16,272.53,187.16z"/>
		<path fill="#467C9D" d="M287.434,189.988c-1.231,0-4.026,0.532-4.026,3.726v11.146c0,3.194,2.795,3.693,4.026,3.693
			c1.231,0,3.992-0.532,3.992-3.693v-4.292h-4.059c-0.665,0-1.231-0.599-1.231-1.298c0-0.665,0.566-1.231,1.231-1.231h6.621v6.854
			c0,2.096-1.431,6.222-6.687,6.222c-5.157,0-6.454-4.126-6.454-6.255v-11.212c0-1.996,1.331-6.188,6.588-6.188
			c5.157,0,6.454,4.159,6.454,6.222c0,0.665-0.599,1.264-1.264,1.264c-0.699,0-1.231-0.599-1.231-1.264
			C291.393,190.52,288.665,189.988,287.434,189.988z"/>
	</g>
	<g>
		<path fill="#EB5F69" d="M87.884,224.985c-1.83,0-3.826,0.898-3.826,3.028c0,1.53,0.832,2.362,1.996,3.061l5.39,3.194
			c2.196,1.298,3.394,3.327,3.394,5.955c0,3.693-2.928,6.022-6.92,6.022c-4.092,0-6.654-2.795-6.654-6.255
			c0-0.665,0.532-1.264,1.264-1.264c0.665,0,1.264,0.599,1.264,1.264c0,2.395,1.797,3.626,4.092,3.626
			c2.628,0,4.392-1.198,4.392-3.36c0-1.797-0.865-2.994-2.296-3.859l-5.423-3.194c-1.83-1.098-3.061-2.961-3.061-5.257
			c0-3.26,2.562-5.589,6.388-5.589c3.959,0,6.621,2.362,6.621,5.922c0,0.665-0.632,1.264-1.264,1.264
			c-0.665,0-1.298-0.499-1.298-1.264C91.943,226.249,90.18,224.985,87.884,224.985z"/>
		<path fill="#EB5F69" d="M107.879,246.112c-5.157,0-6.454-4.126-6.454-6.255v-11.212c0-1.996,1.331-6.188,6.588-6.188
			c5.157,0,6.554,4.192,6.554,6.222v11.212C114.567,241.986,113.136,246.112,107.879,246.112z M112.005,228.711
			c0-3.161-2.761-3.726-3.992-3.726c-1.231,0-4.026,0.532-4.026,3.726v11.146c0,3.194,2.795,3.693,4.026,3.693
			c1.231,0,3.959-0.532,3.959-3.693L112.005,228.711z"/>
		<path fill="#EB5F69" d="M133.197,238.526c0.699,0,1.298,0.632,1.298,1.298c0,2.163-1.364,6.288-6.621,6.288
			c-5.157,0-6.454-4.126-6.454-6.255v-11.212c0-1.996,1.331-6.188,6.588-6.188c5.024,0,6.454,3.926,6.454,6.155
			c0,0.732-0.599,1.231-1.264,1.231c-0.699,0-1.231-0.499-1.231-1.231c-0.033-3.094-2.761-3.626-3.959-3.626
			c-1.231,0-4.026,0.532-4.026,3.726v11.146c0,3.194,2.795,3.693,4.026,3.693s3.959-0.532,3.959-3.726
			C131.966,239.158,132.499,238.526,133.197,238.526z"/>
		<path fill="#EB5F69" d="M143.278,222.689h9.249c0.665,0,1.264,0.632,1.264,1.331c0,0.732-0.599,1.231-1.264,1.231h-3.394v17.999
			h3.394c0.665,0,1.264,0.632,1.264,1.331c0,0.732-0.599,1.231-1.264,1.231h-9.249c-0.732,0-1.231-0.499-1.231-1.231
			c0-0.699,0.499-1.331,1.231-1.331h3.394v-17.999h-3.394c-0.732,0-1.231-0.499-1.231-1.231
			C142.047,223.321,142.546,222.689,143.278,222.689z"/>
		<path fill="#EB5F69" d="M163.938,243.284h9.216c0.665,0,1.264,0.632,1.264,1.298s-0.599,1.231-1.264,1.231h-11.811v-23.123h11.811
			c0.665,0,1.264,0.632,1.264,1.298c0,0.632-0.599,1.231-1.264,1.231h-9.249v7.12h8.517c0.665,0,1.264,0.599,1.264,1.264
			c0,0.599-0.599,1.264-1.264,1.264h-8.484V243.284z"/>
		<path fill="#EB5F69" d="M186.628,225.284h-4.957c-0.665,0-1.298-0.599-1.298-1.264c0-0.699,0.632-1.331,1.298-1.331h12.377
			c0.665,0,1.298,0.632,1.298,1.331c0,0.665-0.632,1.264-1.298,1.264h-4.924v19.796c0,0.765-0.532,1.298-1.264,1.298
			c-0.765,0-1.231-0.532-1.231-1.298V225.284z"/>
		<path fill="#EB5F69" d="M206.557,237.461l-5.49-13.308c-0.266-0.665,0.033-1.464,0.665-1.73c0.699-0.299,1.464,0,1.763,0.732
			l4.325,10.746l4.259-10.746c0.266-0.699,1.131-0.998,1.73-0.732c0.732,0.333,0.998,0.998,0.699,1.73l-5.456,13.308v7.619
			c0,0.765-0.532,1.298-1.264,1.298c-0.765,0-1.231-0.532-1.231-1.298V237.461z"/>
	</g>
</g>
</svg>
