<?xml version="1.0" encoding="utf-8"?>
<!-- Generator: Adobe Illustrator 17.0.0, SVG Export Plug-In . SVG Version: 6.00 Build 0)  -->
<!DOCTYPE svg PUBLIC "-//W3C//DTD SVG 1.1//EN" "http://www.w3.org/Graphics/SVG/1.1/DTD/svg11.dtd">
<svg version="1.1" xmlns="http://www.w3.org/2000/svg" xmlns:xlink="http://www.w3.org/1999/xlink" x="0px" y="0px"
	 width="315.268px" height="80px" viewBox="0 0 315.268 80" enable-background="new 0 0 315.268 80" xml:space="preserve">
<g id="fab13">
	<g>
		<path fill="#FFFFFF" d="M313.115,3.941c2.16,1.314,2.782,3.286,1.467,5.446l-17.776,29.337c-1.314,2.16-3.452,2.681-5.612,1.366
			c-2.16-1.314-2.681-3.452-1.366-5.612l17.776-29.337C308.919,2.981,310.955,2.627,313.115,3.941z"/>
		<path fill="#EA5F69" d="M208.518,72.912c0-2.528,1.361-4.084,3.89-4.084h34.48c2.528,0,4.084,1.556,4.084,4.084
			c0,2.528-1.556,4.084-4.084,4.084h-34.48C209.879,76.997,208.518,75.441,208.518,72.912z"/>
		<path fill="#467C9D" d="M212.323,7.088c0-2.528,1.361-4.084,3.89-4.084h13.532c2.528,0,4.084,1.556,4.084,4.084
			s-1.556,4.084-4.084,4.084h-13.532C213.684,11.172,212.323,9.616,212.323,7.088z"/>
		<path fill="#467C9D" d="M273.721,7.088c0-2.528,1.361-4.084,3.89-4.084h33.573c2.528,0,4.084,1.556,4.084,4.084
			s-1.556,4.084-4.084,4.084h-33.573C275.083,11.172,273.721,9.616,273.721,7.088z"/>
		<path fill="#FFFFFF" d="M44.349,4.401c0,2.144-2.031,4.175-4.289,4.175H8.689v24.376h28.889c2.257,0,4.288,2.032,4.288,4.288
			c0,2.031-2.031,4.288-4.288,4.288H8.802V78.43H0V0h40.061C42.318,0,44.349,2.145,44.349,4.401z"/>
		<path fill="#FFFFFF" d="M113.181,79.897c-2.144,0.451-4.626-0.79-5.304-3.385l-4.852-19.975H77.294l-4.852,19.975
			c-0.678,2.821-2.821,3.837-5.079,3.385c-2.821-0.564-4.062-2.821-3.498-5.304L81.358,0h17.378l17.717,74.593
			C117.017,77.076,115.438,79.446,113.181,79.897z M88.242,8.576l-9.028,39.271h21.78L92.078,8.576H88.242z"/>
		<path fill="#FFFFFF" d="M141.986,78.43V0h23.36c17.717,0,20.538,13.542,20.538,20.539v1.241c0,3.949-1.354,12.977-8.35,16.024
			c7.674,3.611,9.592,13.091,9.592,17.153v2.708c0,6.884-3.611,20.764-21.216,20.764H141.986z M165.345,8.576h-14.671v25.278h15.348
			c4.853,0,11.172-1.693,11.172-12.3v-1.015C177.195,9.931,169.408,8.576,165.345,8.576z M166.474,42.545h-15.799v27.196h15.235
			c4.175,0,12.526-1.693,12.526-12.414V55.07C178.436,44.237,171.214,42.545,166.474,42.545z"/>
		<path fill="#DBE5D8" d="M293.805,70.341c2.144,0,4.181,1.608,4.181,4.074c0,2.144-2.037,4.181-4.181,4.181
			c-17.046,0-21.441-13.186-21.441-20.584c0-2.144,1.608-4.181,4.074-4.181c2.144,0,4.181,2.037,4.181,4.181
			C280.619,68.519,289.839,70.341,293.805,70.341z"/>
		<path fill="#E53946" d="M293.269,40.877c-2.144,0-4.181-1.608-4.181-4.074c0-2.144,2.037-4.181,4.181-4.181
			c17.046,0,21.441,13.186,21.441,20.584c0,2.144-1.608,4.181-4.074,4.181c-2.144,0-4.181-2.037-4.181-4.181
			C306.456,42.699,297.236,40.877,293.269,40.877z"/>
		<path fill="#EA5F69" d="M306.456,58.012c0-2.144,2.037-4.181,4.181-4.181c2.466,0,4.074,2.037,4.074,4.181
			c0,7.397-4.396,20.584-21.441,20.584c-2.144,0-4.181-2.037-4.181-4.181c0-2.466,2.037-4.074,4.181-4.074
			C297.236,70.341,306.456,68.519,306.456,58.012z"/>
		<path fill="#EA5F69" d="M310.626,48.249c2.528,0,4.084,1.361,4.084,3.89v4.712c0,2.528-1.556,4.084-4.084,4.084
			c-2.528,0-4.084-1.556-4.084-4.084v-4.712C306.542,49.61,308.098,48.249,310.626,48.249z"/>
		<path fill="#A8D9DB" d="M229.745,3.003c2.528,0,4.084,1.361,4.084,3.89v66.019c0,2.528-1.556,4.084-4.084,4.084
			s-4.084-1.556-4.084-4.084V6.893C225.66,4.365,227.216,3.003,229.745,3.003z"/>
	</g>
</g>
<g id="fabfoundation" display="none">
	<g display="inline">
		<path fill="#0AAA64" d="M30.067,69.05v-2.49c0-0.201-0.107-0.388-0.281-0.489l-5.112-2.98c-0.174-0.101-0.281-0.288-0.281-0.489
			v-6.674c0.214-0.086,0.431-0.182,0.634-0.301c3.36-1.904,3.787-7.484,0.956-12.449c-2.822-4.97-7.837-7.449-11.192-5.537
			c-3.359,1.903-3.788,7.48-0.954,12.447c0.404,0.711,0.852,1.371,1.33,1.971c0.078,0.098,0.12,0.217,0.12,0.342v4.243
			c0,0.437-0.473,0.709-0.851,0.489l-6.175-3.593c-0.174-0.101-0.281-0.288-0.281-0.489V28.324c0-0.202-0.108-0.389-0.283-0.49
			L6.09,26.906c-0.284-0.164-0.653-0.057-0.798,0.237c-1.921,3.884-2.997,8.241-2.997,12.866
			C2.295,55.632,14.606,68.375,30.067,69.05"/>
		<path fill="#EE3045" d="M14.709,22.687c0.175-0.1,0.39-0.1,0.565,0.001l5.777,3.337c-0.034,0.231-0.049,0.468-0.049,0.706
			c-0.023,3.861,4.585,7.02,10.301,7.059c5.715,0.032,10.37-3.069,10.393-6.931c0.022-3.859-4.593-7.015-10.307-7.056
			c-0.814-0.005-1.608,0.055-2.369,0.174c-0.125,0.02-0.25-0.003-0.36-0.066l-3.672-2.123c-0.378-0.218-0.377-0.764,0.002-0.981
			l6.196-3.555c0.175-0.1,0.39-0.1,0.565,0.001l21.543,12.442c0.175,0.101,0.391,0.101,0.566,0l1.549-0.894
			c0.283-0.163,0.375-0.535,0.196-0.807c-2.409-3.658-5.666-6.801-9.717-9.136C32.494,7.12,15.521,11.245,7.114,23.975
			c-0.18,0.272-0.089,0.645,0.194,0.808l1.584,0.915c0.175,0.101,0.39,0.101,0.565,0.001L14.709,22.687z"/>
		<path fill="#1B459B" d="M54.708,34.264c-0.001,0.201-0.108,0.387-0.283,0.488l-5.778,3.339c-0.182-0.15-0.371-0.284-0.58-0.404
			c-3.331-1.947-8.379,0.465-11.263,5.398c-2.886,4.933-2.53,10.513,0.802,12.463c3.331,1.951,8.373-0.464,11.261-5.401
			c0.413-0.699,0.761-1.415,1.036-2.131c0.045-0.118,0.128-0.215,0.237-0.278l3.68-2.12c0.378-0.218,0.85,0.056,0.849,0.493
			l-0.027,7.14c-0.001,0.201-0.109,0.387-0.283,0.488L32.958,66.099c-0.175,0.101-0.283,0.288-0.283,0.49v1.858
			c0,0.328,0.277,0.594,0.604,0.573c4.319-0.28,8.624-1.524,12.623-3.832c13.359-7.718,18.282-24.404,11.534-38.036
			c-0.145-0.293-0.514-0.401-0.797-0.238l-1.625,0.937c-0.175,0.101-0.282,0.287-0.283,0.488L54.708,34.264z"/>
		<g>
			<g>
				<path fill="#231E20" d="M68.144,17.326h28.922v7.605H77.19v9.506h17.226v7.029H77.19v16.996h-9.046V17.326z"/>
				<path fill="#231E20" d="M109.104,17.326h9.276l15.383,41.136h-9.391l-3.111-9.161h-15.383l-3.226,9.161h-9.161L109.104,17.326z
					 M108.24,42.561h10.658l-5.185-15.094h-0.115L108.24,42.561z"/>
				<path fill="#231E20" d="M136.063,17.326h19.358c7.835,0,13.136,2.535,13.136,10.198c0,4.033-2.017,6.856-5.588,8.584
					c5.012,1.44,7.547,5.3,7.547,10.428c0,8.354-7.087,11.926-14.519,11.926h-19.935V17.326z M145.108,33.976h9.16
					c3.169,0,5.531-1.44,5.531-4.897c0-3.918-2.996-4.724-6.222-4.724h-8.469V33.976z M145.108,51.434h9.679
					c3.572,0,6.683-1.152,6.683-5.416c0-4.206-2.65-5.876-6.51-5.876h-9.852V51.434z"/>
				<path fill="#C0BFBF" d="M175.87,17.326h27.021v4.609h-21.547v13.078h18.897v4.609h-18.897v18.84h-5.473V17.326z"/>
				<path fill="#C0BFBF" d="M225.759,16.347c13.078,0,19.704,10.371,19.704,21.548c0,11.177-6.626,21.547-19.704,21.547
					c-13.079,0-19.704-10.371-19.704-21.547C206.055,26.717,212.68,16.347,225.759,16.347z M225.759,54.833
					c10.024,0,14.23-8.642,14.23-16.938c0-8.297-4.206-16.939-14.23-16.939c-10.025,0-14.231,8.642-14.231,16.939
					C211.528,46.191,215.734,54.833,225.759,54.833z"/>
				<path fill="#C0BFBF" d="M284.405,43.598c0,10.371-5.934,15.844-16.189,15.844c-10.601,0-16.881-4.897-16.881-15.844V17.326
					h5.473v26.272c0,7.26,4.148,11.235,11.408,11.235c6.913,0,10.716-3.975,10.716-11.235V17.326h5.473V43.598z"/>
				<path fill="#C0BFBF" d="M292.523,17.326h5.819l21.663,33.358h0.115V17.326h5.186v41.136h-5.992l-21.49-33.012h-0.115v33.012
					h-5.186V17.326z"/>
				<path fill="#C0BFBF" d="M333.598,17.326h14.115c12.675,0,19.762,6.338,19.762,19.589c0,13.77-6.05,21.547-19.762,21.547h-14.115
					V17.326z M339.071,53.853h9.103c3.745,0,13.827-1.037,13.827-16.19c0-9.794-3.63-15.728-13.712-15.728h-9.218V53.853z"/>
				<path fill="#C0BFBF" d="M384.753,17.326h6.05l16.074,41.136h-6.049l-4.494-12.387h-17.399l-4.61,12.387h-5.645L384.753,17.326z
					 M380.663,41.466h13.942l-6.856-19.185h-0.116L380.663,41.466z"/>
				<path fill="#C0BFBF" d="M414.364,21.935h-13.712v-4.609h32.897v4.609h-13.712v36.527h-5.473V21.935z"/>
				<path fill="#C0BFBF" d="M437.752,17.326h5.473v41.136h-5.473V17.326z"/>
				<path fill="#C0BFBF" d="M469.262,16.347c13.079,0,19.705,10.371,19.705,21.548c0,11.177-6.626,21.547-19.705,21.547
					c-13.078,0-19.704-10.371-19.704-21.547C449.559,26.717,456.185,16.347,469.262,16.347z M469.262,54.833
					c10.025,0,14.231-8.642,14.231-16.938c0-8.297-4.206-16.939-14.231-16.939c-10.024,0-14.23,8.642-14.23,16.939
					C455.032,46.191,459.238,54.833,469.262,54.833z"/>
				<path fill="#C0BFBF" d="M495.011,17.326h5.819l21.663,33.358h0.115V17.326h5.186v41.136h-5.992l-21.49-33.012h-0.115v33.012
					h-5.186V17.326z"/>
			</g>
		</g>
	</g>
</g>
<g id="Layer_3" display="none">
	<g display="inline">
		<g>
			<path fill="#0AAA64" d="M67.751,46.556l28.461-16.43c1.338-0.773,2.987-0.773,4.325,0l28.461,16.43
				c1.338,0.773,2.163,2.201,2.163,3.746v32.864c0,1.545-0.824,2.973-2.163,3.746l-28.461,16.433c-1.338,0.773-2.987,0.773-4.326,0
				L67.75,86.912c-1.338-0.773-2.163-2.201-2.163-3.746V50.302C65.588,48.757,66.412,47.329,67.751,46.556z"/>
			<path fill="#EE3045" d="M2.163,46.556l28.461-16.43c1.338-0.773,2.987-0.773,4.325,0l28.461,16.43
				c1.338,0.773,2.163,2.201,2.163,3.746v32.864c0,1.545-0.824,2.973-2.163,3.746l-28.461,16.433c-1.338,0.773-2.987,0.773-4.326,0
				L2.163,86.912C0.824,86.139,0,84.711,0,83.166V50.302C0,48.757,0.824,47.329,2.163,46.556z"/>
			<path fill="#1B459B" d="M34.949-10.231l28.461-16.43c1.338-0.773,2.987-0.773,4.325,0l28.461,16.43
				c1.338,0.773,2.163,2.201,2.163,3.746v32.864c0,1.545-0.824,2.973-2.163,3.746L67.736,46.558c-1.338,0.773-2.987,0.773-4.326,0
				L34.949,30.125c-1.338-0.773-2.163-2.201-2.163-3.746V-6.485C32.787-8.03,33.611-9.458,34.949-10.231z"/>
			<path fill="#221E20" d="M34.95,27.631L63.411,11.2c1.338-0.773,2.987-0.773,4.325,0l28.461,16.43
				c1.338,0.773,2.163,2.201,2.163,3.746V64.24c0,1.545-0.824,2.973-2.163,3.746L67.737,84.419c-1.338,0.773-2.987,0.773-4.326,0
				L34.95,67.986c-1.338-0.773-2.163-2.201-2.163-3.746V31.377C32.787,29.831,33.612,28.403,34.95,27.631z"/>
		</g>
		<g>
			<g>
				<path fill="#FFFFFF" d="M48.551,35.489v2.829c0,0.276,0.224,0.5,0.5,0.5h5.775c0.276,0,0.5,0.224,0.5,0.5v1.946
					c0,0.276-0.224,0.5-0.5,0.5h-5.775c-0.276,0-0.5,0.224-0.5,0.5v5.102c0,0.276-0.224,0.5-0.5,0.5h-2.272
					c-0.276,0-0.5-0.224-0.5-0.5V32.496c0-0.276,0.224-0.5,0.5-0.5h10.277c0.276,0,0.5,0.224,0.5,0.5v1.992
					c0,0.276-0.224,0.5-0.5,0.5h-7.005C48.775,34.989,48.551,35.213,48.551,35.489z"/>
				<path fill="#FFFFFF" d="M72.171,43.861v3.507c0,0.276-0.224,0.5-0.5,0.5h-2.248c-0.276,0-0.5-0.224-0.5-0.5v-3.097l-0.302-0.719
					h-6.08l-0.302,0.719v3.097c0,0.276-0.224,0.5-0.5,0.5h-2.271c-0.276,0-0.5-0.224-0.5-0.5v-3.507
					c0-0.066,0.013-0.132,0.039-0.193l4.752-11.364c0.078-0.186,0.26-0.307,0.461-0.307h2.698c0.202,0,0.384,0.121,0.461,0.307
					l4.752,11.364C72.158,43.729,72.171,43.794,72.171,43.861z M64.259,40.651h2.622c0.355,0,0.597-0.359,0.463-0.688l-1.716-4.231
					h-0.116l-1.716,4.231C63.662,40.292,63.904,40.651,64.259,40.651z"/>
				<path fill="#FFFFFF" d="M75.093,32.496c0-0.276,0.224-0.5,0.5-0.5h6.762c2.669,0,4.223,1.091,4.223,3.666v1.392
					c0,0.895-0.318,1.804-1.092,2.354c-0.256,0.182-0.255,0.587,0,0.768c0.774,0.55,1.092,1.459,1.092,2.354v1.671
					c0,2.575-1.554,3.666-4.223,3.666h-6.762c-0.276,0-0.5-0.224-0.5-0.5V32.496z M81.915,38.331c1.021,0,1.392-0.44,1.392-1.299
					v-0.789c0-0.858-0.348-1.254-1.392-1.254h-3.074c-0.276,0-0.5,0.224-0.5,0.5v2.341c0,0.276,0.224,0.5,0.5,0.5H81.915z
					 M81.915,44.828c1.044,0,1.392-0.394,1.392-1.252V42.53c0-0.858-0.371-1.252-1.392-1.252h-3.074c-0.276,0-0.5,0.224-0.5,0.5
					v2.549c0,0.276,0.224,0.5,0.5,0.5H81.915z"/>
			</g>
		</g>
		<g>
			<path fill="#FFFFFF" d="M50.834,51.633H47.68c-1.916,0-2.771,0.791-2.771,2.565v7.168c0,1.774,0.855,2.564,2.771,2.564h3.153
				c1.916,0,2.771-0.791,2.771-2.564v-0.74l-1.58-0.484v1.052c0,0.933-0.192,1.243-1.329,1.243h-2.877
				c-1.138,0-1.33-0.31-1.33-1.243V54.37c0-0.961,0.183-1.261,1.33-1.261h2.877c1.146,0,1.329,0.299,1.329,1.261v0.978l1.58-0.459
				v-0.691C53.605,52.424,52.75,51.633,50.834,51.633z"/>
			<path fill="#FFFFFF" d="M60.931,62.192v-8.838c0-0.135,0.11-0.244,0.245-0.244h2.977v-1.476h-8.041v1.476h2.995
				c0.135,0,0.244,0.11,0.244,0.244v8.838c0,0.135-0.11,0.245-0.244,0.245h-3.202v1.493h8.454v-1.493h-3.184
				C61.041,62.437,60.931,62.327,60.931,62.192z"/>
			<path fill="#FFFFFF" d="M66.075,53.109h3.942c0.135,0,0.245,0.11,0.245,0.244V63.93h1.579V53.354c0-0.135,0.11-0.244,0.245-0.244
				h3.925v-1.476h-9.936V53.109z"/>
			<path fill="#FFFFFF" d="M84.98,51.633v2.724c0,0.068-0.029,0.134-0.079,0.18l-2.773,2.555c-0.091,0.083-0.241,0.083-0.331,0
				l-2.774-2.555c-0.05-0.046-0.079-0.112-0.079-0.18v-2.724h-1.58v3.12c0,0.211,0.09,0.415,0.246,0.558l3.483,3.184
				c0.05,0.046,0.079,0.111,0.079,0.18v5.256h1.579v-5.256c0-0.068,0.029-0.134,0.079-0.18l3.467-3.184
				c0.155-0.143,0.244-0.346,0.244-0.556v-3.12H84.98z"/>
		</g>
	</g>
</g>
</svg>
