<?xml version="1.0" encoding="utf-8"?>
<!-- Generator: Adobe Illustrator 17.0.0, SVG Export Plug-In . SVG Version: 6.00 Build 0)  -->
<!DOCTYPE svg PUBLIC "-//W3C//DTD SVG 1.1//EN" "http://www.w3.org/Graphics/SVG/1.1/DTD/svg11.dtd">
<svg version="1.1" id="fab11" xmlns="http://www.w3.org/2000/svg" xmlns:xlink="http://www.w3.org/1999/xlink" x="0px" y="0px"
	 width="54.881px" height="33.04px" viewBox="0 0 54.881 33.04" enable-background="new 0 0 54.881 33.04" xml:space="preserve">
<g>
	<path fill="#ED2C45" d="M30.833,13.977c0-2.726,0.026-5.452-0.018-8.177c-0.011-0.7,0.206-0.881,0.861-0.825
		c0.654,0.056,1.32,0.055,1.975,0c0.633-0.053,0.801,0.16,0.795,0.791c-0.032,3.325-0.015,6.65-0.015,9.974
		c0,2.217-0.021,4.433,0.014,6.649c0.009,0.602-0.178,0.785-0.761,0.749c-0.716-0.045-1.439-0.044-2.155,0
		c-0.56,0.034-0.712-0.169-0.707-0.714C30.846,19.609,30.833,16.793,30.833,13.977z"/>
	<path fill="#442648" d="M50.147,11.325c0,1.828-0.019,3.656,0.011,5.484c0.01,0.579-0.149,0.798-0.756,0.756
		c-0.775-0.054-1.558-0.029-2.336-0.007c-0.388,0.011-0.53-0.135-0.529-0.518c0.007-3.866,0.01-7.731-0.003-11.597
		c-0.001-0.45,0.24-0.463,0.57-0.458c0.749,0.01,1.501,0.042,2.247-0.009c0.61-0.041,0.828,0.124,0.812,0.776
		C50.118,7.608,50.147,9.467,50.147,11.325z"/>
	<path fill="#02A7C3" d="M29.545,5.701c0,1.614-0.018,3.229,0.011,4.843c0.009,0.524-0.101,0.761-0.685,0.723
		c-0.774-0.05-1.555-0.038-2.331-0.003c-0.485,0.022-0.604-0.167-0.601-0.622c0.017-2.661-0.007-5.322,0.015-7.982
		c0.011-1.308,1.956-2.849,3.217-2.641c0.479,0.079,0.37,0.386,0.371,0.66C29.549,2.353,29.545,4.027,29.545,5.701z"/>
	<path fill="#FFFFFF" d="M45.224,27.79c0,1.527-0.018,3.054,0.01,4.581c0.009,0.512-0.154,0.684-0.665,0.661
		c-0.807-0.037-1.617-0.023-2.425-0.005c-0.388,0.009-0.525-0.14-0.524-0.525c0.009-3.174,0.01-6.347,0-9.521
		c-0.001-0.39,0.145-0.554,0.528-0.516c0.03,0.003,0.06-0.001,0.09,0c0.952,0.023,2.16-0.298,2.785,0.166
		c0.611,0.454,0.156,1.731,0.194,2.645C45.251,26.112,45.224,26.951,45.224,27.79z"/>
	<path fill="#F0C133" d="M25.948,22.708c0-1.529,0.018-3.058-0.01-4.586c-0.009-0.509,0.152-0.691,0.663-0.669
		c0.778,0.033,1.559,0.029,2.337,0.001c0.471-0.017,0.618,0.158,0.615,0.624c-0.016,3.117-0.017,6.234,0,9.351
		c0.003,0.471-0.147,0.636-0.617,0.615c-0.954-0.044-2.167,0.298-2.791-0.167c-0.607-0.453-0.155-1.735-0.191-2.652
		C25.921,24.388,25.948,23.547,25.948,22.708z"/>
	<path fill="#03A8C4" d="M50.156,28.487c0,1.257-0.02,2.515,0.009,3.772c0.013,0.558-0.119,0.825-0.748,0.776
		c-0.714-0.056-1.437-0.04-2.154-0.004c-0.523,0.026-0.75-0.11-0.744-0.686c0.025-2.604,0.017-5.209,0.005-7.813
		c-0.002-0.444,0.118-0.656,0.608-0.636c0.807,0.032,1.617,0.033,2.424,0c0.496-0.02,0.609,0.202,0.604,0.641
		C50.145,25.852,50.156,27.17,50.156,28.487z"/>
	<path fill="#ED2C45" d="M41.626,16.685c0-1.229,0.02-2.459-0.01-3.687c-0.012-0.498,0.127-0.7,0.652-0.674
		c0.778,0.038,1.559,0.031,2.338,0.002c0.452-0.017,0.632,0.105,0.628,0.596c-0.021,2.548-0.019,5.096-0.001,7.644
		c0.003,0.455-0.109,0.642-0.598,0.62c-0.808-0.037-1.62-0.037-2.427,0c-0.502,0.023-0.598-0.191-0.59-0.635
		C41.641,19.263,41.626,17.974,41.626,16.685z"/>
	<path fill="#432547" d="M0.014,16.86c0-1.109,0.013-2.219-0.007-3.327C0,13.114,0.046,12.879,0.572,12.89
		c1.588,0.034,3.178,0.034,4.766,0.001c0.604-0.013,0.524,0.365,0.483,0.702c-0.042,0.344,0.283,0.912-0.477,0.902
		c-0.959-0.013-1.923,0.055-2.876-0.02c-0.862-0.068-0.698,0.471-0.712,0.962c-0.015,0.528-0.075,1.027,0.746,0.925
		c0.591-0.073,1.197-0.015,1.797-0.014c0.862,0.002,1.221,0.547,0.93,1.359c-0.106,0.294-0.319,0.224-0.509,0.227
		C4,17.945,3.276,17.994,2.563,17.924c-0.714-0.07-0.875,0.215-0.816,0.857c0.052,0.565,0.001,1.138,0.013,1.708
		c0.017,0.884-0.651,0.457-1.034,0.528c-0.403,0.075-0.748,0.055-0.724-0.56C0.047,19.26,0.015,18.059,0.014,16.86z"/>
	<path fill="#02A8C3" d="M34.491,28.041c-1.017,0-2.035-0.019-3.051,0.008c-0.468,0.012-0.636-0.146-0.614-0.617
		c0.046-0.952-0.293-2.159,0.17-2.786c0.454-0.614,1.73-0.168,2.644-0.194c1.226-0.036,2.454,0.021,3.679-0.022
		c0.573-0.02,0.737,0.181,0.688,0.717c-0.086,0.943,0.394,2.176-0.203,2.749c-0.475,0.455-1.702,0.127-2.595,0.144
		C34.969,28.045,34.73,28.041,34.491,28.041z"/>
	<path fill="#02A7C3" d="M45.223,7.991c0,0.776-0.029,1.553,0.011,2.326c0.027,0.526-0.175,0.666-0.668,0.644
		c-0.774-0.034-1.551-0.029-2.326-0.002c-0.456,0.016-0.638-0.127-0.622-0.606c0.031-0.924-0.019-1.85,0.016-2.774
		c0.047-1.243,1.916-2.734,3.164-2.604c0.376,0.039,0.433,0.2,0.429,0.509C45.217,6.32,45.223,7.156,45.223,7.991z"/>
	<path fill="#432547" d="M37.74,33.02c-0.629-0.071-1.631,0.338-2.11-0.146c-0.475-0.48-0.127-1.48-0.142-2.25
		c-0.023-1.202-0.006-1.202,1.238-1.202c1.019,0,2.039,0.018,3.058-0.008c0.424-0.011,0.58,0.111,0.564,0.552
		c-0.031,0.838-0.03,1.679-0.001,2.518c0.016,0.45-0.166,0.562-0.579,0.545C39.14,33,38.509,33.02,37.74,33.02z"/>
	<path fill="#F0C234" d="M48.369,18.993c1.801,0,1.801,0,1.801,1.84c0,1.721,0,1.721-1.764,1.721c-1.891,0-1.891,0-1.891-1.863
		C46.516,18.993,46.516,18.993,48.369,18.993z"/>
	<path fill="#FFFFFF" d="M40.339,8.689c0,1.871-0.017,3.485,0.01,5.098c0.008,0.499-0.13,0.698-0.649,0.668
		c-0.655-0.038-1.316,0.015-1.972-0.019c-0.325-0.017-0.833,0.216-0.938-0.217c-0.111-0.459-0.217-1.011,0.153-1.456
		C38.024,11.461,39.109,10.164,40.339,8.689z"/>
	<path fill="#442748" d="M24.66,3.714c0,1.946-0.009,3.603,0.006,5.26c0.004,0.418-0.2,0.494-0.552,0.487
		c-0.686-0.014-1.372-0.004-2.058-0.004c-0.947-0.001-1.454-0.748-0.889-1.514C22.196,6.546,23.371,5.256,24.66,3.714z"/>
	<path fill="#FFFFFF" d="M25.948,14.342c0-1.771,0-1.771,1.763-1.771c1.835,0,1.835,0,1.835,1.879c0,1.719,0,1.719-1.719,1.719
		c-0.03,0-0.06,0-0.09,0C25.948,16.169,25.948,16.169,25.948,14.342z"/>
	<path fill="#ED2C45" d="M24.661,26.209c0,1.832,0,1.832-1.812,1.832c-1.787,0-1.787,0-1.787-1.758c0-1.869,0-1.869,1.849-1.869
		C24.661,24.415,24.661,24.415,24.661,26.209z"/>
	<path fill="#ED2D46" d="M53.083,33.022c-1.801,0-1.801,0-1.801-1.823c0-1.777,0-1.777,1.748-1.777c1.852,0,1.852,0,1.852,1.861
		C54.881,33.022,54.881,33.022,53.083,33.022z"/>
	<path fill="#442648" d="M32.652,3.549c-1.819,0-1.819,0-1.819-1.799c0-1.714,0-1.714,1.744-1.714c1.856,0,1.856,0,1.856,1.865
		C34.433,3.549,34.433,3.549,32.652,3.549z"/>
	<g>
		<g>
			<path fill="#432547" d="M20.933,13.963c-0.323-1.061-1.327-1.053-2.239-1.06c-0.926-0.007-1.853,0.019-2.779-0.01
				c-0.468-0.015-0.694,0.067-0.687,0.62c0.029,2.3,0.029,4.602,0.001,6.902c-0.007,0.556,0.233,0.632,0.696,0.62
				c0.985-0.026,1.972-0.001,2.958-0.011c0.866-0.008,1.692-0.123,2.085-1.059c0.39-0.926,0.111-2.371-0.582-3.05
				C21.384,16.087,21.245,14.988,20.933,13.963z M16.912,15.185c0.075-0.688,0.026-0.693,1.124-0.693
				c1.249,0,1.393,0.112,1.347,0.941c-0.027,0.483-0.256,0.7-0.722,0.704c-0.267,0.002-0.541-0.036-0.8,0.01
				C17.055,16.291,16.828,15.952,16.912,15.185z M18.213,19.407c-0.089-0.001-0.178,0-0.267,0c-0.94-0.001-1.351-0.621-1.013-1.5
				c0.085-0.22,0.238-0.228,0.414-0.23c0.297-0.004,0.594,0.005,0.891-0.005c0.635-0.022,1.159-0.021,1.162,0.894
				C19.403,19.53,18.809,19.415,18.213,19.407z"/>
		</g>
	</g>
	<g>
		<g>
			<path fill="#432547" d="M13.749,19.894c-0.024-0.564,0.027-1.059-0.189-1.556c-0.704-1.614-1.406-3.23-2.02-4.879
				c-0.241-0.647-0.671-0.555-1.134-0.555c-0.463,0-0.901-0.094-1.14,0.551C8.717,14.936,8.11,16.4,7.437,17.83
				c-0.417,0.886-0.395,1.785-0.416,2.71c-0.016,0.694,0.475,0.493,0.801,0.471c0.336-0.023,0.855,0.3,0.9-0.467
				c0.102-1.707,0.134-1.705,1.889-1.705h0.269c1.213,0,1.26,0.003,1.198,1.219c-0.039,0.754,0.124,1.001,0.951,1.004
				C14.172,21.065,13.594,20.283,13.749,19.894z M11.231,17.213c-0.421,0.221-1.028,0.109-1.556,0.094
				c-0.276-0.008-0.201-0.221-0.131-0.392c0.263-0.645,0.526-1.29,0.841-2.061c0.215,0.507,0.399,0.877,0.528,1.265
				C11.039,16.499,11.475,17.086,11.231,17.213z"/>
		</g>
	</g>
</g>
</svg>
