<?xml version="1.0" encoding="utf-8"?>
<!-- Generator: Adobe Illustrator 21.1.0, SVG Export Plug-In . SVG Version: 6.00 Build 0)  -->
<svg version="1.1" id="fab13" xmlns="http://www.w3.org/2000/svg" xmlns:xlink="http://www.w3.org/1999/xlink" x="0px" y="0px"
	 viewBox="0 0 118.2 20.5" style="enable-background:new 0 0 118.2 20.5;" xml:space="preserve">
<style type="text/css">
	.st0{fill:#DD2140;}
	.st1{fill:#0071B3;}
	.st2{fill:#FFFFFF;}
</style>
<title>fab14</title>
<g id="Layer_2">
	<g id="Layer_1-2">
		<path class="st0" d="M88.7,12.5c0,1.9-1.3,3.3-3.5,3.3h-4.8V4.2H85c2.2,0,3.5,1.4,3.5,3.3c0.1,1-0.5,2-1.4,2.4
			C88.2,10.4,88.8,11.4,88.7,12.5z M82.7,6.2v2.8h2.2c1,0,1.4-0.7,1.4-1.4s-0.4-1.3-1.4-1.3L82.7,6.2z M86.4,12.3
			c0-0.7-0.4-1.4-1.5-1.4h-2.2v2.8h2.2C86,13.7,86.4,13.1,86.4,12.3L86.4,12.3z"/>
		<path class="st0" d="M94.7,4.2v11.7h-2.3V6.5H91V4.2H94.7z"/>
		<polygon class="st0" points="109.2,6.5 109.2,7.7 105.7,7.7 105.7,9.9 109.2,9.9 109.2,13.5 111.4,13.5 111.4,9.9 114.9,9.9 
			114.9,7.7 111.4,7.7 111.4,6.5 		"/>
		<rect x="110.2" y="4.2" class="st0" width="2.2" height="2.3"/>
		<rect x="74" y="5.6" class="st1" width="5.2" height="1.8"/>
		<polygon class="st0" points="74.8,6.6 76.3,11.1 78.5,11.1 76.1,4.2 73.6,4.2 71.2,11.1 73.4,11.1 		"/>
		<polygon class="st0" points="69.3,15.8 70.1,13.4 74.3,13.4 75.1,15.8 77.5,15.8 75.9,11.1 73.6,11.1 73.7,11.4 70.7,11.4 
			70.8,11.1 68.5,11.1 66.9,15.8 		"/>
		<rect x="66.5" y="10.7" class="st2" width="7.5" height="0.7"/>
		<rect x="95.3" y="8.6" class="st2" width="3.5" height="1.6"/>
		<rect x="86.7" y="4.8" class="st2" width="2.8" height="1.6"/>
		<rect x="69.9" y="7.9" class="st2" width="1.3" height="0.3"/>
		<rect x="76" y="12.6" class="st2" width="1.3" height="0.3"/>
		<rect x="96.5" y="5.6" class="st2" width="1.3" height="0.3"/>
		<rect x="110.2" y="6.5" class="st2" width="3.7" height="0.3"/>
		<rect x="113.9" y="11.5" class="st2" width="0.4" height="0.3"/>
		<path class="st0" d="M64.4,6.3v2.7h4.7V11h-4.7v4.8h-2.3V4.2h7.5v2.1H64.4z"/>
		<path class="st2" d="M70.6,5.6v0.3h-2.9V5.6H70.6 M71.2,5.1h-4.1v1.5h4.1L71.2,5.1z"/>
		<path class="st2" d="M108,9.8v0.4h-0.4V9.8H108 M108.7,9h-1.9V11h1.9V9z"/>
		<path class="st0" d="M105.2,13.5h-1.4v2.4h-2.3v-2.4h-4.9v-1.7l4.6-7.6h2.7v7.3h1.4L105.2,13.5z M101.5,11.5V6.9l-2.6,4.6H101.5z"
			/>
		<rect x="99.6" y="5.6" class="st2" width="5.8" height="0.3"/>
	</g>
</g>
</svg>
