<?xml version="1.0" encoding="utf-8"?>
<!-- Generator: Adobe Illustrator 17.0.0, SVG Export Plug-In . SVG Version: 6.00 Build 0)  -->
<!DOCTYPE svg PUBLIC "-//W3C//DTD SVG 1.1//EN" "http://www.w3.org/Graphics/SVG/1.1/DTD/svg11.dtd">
<svg version="1.1" id="fab12" xmlns="http://www.w3.org/2000/svg" xmlns:xlink="http://www.w3.org/1999/xlink" x="0px" y="0px"
	 width="76.085px" height="33.04px" viewBox="0 0 76.085 33.04" enable-background="new 0 0 76.085 33.04" xml:space="preserve">
<g>
	<g>
		<path fill="#471049" d="M4.068,10.125l0.006,4.471l7.722-0.01l0.004,3.251l-7.722,0.01l0.009,7.316l-4.064,0.005L0,6.879
			l13.006-0.016l0.004,3.251L4.068,10.125z"/>
		<path fill="#471049" d="M30.28,20.26l0.006,4.87l-4.064,0.005l-0.005-4.284l-0.194-1l-6.987,0.009l-0.541,1l0.005,4.284
			l-3.658,0.005l-0.006-4.87l5.73-13.427l3.866-0.005L30.28,20.26z M20.152,16.608l4.719-0.006l-2.302-5.687l-0.131,0L20.152,16.608
			z"/>
		<path fill="#471049" d="M33.515,6.836l8.272-0.01c3.064-0.004,4.736,1.148,4.739,4.11l0.002,1.6
			c0.002,1.332-0.609,2.695-2.182,3.148c1.575,0.452,2.188,1.811,2.19,3.146l0.002,1.915c0.004,2.962-1.665,4.367-4.729,4.371
			l-8.272,0.01L33.515,6.836z M41.288,14.143c1.173-0.001,1.583-0.643,1.582-1.631l-0.001-0.905
			c-0.001-0.986-0.386-1.529-1.586-1.528l-4.106,0.005l0.005,4.064L41.288,14.143z M41.297,21.458
			c1.199-0.002,1.583-0.441,1.582-1.428l-0.002-1.196c-0.001-0.988-0.412-1.441-1.585-1.44l-4.106,0.005l0.005,4.064L41.297,21.458z
			"/>
	</g>
	<g>
		<polygon fill="#471049" points="52.577,9.632 50.565,10.793 50.565,8.485 52.577,7.323 		"/>
		<polygon fill="#471049" points="50.565,8.485 48.544,7.327 50.553,6.169 52.577,7.323 		"/>
		<polygon fill="#F1C233" points="50.565,10.793 48.553,9.632 48.544,7.327 50.565,8.485 		"/>
	</g>
	<g>
		<polygon fill="#471049" points="54.594,10.786 52.582,11.947 52.582,9.639 54.594,8.477 		"/>
		<polygon fill="#471049" points="52.582,9.639 50.56,8.481 52.569,7.323 54.594,8.477 		"/>
		<polygon fill="#471049" points="52.582,11.947 50.57,10.786 50.56,8.481 52.582,9.639 		"/>
	</g>
	<g>
		<polygon fill="#EE3045" points="52.577,7.318 50.565,8.479 50.565,6.171 52.577,5.009 		"/>
		<polygon fill="#471049" points="50.565,6.171 48.544,5.013 50.553,3.855 52.577,5.009 		"/>
		<polygon fill="#F1C233" points="50.565,8.479 48.553,7.318 48.544,5.013 50.565,6.171 		"/>
	</g>
	<g>
		<polygon fill="#EE3045" points="48.958,10.04 46.946,11.202 46.946,8.894 48.958,7.732 		"/>
		<polygon fill="#471049" points="46.946,8.894 44.924,7.736 46.934,6.578 48.958,7.732 		"/>
		<polygon fill="#F1C233" points="46.946,11.202 44.934,10.04 44.924,7.736 46.946,8.894 		"/>
	</g>
	<g>
		<polygon fill="#471049" points="54.594,8.472 52.582,9.634 52.582,7.325 54.594,6.164 		"/>
		<polygon fill="#471049" points="52.582,7.325 50.56,6.167 52.569,5.009 54.594,6.164 		"/>
		<polygon fill="#471049" points="52.582,9.634 50.57,8.472 50.56,6.167 52.582,7.325 		"/>
	</g>
	<g>
		<polygon fill="#471049" points="52.582,9.623 50.57,10.784 50.57,8.476 52.582,7.314 		"/>
		<polygon fill="#471049" points="50.57,8.476 48.548,7.318 50.558,6.16 52.582,7.314 		"/>
		<polygon fill="#F1C233" points="50.57,10.784 48.558,9.623 48.548,7.318 50.57,8.476 		"/>
	</g>
	<g>
		<polygon fill="#471049" points="52.943,6.882 50.931,8.044 50.931,5.735 52.943,4.574 		"/>
		<polygon fill="#471049" points="50.931,5.735 48.909,4.577 50.919,3.419 52.943,4.574 		"/>
		<polygon fill="#F1C233" points="50.931,8.044 48.919,6.882 48.909,4.577 50.931,5.735 		"/>
	</g>
	<g>
		<polygon fill="#471049" points="52.569,23.578 50.558,24.739 50.558,22.431 52.569,21.269 		"/>
		<polygon fill="#471049" points="50.558,22.431 48.536,21.273 50.545,20.115 52.569,21.269 		"/>
		<polygon fill="#F1C233" points="50.558,24.739 48.546,23.578 48.536,21.273 50.558,22.431 		"/>
	</g>
	<g>
		<polygon fill="#EE3045" points="50.558,24.728 48.546,25.89 48.546,23.581 50.558,22.42 		"/>
		<polygon fill="#471049" points="48.546,23.581 46.524,22.423 48.533,21.266 50.558,22.42 		"/>
		<polygon fill="#F1C233" points="48.546,25.89 46.534,24.728 46.524,22.423 48.546,23.581 		"/>
	</g>
	<g>
		<polygon fill="#471049" points="54.586,24.732 52.574,25.893 52.574,23.585 54.586,22.423 		"/>
		<polygon fill="#471049" points="52.574,23.585 50.553,22.427 52.562,21.269 54.586,22.423 		"/>
		<polygon fill="#471049" points="52.574,25.893 50.563,24.732 50.553,22.427 52.574,23.585 		"/>
	</g>
	<g>
		<polygon fill="#471049" points="50.57,27.057 48.558,28.219 48.558,25.91 50.57,24.749 		"/>
		<polygon fill="#471049" points="48.558,25.91 46.537,24.753 48.546,23.595 50.57,24.749 		"/>
		<polygon fill="#F1C233" points="48.558,28.219 46.547,27.057 46.537,24.753 48.558,25.91 		"/>
	</g>
	<g>
		<polygon fill="#EE3045" points="52.569,21.264 50.558,22.425 50.558,20.117 52.569,18.955 		"/>
		<polygon fill="#471049" points="50.558,20.117 48.536,18.959 50.545,17.801 52.569,18.955 		"/>
		<polygon fill="#F1C233" points="50.558,22.425 48.546,21.264 48.536,18.959 50.558,20.117 		"/>
	</g>
	<g>
		<polygon fill="#EE3045" points="50.291,22.201 48.279,23.362 48.279,21.054 50.291,19.892 		"/>
		<polygon fill="#471049" points="48.279,21.054 46.258,19.896 48.267,18.738 50.291,19.892 		"/>
		<polygon fill="#F1C233" points="48.279,23.362 46.268,22.201 46.258,19.896 48.279,21.054 		"/>
	</g>
	<g>
		<polygon fill="#471049" points="54.586,22.418 52.574,23.579 52.574,21.271 54.586,20.109 		"/>
		<polygon fill="#471049" points="52.574,21.271 50.553,20.113 52.562,18.955 54.586,20.109 		"/>
		<polygon fill="#471049" points="52.574,23.579 50.563,22.418 50.553,20.113 52.574,21.271 		"/>
	</g>
	<g>
		<polygon fill="#471049" points="52.574,23.569 50.563,24.73 50.563,22.422 52.574,21.26 		"/>
		<polygon fill="#471049" points="50.563,22.422 48.541,21.264 50.55,20.106 52.574,21.26 		"/>
		<polygon fill="#F1C233" points="50.563,24.73 48.551,23.569 48.541,21.264 50.563,22.422 		"/>
	</g>
	<g>
		<polygon fill="#471049" points="56.598,25.893 54.586,27.055 54.586,24.746 56.598,23.585 		"/>
		<polygon fill="#471049" points="54.586,24.746 52.565,23.588 54.574,22.431 56.598,23.585 		"/>
		<polygon fill="#F1C233" points="54.586,27.055 52.574,25.893 52.565,23.588 54.586,24.746 		"/>
	</g>
	<g>
		<polygon fill="#EE3045" points="54.586,27.044 52.574,28.205 52.574,25.897 54.586,24.735 		"/>
		<polygon fill="#471049" points="52.574,25.897 50.553,24.739 52.562,23.581 54.586,24.735 		"/>
		<polygon fill="#F1C233" points="52.574,28.205 50.563,27.044 50.553,24.739 52.574,25.897 		"/>
	</g>
	<g>
		<polygon fill="#471049" points="58.615,27.048 56.603,28.209 56.603,25.901 58.615,24.739 		"/>
		<polygon fill="#471049" points="56.603,25.901 54.581,24.743 56.59,23.585 58.615,24.739 		"/>
		<polygon fill="#471049" points="56.603,28.209 54.591,27.048 54.581,24.743 56.603,25.901 		"/>
	</g>
	<g>
		<polygon fill="#471049" points="56.603,28.198 54.591,29.36 54.591,27.051 56.603,25.89 		"/>
		<polygon fill="#471049" points="54.591,27.051 52.569,25.893 54.579,24.735 56.603,25.89 		"/>
		<polygon fill="#F1C233" points="54.591,29.36 52.579,28.198 52.569,25.893 54.591,27.051 		"/>
	</g>
	<g>
		<polygon fill="#EE3045" points="56.598,23.579 54.586,24.741 54.586,22.432 56.598,21.271 		"/>
		<polygon fill="#471049" points="54.586,22.432 52.565,21.275 54.574,20.117 56.598,21.271 		"/>
		<polygon fill="#F1C233" points="54.586,24.741 52.574,23.579 52.565,21.275 54.586,22.432 		"/>
	</g>
	<g>
		<polygon fill="#EE3045" points="54.586,24.73 52.574,25.891 52.574,23.583 54.586,22.422 		"/>
		<polygon fill="#471049" points="52.574,23.583 50.553,22.425 52.562,21.267 54.586,22.422 		"/>
		<polygon fill="#F1C233" points="52.574,25.891 50.563,24.73 50.553,22.425 52.574,23.583 		"/>
	</g>
	<g>
		<polygon fill="#471049" points="58.615,24.734 56.603,25.895 56.603,23.587 58.615,22.425 		"/>
		<polygon fill="#471049" points="56.603,23.587 54.581,22.429 56.59,21.271 58.615,22.425 		"/>
		<polygon fill="#471049" points="56.603,25.895 54.591,24.734 54.581,22.429 56.603,23.587 		"/>
	</g>
	<g>
		<polygon fill="#471049" points="56.069,26.46 54.058,27.621 54.058,25.313 56.069,24.151 		"/>
		<polygon fill="#471049" points="54.058,25.313 52.036,24.155 54.045,22.997 56.069,24.151 		"/>
		<polygon fill="#F1C233" points="54.058,27.621 52.046,26.46 52.036,24.155 54.058,25.313 		"/>
	</g>
	<g>
		<polygon fill="#471049" points="56.598,21.251 54.586,22.412 54.586,20.104 56.598,18.943 		"/>
		<polygon fill="#471049" points="54.586,20.104 52.565,18.946 54.574,17.788 56.598,18.943 		"/>
		<polygon fill="#F1C233" points="54.586,22.412 52.574,21.251 52.565,18.946 54.586,20.104 		"/>
	</g>
	<g>
		<polygon fill="#EE3045" points="54.586,22.402 52.574,23.563 52.574,21.255 54.586,20.093 		"/>
		<polygon fill="#471049" points="52.574,21.255 50.553,20.097 52.562,18.939 54.586,20.093 		"/>
		<polygon fill="#F1C233" points="52.574,23.563 50.563,22.402 50.553,20.097 52.574,21.255 		"/>
	</g>
	<g>
		<polygon fill="#471049" points="58.615,22.405 56.603,23.567 56.603,21.258 58.615,20.097 		"/>
		<polygon fill="#471049" points="56.603,21.258 54.581,20.1 56.59,18.943 58.615,20.097 		"/>
		<polygon fill="#471049" points="56.603,23.567 54.591,22.405 54.581,20.1 56.603,21.258 		"/>
	</g>
	<g>
		<polygon fill="#471049" points="56.603,23.556 54.591,24.717 54.591,22.409 56.603,21.247 		"/>
		<polygon fill="#471049" points="54.591,22.409 52.569,21.251 54.579,20.093 56.603,21.247 		"/>
		<polygon fill="#F1C233" points="54.591,24.717 52.579,23.556 52.569,21.251 54.591,22.409 		"/>
	</g>
	<g>
		<polygon fill="#EE3045" points="56.598,18.937 54.586,20.099 54.586,17.79 56.598,16.629 		"/>
		<polygon fill="#471049" points="54.586,17.79 52.565,16.632 54.574,15.474 56.598,16.629 		"/>
		<polygon fill="#F1C233" points="54.586,20.099 52.574,18.937 52.565,16.632 54.586,17.79 		"/>
	</g>
	<g>
		<polygon fill="#EE3045" points="54.586,20.088 52.574,21.249 52.574,18.941 54.586,17.779 		"/>
		<polygon fill="#471049" points="52.574,18.941 50.553,17.783 52.562,16.625 54.586,17.779 		"/>
		<polygon fill="#F1C233" points="52.574,21.249 50.563,20.088 50.553,17.783 52.574,18.941 		"/>
	</g>
	<g>
		<polygon fill="#471049" points="58.615,20.091 56.603,21.253 56.603,18.944 58.615,17.783 		"/>
		<polygon fill="#471049" points="56.603,18.944 54.581,17.787 56.59,16.629 58.615,17.783 		"/>
		<polygon fill="#471049" points="56.603,21.253 54.591,20.091 54.581,17.787 56.603,18.944 		"/>
	</g>
	<g>
		<polygon fill="#471049" points="56.603,21.242 54.591,22.403 54.591,20.095 56.603,18.933 		"/>
		<polygon fill="#471049" points="54.591,20.095 52.569,18.937 54.579,17.779 56.603,18.933 		"/>
		<polygon fill="#F1C233" points="54.591,22.403 52.579,21.242 52.569,18.937 54.591,20.095 		"/>
	</g>
	<g>
		<polygon fill="#471049" points="56.598,16.609 54.586,17.77 54.586,15.462 56.598,14.3 		"/>
		<polygon fill="#471049" points="54.586,15.462 52.565,14.304 54.574,13.146 56.598,14.3 		"/>
		<polygon fill="#F1C233" points="54.586,17.77 52.574,16.609 52.565,14.304 54.586,15.462 		"/>
	</g>
	<g>
		<polygon fill="#EE3045" points="53.593,17.756 51.581,18.917 51.581,16.609 53.593,15.447 		"/>
		<polygon fill="#471049" points="51.581,16.609 49.559,15.451 51.568,14.293 53.593,15.447 		"/>
		<polygon fill="#F1C233" points="51.581,18.917 49.569,17.756 49.559,15.451 51.581,16.609 		"/>
	</g>
	<g>
		<polygon fill="#471049" points="58.615,17.763 56.603,18.924 56.603,16.616 58.615,15.454 		"/>
		<polygon fill="#471049" points="56.603,16.616 54.581,15.458 56.59,14.3 58.615,15.454 		"/>
		<polygon fill="#471049" points="56.603,18.924 54.591,17.763 54.581,15.458 56.603,16.616 		"/>
	</g>
	<g>
		<polygon fill="#471049" points="56.603,18.914 54.591,20.075 54.591,17.767 56.603,16.605 		"/>
		<polygon fill="#471049" points="54.591,17.767 52.569,16.609 54.579,15.451 56.603,16.605 		"/>
		<polygon fill="#F1C233" points="54.591,20.075 52.579,18.914 52.569,16.609 54.591,17.767 		"/>
	</g>
	<g>
		<polygon fill="#EE3045" points="56.598,14.295 54.586,15.456 54.586,13.148 56.598,11.986 		"/>
		<polygon fill="#471049" points="54.586,13.148 52.565,11.99 54.574,10.832 56.598,11.986 		"/>
		<polygon fill="#F1C233" points="54.586,15.456 52.574,14.295 52.565,11.99 54.586,13.148 		"/>
	</g>
	<g>
		<polygon fill="#EE3045" points="54.586,15.445 52.574,16.607 52.574,14.298 54.586,13.137 		"/>
		<polygon fill="#471049" points="52.574,14.298 50.553,13.141 52.562,11.983 54.586,13.137 		"/>
		<polygon fill="#F1C233" points="52.574,16.607 50.563,15.445 50.553,13.141 52.574,14.298 		"/>
	</g>
	<g>
		<polygon fill="#471049" points="58.615,15.449 56.603,16.611 56.603,14.302 58.615,13.141 		"/>
		<polygon fill="#471049" points="56.603,14.302 54.581,13.144 56.59,11.986 58.615,13.141 		"/>
		<polygon fill="#471049" points="56.603,16.611 54.591,15.449 54.581,13.144 56.603,14.302 		"/>
	</g>
	<g>
		<polygon fill="#471049" points="56.976,16.173 54.965,17.334 54.965,15.026 56.976,13.864 		"/>
		<polygon fill="#471049" points="54.965,15.026 52.943,13.868 54.952,12.71 56.976,13.864 		"/>
		<polygon fill="#F1C233" points="54.965,17.334 52.953,16.173 52.943,13.868 54.965,15.026 		"/>
	</g>
	<g>
		<polygon fill="#471049" points="56.598,11.966 54.586,13.128 54.586,10.819 56.598,9.658 		"/>
		<polygon fill="#471049" points="54.586,10.819 52.565,9.662 54.574,8.504 56.598,9.658 		"/>
		<polygon fill="#F1C233" points="54.586,13.128 52.574,11.966 52.565,9.662 54.586,10.819 		"/>
	</g>
	<g>
		<polygon fill="#EE3045" points="54.586,13.117 52.574,14.279 52.574,11.97 54.586,10.809 		"/>
		<polygon fill="#471049" points="52.574,11.97 50.553,10.812 52.562,9.654 54.586,10.809 		"/>
		<polygon fill="#F1C233" points="52.574,14.279 50.563,13.117 50.553,10.812 52.574,11.97 		"/>
	</g>
	<g>
		<polygon fill="#471049" points="58.615,13.121 56.603,14.282 56.603,11.974 58.615,10.812 		"/>
		<polygon fill="#471049" points="56.603,11.974 54.581,10.816 56.59,9.658 58.615,10.812 		"/>
		<polygon fill="#471049" points="56.603,14.282 54.591,13.121 54.581,10.816 56.603,11.974 		"/>
	</g>
	<g>
		<polygon fill="#471049" points="56.603,14.271 54.591,15.433 54.591,13.124 56.603,11.963 		"/>
		<polygon fill="#471049" points="54.591,13.124 52.569,11.966 54.579,10.809 56.603,11.963 		"/>
		<polygon fill="#F1C233" points="54.591,15.433 52.579,14.271 52.569,11.966 54.591,13.124 		"/>
	</g>
	<g>
		<polygon fill="#EE3045" points="56.598,9.653 54.586,10.814 54.586,8.506 56.598,7.344 		"/>
		<polygon fill="#471049" points="54.586,8.506 52.565,7.348 54.574,6.19 56.598,7.344 		"/>
		<polygon fill="#F1C233" points="54.586,10.814 52.574,9.653 52.565,7.348 54.586,8.506 		"/>
	</g>
	<g>
		<polygon fill="#EE3045" points="54.586,10.803 52.574,11.965 52.574,9.656 54.586,8.495 		"/>
		<polygon fill="#471049" points="52.574,9.656 50.553,8.498 52.562,7.34 54.586,8.495 		"/>
		<polygon fill="#F1C233" points="52.574,11.965 50.563,10.803 50.553,8.498 52.574,9.656 		"/>
	</g>
	<g>
		<polygon fill="#471049" points="58.615,10.807 56.603,11.968 56.603,9.66 58.615,8.498 		"/>
		<polygon fill="#471049" points="56.603,9.66 54.581,8.502 56.59,7.344 58.615,8.498 		"/>
		<polygon fill="#471049" points="56.603,11.968 54.591,10.807 54.581,8.502 56.603,9.66 		"/>
	</g>
	<g>
		<polygon fill="#471049" points="56.603,11.957 54.591,13.119 54.591,10.81 56.603,9.649 		"/>
		<polygon fill="#471049" points="54.591,10.81 52.569,9.653 54.579,8.495 56.603,9.649 		"/>
		<polygon fill="#F1C233" points="54.591,13.119 52.579,11.957 52.569,9.653 54.591,10.81 		"/>
	</g>
	<g>
		<polygon fill="#471049" points="56.598,7.324 54.586,8.486 54.586,6.177 56.598,5.016 		"/>
		<polygon fill="#471049" points="54.586,6.177 52.565,5.019 54.574,3.861 56.598,5.016 		"/>
		<polygon fill="#F1C233" points="54.586,8.486 52.574,7.324 52.565,5.019 54.586,6.177 		"/>
	</g>
	<g>
		<polygon fill="#EE3045" points="54.586,8.475 52.574,9.636 52.574,7.328 54.586,6.166 		"/>
		<polygon fill="#471049" points="52.574,7.328 50.553,6.17 52.562,5.012 54.586,6.166 		"/>
		<polygon fill="#F1C233" points="52.574,9.636 50.563,8.475 50.553,6.17 52.574,7.328 		"/>
	</g>
	<g>
		<polygon fill="#471049" points="58.615,8.478 56.603,9.64 56.603,7.331 58.615,6.17 		"/>
		<polygon fill="#471049" points="56.603,7.331 54.581,6.174 56.59,5.016 58.615,6.17 		"/>
		<polygon fill="#471049" points="56.603,9.64 54.591,8.478 54.581,6.174 56.603,7.331 		"/>
	</g>
	<g>
		<polygon fill="#471049" points="56.603,9.629 54.591,10.79 54.591,8.482 56.603,7.321 		"/>
		<polygon fill="#471049" points="54.591,8.482 52.569,7.324 54.579,6.166 56.603,7.321 		"/>
		<polygon fill="#F1C233" points="54.591,10.79 52.579,9.629 52.569,7.324 54.591,8.482 		"/>
	</g>
	<g>
		<polygon fill="#EE3045" points="56.598,5.01 54.586,6.172 54.586,3.863 56.598,2.702 		"/>
		<polygon fill="#471049" points="54.586,3.863 52.565,2.705 54.574,1.548 56.598,2.702 		"/>
		<polygon fill="#F1C233" points="54.586,6.172 52.574,5.01 52.565,2.705 54.586,3.863 		"/>
	</g>
	<g>
		<polygon fill="#EE3045" points="54.586,5.787 52.574,6.949 52.574,4.64 54.586,3.479 		"/>
		<polygon fill="#471049" points="52.574,4.64 50.553,3.483 52.562,2.325 54.586,3.479 		"/>
		<polygon fill="#F1C233" points="52.574,6.949 50.563,5.787 50.553,3.483 52.574,4.64 		"/>
	</g>
	<g>
		<polygon fill="#471049" points="58.615,6.164 56.603,7.326 56.603,5.017 58.615,3.856 		"/>
		<polygon fill="#471049" points="56.603,5.017 54.581,3.86 56.59,2.702 58.615,3.856 		"/>
		<polygon fill="#471049" points="56.603,7.326 54.591,6.164 54.581,3.86 56.603,5.017 		"/>
	</g>
	<g>
		<polygon fill="#471049" points="56.603,7.315 54.591,8.477 54.591,6.168 56.603,5.007 		"/>
		<polygon fill="#471049" points="54.591,6.168 52.569,5.01 54.579,3.852 56.603,5.007 		"/>
		<polygon fill="#F1C233" points="54.591,8.477 52.579,7.315 52.569,5.01 54.591,6.168 		"/>
	</g>
	<g>
		<polygon fill="#EE3045" points="70.701,22.419 68.689,23.58 68.689,21.272 70.701,20.11 		"/>
		<polygon fill="#471049" points="68.689,21.272 66.667,20.114 68.677,18.956 70.701,20.11 		"/>
		<polygon fill="#471049" points="68.689,23.58 66.677,22.419 66.667,20.114 68.689,21.272 		"/>
	</g>
	<g>
		<polygon fill="#EE3045" points="72.708,21.272 70.696,22.433 70.696,20.125 72.708,18.963 		"/>
		<polygon fill="#471049" points="70.696,20.125 68.674,18.967 70.683,17.809 72.708,18.963 		"/>
		<polygon fill="#471049" points="70.696,22.433 68.684,21.272 68.674,18.967 70.696,20.125 		"/>
	</g>
	<g>
		<polygon fill="#EE3045" points="74.727,22.43 72.715,23.591 72.715,21.283 74.727,20.121 		"/>
		<polygon fill="#471049" points="72.715,21.283 70.693,20.125 72.702,18.967 74.727,20.121 		"/>
		<polygon fill="#471049" points="72.715,23.591 70.703,22.43 70.693,20.125 72.715,21.283 		"/>
	</g>
	<g>
		<polygon fill="#EE3045" points="72.71,23.588 70.698,24.749 70.698,22.441 72.71,21.279 		"/>
		<polygon fill="#471049" points="70.698,22.441 68.677,21.283 70.686,20.125 72.71,21.279 		"/>
		<polygon fill="#471049" points="70.698,24.749 68.687,23.588 68.677,21.283 70.698,22.441 		"/>
	</g>
	<g>
		<polygon fill="#EE3045" points="72.708,18.956 70.696,20.118 70.696,17.809 72.708,16.648 		"/>
		<polygon fill="#471049" points="70.696,17.809 68.674,16.651 70.683,15.493 72.708,16.648 		"/>
		<polygon fill="#471049" points="70.696,20.118 68.684,18.956 68.674,16.651 70.696,17.809 		"/>
	</g>
	<g>
		<polygon fill="#EE3045" points="70.691,20.114 68.679,21.275 68.679,18.967 70.691,17.806 		"/>
		<polygon fill="#471049" points="68.679,18.967 66.658,17.809 68.667,16.651 70.691,17.806 		"/>
		<polygon fill="#471049" points="68.679,21.275 66.667,20.114 66.658,17.809 68.679,18.967 		"/>
	</g>
	<g>
		<polygon fill="#EE3045" points="75.047,20.114 73.035,21.275 73.035,18.967 75.047,17.806 		"/>
		<polygon fill="#471049" points="73.035,18.967 71.013,17.809 73.023,16.651 75.047,17.806 		"/>
		<polygon fill="#471049" points="73.035,21.275 71.023,20.114 71.013,17.809 73.035,18.967 		"/>
	</g>
	<g>
		<polygon fill="#EE3045" points="72.71,21.272 70.698,22.433 70.698,20.125 72.71,18.963 		"/>
		<polygon fill="#471049" points="70.698,20.125 68.677,18.967 70.686,17.809 72.71,18.963 		"/>
		<polygon fill="#471049" points="70.698,22.433 68.687,21.272 68.677,18.967 70.698,20.125 		"/>
	</g>
	<g>
		<polygon fill="#EE3045" points="70.701,8.543 68.689,9.704 68.689,7.396 70.701,6.234 		"/>
		<polygon fill="#471049" points="68.689,7.396 66.667,6.238 68.677,5.08 70.701,6.234 		"/>
		<polygon fill="#471049" points="68.689,9.704 66.677,8.543 66.667,6.238 68.689,7.396 		"/>
	</g>
	<g>
		<polygon fill="#EE3045" points="72.708,7.396 70.696,8.557 70.696,6.249 72.708,5.087 		"/>
		<polygon fill="#471049" points="70.696,6.249 68.674,5.091 70.683,3.933 72.708,5.087 		"/>
		<polygon fill="#471049" points="70.696,8.557 68.684,7.396 68.674,5.091 70.696,6.249 		"/>
	</g>
	<g>
		<polygon fill="#EE3045" points="76.085,9.42 74.073,10.581 74.073,8.273 76.085,7.111 		"/>
		<polygon fill="#471049" points="74.073,8.273 72.052,7.115 74.061,5.957 76.085,7.111 		"/>
		<polygon fill="#471049" points="74.073,10.581 72.062,9.42 72.052,7.115 74.073,8.273 		"/>
	</g>
	<g>
		<polygon fill="#EE3045" points="72.71,9.711 70.698,10.873 70.698,8.564 72.71,7.403 		"/>
		<polygon fill="#471049" points="70.698,8.564 68.677,7.407 70.686,6.249 72.71,7.403 		"/>
		<polygon fill="#471049" points="70.698,10.873 68.687,9.711 68.677,7.407 70.698,8.564 		"/>
	</g>
	<g>
		<polygon fill="#EE3045" points="72.708,5.08 70.696,6.242 70.696,3.933 72.708,2.772 		"/>
		<polygon fill="#471049" points="70.696,3.933 68.674,2.775 70.683,1.617 72.708,2.772 		"/>
		<polygon fill="#471049" points="70.696,6.242 68.684,5.08 68.674,2.775 70.696,3.933 		"/>
	</g>
	<g>
		<polygon fill="#EE3045" points="70.691,6.238 68.679,7.399 68.679,5.091 70.691,3.929 		"/>
		<polygon fill="#471049" points="68.679,5.091 66.658,3.933 68.667,2.775 70.691,3.929 		"/>
		<polygon fill="#471049" points="68.679,7.399 66.667,6.238 66.658,3.933 68.679,5.091 		"/>
	</g>
	<g>
		<polygon fill="#EE3045" points="74.727,6.238 72.715,7.399 72.715,5.091 74.727,3.929 		"/>
		<polygon fill="#471049" points="72.715,5.091 70.693,3.933 72.702,2.775 74.727,3.929 		"/>
		<polygon fill="#471049" points="72.715,7.399 70.703,6.238 70.693,3.933 72.715,5.091 		"/>
	</g>
	<g>
		<polygon fill="#EE3045" points="72.71,7.396 70.698,8.557 70.698,6.249 72.71,5.087 		"/>
		<polygon fill="#471049" points="70.698,6.249 68.677,5.091 70.686,3.933 72.71,5.087 		"/>
		<polygon fill="#471049" points="70.698,8.557 68.687,7.396 68.677,5.091 70.698,6.249 		"/>
	</g>
	<g>
		<polygon fill="#EE3045" points="72.71,5.045 70.698,6.207 70.698,3.898 72.71,2.737 		"/>
		<polygon fill="#471049" points="70.698,3.898 68.677,2.74 70.686,1.582 72.71,2.737 		"/>
		<polygon fill="#471049" points="70.698,6.207 68.687,5.045 68.677,2.74 70.698,3.898 		"/>
	</g>
	<g>
		<polygon fill="#EE3045" points="66.676,24.731 64.664,25.892 64.664,23.584 66.676,22.422 		"/>
		<polygon fill="#471049" points="64.664,23.584 62.643,22.426 64.652,21.268 66.676,22.422 		"/>
		<polygon fill="#471049" points="64.664,25.892 62.653,24.731 62.643,22.426 64.664,23.584 		"/>
	</g>
	<g>
		<polygon fill="#EE3045" points="68.683,23.584 66.671,24.745 66.671,22.437 68.683,21.275 		"/>
		<polygon fill="#471049" points="66.671,22.437 64.65,21.279 66.659,20.121 68.683,21.275 		"/>
		<polygon fill="#471049" points="66.671,24.745 64.659,23.584 64.65,21.279 66.671,22.437 		"/>
	</g>
	<g>
		<polygon fill="#EE3045" points="70.702,24.742 68.69,25.903 68.69,23.595 70.702,22.433 		"/>
		<polygon fill="#471049" points="68.69,23.595 66.669,22.437 68.678,21.279 70.702,22.433 		"/>
		<polygon fill="#471049" points="68.69,25.903 66.679,24.742 66.669,22.437 68.69,23.595 		"/>
	</g>
	<g>
		<polygon fill="#EE3045" points="69.059,26.06 67.047,27.221 67.047,24.913 69.059,23.751 		"/>
		<polygon fill="#471049" points="67.047,24.913 65.025,23.755 67.034,22.597 69.059,23.751 		"/>
		<polygon fill="#471049" points="67.047,27.221 65.035,26.06 65.025,23.755 67.047,24.913 		"/>
	</g>
	<g>
		<polygon fill="#EE3045" points="68.683,21.268 66.671,22.43 66.671,20.121 68.683,18.96 		"/>
		<polygon fill="#471049" points="66.671,20.121 64.65,18.963 66.659,17.806 68.683,18.96 		"/>
		<polygon fill="#471049" points="66.671,22.43 64.659,21.268 64.65,18.963 66.671,20.121 		"/>
	</g>
	<g>
		<polygon fill="#EE3045" points="66.666,22.426 64.654,23.588 64.654,21.279 66.666,20.118 		"/>
		<polygon fill="#471049" points="64.654,21.279 62.633,20.121 64.642,18.963 66.666,20.118 		"/>
		<polygon fill="#471049" points="64.654,23.588 62.643,22.426 62.633,20.121 64.654,21.279 		"/>
	</g>
	<g>
		<polygon fill="#EE3045" points="71.21,22.934 69.198,24.095 69.198,21.787 71.21,20.626 		"/>
		<polygon fill="#471049" points="69.198,21.787 67.177,20.629 69.186,19.471 71.21,20.626 		"/>
		<polygon fill="#471049" points="69.198,24.095 67.186,22.934 67.177,20.629 69.198,21.787 		"/>
	</g>
	<g>
		<polygon fill="#EE3045" points="68.685,23.584 66.674,24.745 66.674,22.437 68.685,21.275 		"/>
		<polygon fill="#471049" points="66.674,22.437 64.652,21.279 66.661,20.121 68.685,21.275 		"/>
		<polygon fill="#471049" points="66.674,24.745 64.662,23.584 64.652,21.279 66.674,22.437 		"/>
	</g>
	<g>
		<polygon fill="#EE3045" points="66.676,15.483 64.664,16.644 64.664,14.336 66.676,13.174 		"/>
		<polygon fill="#471049" points="64.664,14.336 62.643,13.178 64.652,12.02 66.676,13.174 		"/>
		<polygon fill="#471049" points="64.664,16.644 62.653,15.483 62.643,13.178 64.664,14.336 		"/>
	</g>
	<g>
		<polygon fill="#EE3045" points="68.683,14.336 66.671,15.497 66.671,13.189 68.683,12.027 		"/>
		<polygon fill="#471049" points="66.671,13.189 64.65,12.031 66.659,10.873 68.683,12.027 		"/>
		<polygon fill="#471049" points="66.671,15.497 64.659,14.336 64.65,12.031 66.671,13.189 		"/>
	</g>
	<g>
		<polygon fill="#EE3045" points="70.702,15.493 68.69,16.655 68.69,14.346 70.702,13.185 		"/>
		<polygon fill="#471049" points="68.69,14.346 66.669,13.189 68.678,12.031 70.702,13.185 		"/>
		<polygon fill="#471049" points="68.69,16.655 66.679,15.493 66.669,13.189 68.69,14.346 		"/>
	</g>
	<g>
		<polygon fill="#EE3045" points="68.685,16.651 66.674,17.813 66.674,15.504 68.685,14.343 		"/>
		<polygon fill="#471049" points="66.674,15.504 64.652,14.346 66.661,13.189 68.685,14.343 		"/>
		<polygon fill="#471049" points="66.674,17.813 64.662,16.651 64.652,14.346 66.674,15.504 		"/>
	</g>
	<g>
		<polygon fill="#EE3045" points="68.683,12.02 66.671,13.181 66.671,10.873 68.683,9.711 		"/>
		<polygon fill="#471049" points="66.671,10.873 64.65,9.715 66.659,8.557 68.683,9.711 		"/>
		<polygon fill="#471049" points="66.671,13.181 64.659,12.02 64.65,9.715 66.671,10.873 		"/>
	</g>
	<g>
		<polygon fill="#EE3045" points="66.666,13.178 64.654,14.339 64.654,12.031 66.666,10.869 		"/>
		<polygon fill="#471049" points="64.654,12.031 62.633,10.873 64.642,9.715 66.666,10.869 		"/>
		<polygon fill="#471049" points="64.654,14.339 62.643,13.178 62.633,10.873 64.654,12.031 		"/>
	</g>
	<g>
		<polygon fill="#EE3045" points="70.702,13.178 68.69,14.339 68.69,12.031 70.702,10.869 		"/>
		<polygon fill="#471049" points="68.69,12.031 66.669,10.873 68.678,9.715 70.702,10.869 		"/>
		<polygon fill="#471049" points="68.69,14.339 66.679,13.178 66.669,10.873 68.69,12.031 		"/>
	</g>
	<g>
		<polygon fill="#EE3045" points="68.685,14.336 66.674,15.497 66.674,13.189 68.685,12.027 		"/>
		<polygon fill="#471049" points="66.674,13.189 64.652,12.031 66.661,10.873 68.685,12.027 		"/>
		<polygon fill="#471049" points="66.674,15.497 64.662,14.336 64.652,12.031 66.674,13.189 		"/>
	</g>
	<g>
		<polygon fill="#EE3045" points="66.676,6.231 64.664,7.392 64.664,5.084 66.676,3.922 		"/>
		<polygon fill="#471049" points="64.664,5.084 62.643,3.926 64.652,2.768 66.676,3.922 		"/>
		<polygon fill="#471049" points="64.664,7.392 62.653,6.231 62.643,3.926 64.664,5.084 		"/>
	</g>
	<g>
		<polygon fill="#EE3045" points="68.683,5.084 66.671,6.245 66.671,3.937 68.683,2.775 		"/>
		<polygon fill="#471049" points="66.671,3.937 64.65,2.779 66.659,1.621 68.683,2.775 		"/>
		<polygon fill="#471049" points="66.671,6.245 64.659,5.084 64.65,2.779 66.671,3.937 		"/>
	</g>
	<g>
		<polygon fill="#EE3045" points="70.702,6.242 68.69,7.403 68.69,5.095 70.702,3.933 		"/>
		<polygon fill="#471049" points="68.69,5.095 66.669,3.937 68.678,2.779 70.702,3.933 		"/>
		<polygon fill="#471049" points="68.69,7.403 66.679,6.242 66.669,3.937 68.69,5.095 		"/>
	</g>
	<g>
		<polygon fill="#EE3045" points="68.685,7.399 66.674,8.561 66.674,6.252 68.685,5.091 		"/>
		<polygon fill="#471049" points="66.674,6.252 64.652,5.095 66.661,3.937 68.685,5.091 		"/>
		<polygon fill="#471049" points="66.674,8.561 64.662,7.399 64.652,5.095 66.674,6.252 		"/>
	</g>
	<g>
		<polygon fill="#EE3045" points="68.418,3.609 66.406,4.77 66.406,2.462 68.418,1.3 		"/>
		<polygon fill="#471049" points="66.406,2.462 64.384,1.304 66.393,0.146 68.418,1.3 		"/>
		<polygon fill="#471049" points="66.406,4.77 64.394,3.609 64.384,1.304 66.406,2.462 		"/>
	</g>
	<g>
		<polygon fill="#EE3045" points="66.666,4.57 64.654,5.731 64.654,3.423 66.666,2.262 		"/>
		<polygon fill="#471049" points="64.654,3.423 62.633,2.265 64.642,1.107 66.666,2.262 		"/>
		<polygon fill="#471049" points="64.654,5.731 62.643,4.57 62.633,2.265 64.654,3.423 		"/>
	</g>
	<g>
		<polygon fill="#EE3045" points="71.165,3.463 69.153,4.624 69.153,2.316 71.165,1.154 		"/>
		<polygon fill="#471049" points="69.153,2.316 67.132,1.158 69.141,0 71.165,1.154 		"/>
		<polygon fill="#471049" points="69.153,4.624 67.142,3.463 67.132,1.158 69.153,2.316 		"/>
	</g>
	<g>
		<polygon fill="#EE3045" points="68.685,5.084 66.674,6.245 66.674,3.937 68.685,2.775 		"/>
		<polygon fill="#471049" points="66.674,3.937 64.652,2.779 66.661,1.621 68.685,2.775 		"/>
		<polygon fill="#471049" points="66.674,6.245 64.662,5.084 64.652,2.779 66.674,3.937 		"/>
	</g>
	<g>
		<polygon fill="#EE3045" points="62.661,8.55 60.65,9.711 60.65,7.403 62.661,6.242 		"/>
		<polygon fill="#471049" points="60.65,7.403 58.628,6.245 60.637,5.087 62.661,6.242 		"/>
		<polygon fill="#471049" points="60.65,9.711 58.638,8.55 58.628,6.245 60.65,7.403 		"/>
	</g>
	<g>
		<polygon fill="#EE3045" points="64.668,7.403 62.656,8.564 62.656,6.256 64.668,5.095 		"/>
		<polygon fill="#471049" points="62.656,6.256 60.635,5.098 62.644,3.94 64.668,5.095 		"/>
		<polygon fill="#471049" points="62.656,8.564 60.645,7.403 60.635,5.098 62.656,6.256 		"/>
	</g>
	<g>
		<polygon fill="#EE3045" points="66.687,8.561 64.676,9.722 64.676,7.414 66.687,6.252 		"/>
		<polygon fill="#471049" points="64.676,7.414 62.654,6.256 64.663,5.098 66.687,6.252 		"/>
		<polygon fill="#471049" points="64.676,9.722 62.664,8.561 62.654,6.256 64.676,7.414 		"/>
	</g>
	<g>
		<polygon fill="#EE3045" points="64.671,9.719 62.659,10.88 62.659,8.572 64.671,7.41 		"/>
		<polygon fill="#471049" points="62.659,8.572 60.637,7.414 62.646,6.256 64.671,7.41 		"/>
		<polygon fill="#471049" points="62.659,10.88 60.647,9.719 60.637,7.414 62.659,8.572 		"/>
	</g>
	<g>
		<polygon fill="#EE3045" points="64.668,5.087 62.656,6.249 62.656,3.94 64.668,2.779 		"/>
		<polygon fill="#471049" points="62.656,3.94 60.635,2.782 62.644,1.625 64.668,2.779 		"/>
		<polygon fill="#471049" points="62.656,6.249 60.645,5.087 60.635,2.782 62.656,3.94 		"/>
	</g>
	<g>
		<polygon fill="#EE3045" points="62.651,3.922 60.64,5.084 60.64,2.775 62.651,1.614 		"/>
		<polygon fill="#471049" points="60.64,2.775 58.618,1.617 60.627,0.46 62.651,1.614 		"/>
		<polygon fill="#471049" points="60.64,5.084 58.628,3.922 58.618,1.617 60.64,2.775 		"/>
	</g>
	<g>
		<polygon fill="#EE3045" points="66.687,6.245 64.676,7.407 64.676,5.098 66.687,3.937 		"/>
		<polygon fill="#471049" points="64.676,5.098 62.654,3.94 64.663,2.782 66.687,3.937 		"/>
		<polygon fill="#471049" points="64.676,7.407 62.664,6.245 62.654,3.94 64.676,5.098 		"/>
	</g>
	<g>
		<polygon fill="#EE3045" points="64.671,7.403 62.659,8.564 62.659,6.256 64.671,5.095 		"/>
		<polygon fill="#471049" points="62.659,6.256 60.637,5.098 62.646,3.94 64.671,5.095 		"/>
		<polygon fill="#471049" points="62.659,8.564 60.647,7.403 60.637,5.098 62.659,6.256 		"/>
	</g>
	<g>
		<polygon fill="#EE3045" points="62.651,27.043 60.64,28.204 60.64,25.896 62.651,24.735 		"/>
		<polygon fill="#471049" points="60.64,25.896 58.618,24.738 60.627,23.58 62.651,24.735 		"/>
		<polygon fill="#471049" points="60.64,28.204 58.628,27.043 58.618,24.738 60.64,25.896 		"/>
	</g>
	<g>
		<polygon fill="#EE3045" points="64.658,25.896 62.646,27.057 62.646,24.749 64.658,23.588 		"/>
		<polygon fill="#471049" points="62.646,24.749 60.625,23.591 62.634,22.433 64.658,23.588 		"/>
		<polygon fill="#471049" points="62.646,27.057 60.635,25.896 60.625,23.591 62.646,24.749 		"/>
	</g>
	<g>
		<polygon fill="#EE3045" points="66.677,27.054 64.666,28.215 64.666,25.907 66.677,24.745 		"/>
		<polygon fill="#471049" points="64.666,25.907 62.644,24.749 64.653,23.591 66.677,24.745 		"/>
		<polygon fill="#471049" points="64.666,28.215 62.654,27.054 62.644,24.749 64.666,25.907 		"/>
	</g>
	<g>
		<polygon fill="#EE3045" points="65.191,28.794 63.18,29.956 63.18,27.647 65.191,26.486 		"/>
		<polygon fill="#471049" points="63.18,27.647 61.158,26.489 63.167,25.332 65.191,26.486 		"/>
		<polygon fill="#471049" points="63.18,29.956 61.168,28.794 61.158,26.489 63.18,27.647 		"/>
	</g>
	<g>
		<polygon fill="#EE3045" points="64.658,23.58 62.646,24.742 62.646,22.433 64.658,21.272 		"/>
		<polygon fill="#471049" points="62.646,22.433 60.625,21.275 62.634,20.118 64.658,21.272 		"/>
		<polygon fill="#471049" points="62.646,24.742 60.635,23.58 60.625,21.275 62.646,22.433 		"/>
	</g>
	<g>
		<polygon fill="#EE3045" points="62.641,24.738 60.63,25.9 60.63,23.591 62.641,22.43 		"/>
		<polygon fill="#471049" points="60.63,23.591 58.608,22.433 60.617,21.275 62.641,22.43 		"/>
		<polygon fill="#471049" points="60.63,25.9 58.618,24.738 58.608,22.433 60.63,23.591 		"/>
	</g>
	<g>
		<polygon fill="#EE3045" points="66.677,24.738 64.666,25.9 64.666,23.591 66.677,22.43 		"/>
		<polygon fill="#471049" points="64.666,23.591 62.644,22.433 64.653,21.275 66.677,22.43 		"/>
		<polygon fill="#471049" points="64.666,25.9 62.654,24.738 62.644,22.433 64.666,23.591 		"/>
	</g>
	<g>
		<polygon fill="#EE3045" points="64.661,25.896 62.649,27.057 62.649,24.749 64.661,23.588 		"/>
		<polygon fill="#471049" points="62.649,24.749 60.627,23.591 62.636,22.433 64.661,23.588 		"/>
		<polygon fill="#471049" points="62.649,27.057 60.637,25.896 60.627,23.591 62.649,24.749 		"/>
	</g>
	<g>
		<polygon fill="#EE3045" points="62.651,22.422 60.64,23.584 60.64,21.275 62.651,20.114 		"/>
		<polygon fill="#471049" points="60.64,21.275 58.618,20.118 60.627,18.96 62.651,20.114 		"/>
		<polygon fill="#471049" points="60.64,23.584 58.628,22.422 58.618,20.118 60.64,21.275 		"/>
	</g>
	<g>
		<polygon fill="#EE3045" points="64.658,21.275 62.646,22.437 62.646,20.128 64.658,18.967 		"/>
		<polygon fill="#471049" points="62.646,20.128 60.625,18.971 62.634,17.813 64.658,18.967 		"/>
		<polygon fill="#471049" points="62.646,22.437 60.635,21.275 60.625,18.971 62.646,20.128 		"/>
	</g>
	<g>
		<polygon fill="#EE3045" points="66.677,22.433 64.666,23.595 64.666,21.286 66.677,20.125 		"/>
		<polygon fill="#471049" points="64.666,21.286 62.644,20.128 64.653,18.971 66.677,20.125 		"/>
		<polygon fill="#471049" points="64.666,23.595 62.654,22.433 62.644,20.128 64.666,21.286 		"/>
	</g>
	<g>
		<polygon fill="#EE3045" points="64.661,23.591 62.649,24.753 62.649,22.444 64.661,21.283 		"/>
		<polygon fill="#471049" points="62.649,22.444 60.627,21.286 62.636,20.128 64.661,21.283 		"/>
		<polygon fill="#471049" points="62.649,24.753 60.637,23.591 60.627,21.286 62.649,22.444 		"/>
	</g>
	<g>
		<polygon fill="#EE3045" points="64.658,18.96 62.646,20.121 62.646,17.813 64.658,16.651 		"/>
		<polygon fill="#471049" points="62.646,17.813 60.625,16.655 62.634,15.497 64.658,16.651 		"/>
		<polygon fill="#471049" points="62.646,20.121 60.635,18.96 60.625,16.655 62.646,17.813 		"/>
	</g>
	<g>
		<polygon fill="#EE3045" points="62.641,20.118 60.63,21.279 60.63,18.971 62.641,17.809 		"/>
		<polygon fill="#471049" points="60.63,18.971 58.608,17.813 60.617,16.655 62.641,17.809 		"/>
		<polygon fill="#471049" points="60.63,21.279 58.618,20.118 58.608,17.813 60.63,18.971 		"/>
	</g>
	<g>
		<polygon fill="#EE3045" points="66.677,20.118 64.666,21.279 64.666,18.971 66.677,17.809 		"/>
		<polygon fill="#471049" points="64.666,18.971 62.644,17.813 64.653,16.655 66.677,17.809 		"/>
		<polygon fill="#471049" points="64.666,21.279 62.654,20.118 62.644,17.813 64.666,18.971 		"/>
	</g>
	<g>
		<polygon fill="#EE3045" points="66.677,17.756 64.666,18.917 64.666,16.609 66.677,15.447 		"/>
		<polygon fill="#471049" points="64.666,16.609 62.644,15.451 64.653,14.293 66.677,15.447 		"/>
		<polygon fill="#471049" points="64.666,18.917 62.654,17.756 62.644,15.451 64.666,16.609 		"/>
	</g>
	<g>
		<polygon fill="#EE3045" points="58.627,15.472 56.615,16.633 56.615,14.325 58.627,13.163 		"/>
		<polygon fill="#471049" points="56.615,14.325 54.593,13.167 56.602,12.009 58.627,13.163 		"/>
		<polygon fill="#471049" points="56.615,16.633 54.603,15.472 54.593,13.167 56.615,14.325 		"/>
	</g>
	<g>
		<polygon fill="#EE3045" points="60.633,14.325 58.622,15.486 58.622,13.178 60.633,12.016 		"/>
		<polygon fill="#471049" points="58.622,13.178 56.6,12.02 58.609,10.862 60.633,12.016 		"/>
		<polygon fill="#471049" points="58.622,15.486 56.61,14.325 56.6,12.02 58.622,13.178 		"/>
	</g>
	<g>
		<polygon fill="#EE3045" points="62.653,15.483 60.641,16.644 60.641,14.336 62.653,13.174 		"/>
		<polygon fill="#471049" points="60.641,14.336 58.619,13.178 60.628,12.02 62.653,13.174 		"/>
		<polygon fill="#471049" points="60.641,16.644 58.629,15.483 58.619,13.178 60.641,14.336 		"/>
	</g>
	<g>
		<polygon fill="#EE3045" points="60.636,16.64 58.624,17.802 58.624,15.493 60.636,14.332 		"/>
		<polygon fill="#471049" points="58.624,15.493 56.603,14.336 58.612,13.178 60.636,14.332 		"/>
		<polygon fill="#471049" points="58.624,17.802 56.612,16.64 56.603,14.336 58.624,15.493 		"/>
	</g>
	<g>
		<polygon fill="#EE3045" points="60.633,12.009 58.622,13.171 58.622,10.862 60.633,9.701 		"/>
		<polygon fill="#471049" points="58.622,10.862 56.6,9.704 58.609,8.546 60.633,9.701 		"/>
		<polygon fill="#471049" points="58.622,13.171 56.61,12.009 56.6,9.704 58.622,10.862 		"/>
	</g>
	<g>
		<polygon fill="#EE3045" points="58.617,13.167 56.605,14.328 56.605,12.02 58.617,10.858 		"/>
		<polygon fill="#471049" points="56.605,12.02 54.583,10.862 56.592,9.704 58.617,10.858 		"/>
		<polygon fill="#471049" points="56.605,14.328 54.593,13.167 54.583,10.862 56.605,12.02 		"/>
	</g>
	<g>
		<polygon fill="#EE3045" points="62.653,13.167 60.641,14.328 60.641,12.02 62.653,10.858 		"/>
		<polygon fill="#471049" points="60.641,12.02 58.619,10.862 60.628,9.704 62.653,10.858 		"/>
		<polygon fill="#471049" points="60.641,14.328 58.629,13.167 58.619,10.862 60.641,12.02 		"/>
	</g>
	<g>
		<polygon fill="#EE3045" points="60.636,14.325 58.624,15.486 58.624,13.178 60.636,12.016 		"/>
		<polygon fill="#471049" points="58.624,13.178 56.603,12.02 58.612,10.862 60.636,12.016 		"/>
		<polygon fill="#471049" points="58.624,15.486 56.612,14.325 56.603,12.02 58.624,13.178 		"/>
	</g>
	<g>
		<polygon fill="#EE3045" points="60.626,28.197 58.614,29.359 58.614,27.05 60.626,25.889 		"/>
		<polygon fill="#471049" points="58.614,27.05 56.592,25.892 58.601,24.735 60.626,25.889 		"/>
		<polygon fill="#F1C233" points="58.614,29.359 56.602,28.197 56.592,25.892 58.614,27.05 		"/>
	</g>
	<g>
		<polygon fill="#EE3045" points="58.614,29.348 56.602,30.509 56.602,28.201 58.614,27.039 		"/>
		<polygon fill="#471049" points="56.602,28.201 54.581,27.043 56.59,25.885 58.614,27.039 		"/>
		<polygon fill="#F1C233" points="56.602,30.509 54.591,29.348 54.581,27.043 56.602,28.201 		"/>
	</g>
	<g>
		<polygon fill="#EE3045" points="62.642,29.351 60.631,30.513 60.631,28.204 62.642,27.043 		"/>
		<polygon fill="#471049" points="60.631,28.204 58.609,27.047 60.618,25.889 62.642,27.043 		"/>
		<polygon fill="#F1C233" points="60.631,30.513 58.619,29.351 58.609,27.047 60.631,28.204 		"/>
	</g>
	<g>
		<polygon fill="#EE3045" points="60.631,31.878 58.619,33.04 58.619,30.731 60.631,29.57 		"/>
		<polygon fill="#471049" points="58.619,30.731 56.597,29.573 58.606,28.416 60.631,29.57 		"/>
		<polygon fill="#F1C233" points="58.619,33.04 56.607,31.878 56.597,29.573 58.619,30.731 		"/>
	</g>
	<g>
		<polygon fill="#EE3045" points="60.626,25.883 58.614,27.045 58.614,24.736 60.626,23.575 		"/>
		<polygon fill="#471049" points="58.614,24.736 56.592,23.578 58.601,22.421 60.626,23.575 		"/>
		<polygon fill="#F1C233" points="58.614,27.045 56.602,25.883 56.592,23.578 58.614,24.736 		"/>
	</g>
	<g>
		<polygon fill="#EE3045" points="58.614,27.034 56.602,28.195 56.602,25.887 58.614,24.725 		"/>
		<polygon fill="#471049" points="56.602,25.887 54.581,24.729 56.59,23.571 58.614,24.725 		"/>
		<polygon fill="#F1C233" points="56.602,28.195 54.591,27.034 54.581,24.729 56.602,25.887 		"/>
	</g>
	<g>
		<polygon fill="#EE3045" points="62.642,27.038 60.631,28.199 60.631,25.891 62.642,24.729 		"/>
		<polygon fill="#471049" points="60.631,25.891 58.609,24.733 60.618,23.575 62.642,24.729 		"/>
		<polygon fill="#F1C233" points="60.631,28.199 58.619,27.038 58.609,24.733 60.631,25.891 		"/>
	</g>
	<g>
		<polygon fill="#EE3045" points="60.631,28.188 58.619,29.35 58.619,27.041 60.631,25.88 		"/>
		<polygon fill="#471049" points="58.619,27.041 56.597,25.883 58.606,24.725 60.631,25.88 		"/>
		<polygon fill="#F1C233" points="58.619,29.35 56.607,28.188 56.597,25.883 58.619,27.041 		"/>
	</g>
	<g>
		<polygon fill="#EE3045" points="62.641,10.873 60.63,12.034 60.63,9.726 62.641,8.564 		"/>
		<polygon fill="#471049" points="60.63,9.726 58.608,8.568 60.617,7.41 62.641,8.564 		"/>
		<polygon fill="#471049" points="60.63,12.034 58.618,10.873 58.608,8.568 60.63,9.726 		"/>
	</g>
	<g>
		<polygon fill="#EE3045" points="62.641,24.738 60.63,25.9 60.63,23.591 62.641,22.43 		"/>
		<polygon fill="#471049" points="60.63,23.591 58.608,22.433 60.617,21.275 62.641,22.43 		"/>
		<polygon fill="#471049" points="60.63,25.9 58.618,24.738 58.608,22.433 60.63,23.591 		"/>
	</g>
	<g>
		<polygon fill="#EE3045" points="64.181,21.776 62.169,22.938 62.169,20.629 64.181,19.468 		"/>
		<polygon fill="#471049" points="62.169,20.629 60.147,19.471 62.156,18.313 64.181,19.468 		"/>
		<polygon fill="#471049" points="62.169,22.938 60.157,21.776 60.147,19.471 62.169,20.629 		"/>
	</g>
</g>
</svg>
