<?xml version="1.0" encoding="UTF-8"?>
<svg id="Layer_1" data-name="Layer 1" xmlns="http://www.w3.org/2000/svg" viewBox="0 0 1130.9 731.22">
  <defs>
    <style>
      .cls-1 {
        font-family: ArialMT, Arial;
        font-size: 103.71px;
        isolation: isolate;
      }

      .cls-1, .cls-2, .cls-3 {
        fill: #ffc800;
      }

      .cls-2, .cls-4 {
        stroke: #ffecbb;
        stroke-width: 5px;
      }

      .cls-2, .cls-4, .cls-5 {
        stroke-miterlimit: 10;
      }

      .cls-4 {
        fill: #f4c600;
      }

      .cls-6 {
        fill: #0068c2;
      }

      .cls-7 {
        fill: #fff;
      }

      .cls-5 {
        fill: none;
        stroke: #fff;
        stroke-width: 10px;
      }
    </style>
  </defs>
  <path class="cls-4" d="M616.1,507c-7.7-3.3-12.6-10.1-12.5-17.2,.2-12.1,14.9-17.2,15.6-17.4,10.9-3.6,20.9,2.7,26.6,6.2,4.5,2.8,14.1,8.8,17.3,20.4,2.6,9.3-.2,17.2-2.5,23.5-3.7,10.2-9.6,16.7-13.6,21-2.2,2.4-7.8,8-16.1,13-7.1,4.2-25.8,15.4-49.4,9.9-15.2-3.6-35.6-14.8-40.2-32.1-2.1-7.9,0-13.9-4.9-18.5-5.7-5.4-12.8-1.5-22.9-3.7-15.5-3.4-31.7-20.1-30.9-37.1,.6-12.5,10.3-22.8,19.2-27.8,21-11.8,53.1-2.5,53.1-2.5,.9-1.9,2.4-4.5,4.3-7.4,9.2-13.5,21.3-19.9,25.9-22.2,15.5-7.9,29.6-8,35.8-8,14,0,41.7,3.6,49.4,17.9,6.8,12.6,8,18.5,8,18.5,.6,3,1.1,6.6,2.5,6.8,1.6,.2,2.3-4.6,4.9-7.4,6.7-7.2,28.9-4.9,38.9,8.6,6.2,8.4,5.5,18,4.9,25.3-.3,4.2-.7,9-3.7,10.5-4.1,2-8.3-4.5-14.2-3.1-5.2,1.3-7.8,7.9-9.3,11.7-3.9,10.2-1.1,19.5-.6,21,3.6,11.1,12.3,16.7,16.1,19.2,1.4,.9,21.9,13.6,40.8,4.2,8.9-4.4,13.5-11.9,16.4-16.4,8.1-12.9,3.7-18.1,10.5-28.2,6.8-10.2,21.1-19.6,33.9-17.6,10.7,1.7,14.4,10.4,23.1,8.5,5.7-1.3,5.4-5.3,12.5-9.8,10-6.2,24.1-6.5,35.1-1.4,2.2,1,9.7,4.6,14.9,12.5,3.6,5.4,2.6,7.7,7.5,20.3,3.3,8.5,5.1,12.8,8.5,16.2,1,1,7.5,7,16.7,7.4,7.4,.3,8.8-3.5,19.8-6.8,6.2-1.9,16.7-5,26.6-1.2,6.8,2.6,5.2,5.3,16.1,12.4,1.2,.8,8,4,21.6,10.5,7.4,3.5,11.1,5.3,16.1,6.2,6.1,1.1,10.4,.6,10.5,1.2,.1,1-10.2,3-19.8,4.3-16.5,2.2-24.7,3.4-31.5,1.2-12.4-3.9-14.5-12.3-22.9-11.1-5,.7-6,4-14.8,11.1-5.3,4.3-13.9,11.2-24.1,14.2-14.8,4.3-28.3-1-32.1-2.5-10.3-4-10.4-7.7-27.9-19.2-12.9-8.4-19.3-12.7-26.2-13.8-14.1-2.2-34,3.6-41.9,19.7-7.2,14.6-3.2,35.1,5.9,38.7,8.4,3.3,21.9-7.5,29.7-13.6,7.4-5.9,7.5-8,11.7-9.3,11.7-3.6,28.7,7.2,35.2,21.6,7.2,15.8-.1,31.7-3.1,38.3-1.4,3-15.3,32.3-47.6,36.5-15.1,2-39-.7-47-14.2-2-3.3-4-8.9-6.2-8.6-2.3,.3-1.9,6.8-4.9,12.4-4.8,8.8-16,11.3-23.5,13-22.5,5-41.3-4.9-45.7-7.4-7.6-4.3-16.2-8.9-21.6-19.2-8.2-15.5-4.1-34,3.1-45.3,5.3-8.3,12.9-13.8,17.2-16.9,3.1-2.2,7.4-5.4,13.8-7.9,6.3-2.5,14-5.5,23.5-3.7,8.2,1.6,13.7,6.1,15.9,8,1.8,1.6,13.6,12.7,11.1,27.6-1.6,9.4-8.1,15.1-11.1,17.8-3.4,3-10.3,9.1-19.8,8.6-11.4-.5-23-10.1-22.2-18.5,.4-3.9,3.4-8,7.2-9.4s9.1-1.5,10.4,.9c1,1.7-.4,4,0,4.1,.6,.2,4.4-4.4,3.1-7.5-1.4-3.5-9-3.8-14-2.3-5.5,1.6-11.3,6.2-13,13-2.5,10.4,6.8,18.8,9.3,21,9.6,8.7,21.7,7.6,23.5,7.4,12.4-1.3,19.8-9.9,23.1-13.8,2.6-3,13.1-15.3,10.4-32.4-2.8-17.7-17.6-26.4-19.3-27.4-20.4-11.5-44.5,1-48.6,3.2-17.2,9.4-16.6,20.3-28.5,22-18,2.6-40.6-19.4-38.5-34.5,.6-4.2,3.4-8.8,5.6-12.4,4.9-8,7.8-8.4,11.7-14.2,7.7-11.4,6.5-24.8,6.2-28.4-.9-9.5-4.3-16.2-5.3-18-1.6-2.9-7.1-12.7-18.8-18.5-2.1-1-19.6-9.4-36.2-.5-2.5,1.3-15.9,8.5-16.4,21,0,1.3-.2,10.6,7.2,15.7,6.8,4.5,14.3,2.4,15.4,2.1Z"/>
  <path class="cls-4" d="M636.7,620.1c-1.2-.6-4.7-2.2-8.3-1.9-9,.7-17.5,12.9-17.8,23.6-.5,15.3,14.7,29.7,30.6,32.5,21.9,3.9,37.6-15.3,40.2-18.5,16.3-20.7,8.7-46.4,7.6-49.7-10.1-32.1-44.8-40.3-47.2-40.8-16.9-3.7-42.5-2-54.8,13.4-8.7,10.9-5.4,22-15.3,27.4-8.6,4.7-13.7-2-28.7,0-6.3,.9-24.9,4.7-33.8,21-8.3,15.2-2.5,30.9-1.9,32.5,6.7,17.3,23.3,22.9,27.4,24.2,5.2,1.7,18.3,6.1,28.7,0,6.3-3.7,7.6-8.9,17.8-14,3.4-1.7,6.4-2.8,9.6-3.8,10.7-3.7,15.4-1.5,17.2-4.5,2.1-3.5-3.7-7.1-5.1-17.2-1.3-9,2.1-16.3,3.2-18.5,1.4-2.8,4.7-9.1,12.1-12.7,1.9-.9,8.7-4.3,16.6-1.9,2.1,.6,6.3,2.3,9.6,6.4,4.2,5.3,5,12.2,3.8,12.7-1.3,.6-3.7-6.5-11.5-10.2Z"/>
  <path class="cls-6" d="M757.2,236.2c-68.4,0-123.8-55.8-123.8-124.7,0-15.8,3-31.5,8.8-46.3-40.6-18.9-84.8-28.6-129.5-28.6-170.8,0-309.4,139.7-309.4,311.9s138.5,311.8,309.4,311.8,309.4-139.6,309.4-311.8c.1-41-7.9-81.6-23.5-119.4-13.3,4.7-27.3,7.1-41.4,7.1Z"/>
  <ellipse class="cls-3" cx="762.1" cy="107.6" rx="106.7" ry="107.6"/>
  <g>
    <path class="cls-7" d="M393.5,419.3c-4.1,0-7.8-.8-11.2-2.5-3.4-1.7-5.1-4.1-5.1-7.5v-131.5c0-3.3,1.5-5.8,4.5-7.5s6.3-2.5,9.8-2.5h72.8c3.5,0,6,1.5,7.5,4.5s2.3,6.1,2.3,9.4c0,3.9-.8,7.2-2.5,10s-4.1,4.2-7.3,4.2h-54.3v35h31.7c3.2,0,5.7,1.3,7.3,3.8,1.7,2.6,2.5,5.5,2.5,8.8,0,2.8-.8,5.5-2.3,8.2s-4.1,4-7.5,4h-31.7v53.4c0,3.3-1.7,5.8-5.1,7.5-3.6,1.8-7.4,2.7-11.4,2.7Z"/>
    <path class="cls-7" d="M495.6,419.3c-2.9,0-6-.6-9.3-1.8s-6-2.8-8.3-4.8c-2.2-2-3.4-4.2-3.4-6.7,0-.4,.1-1.2,.4-2.3l39-126.3c1.1-3.6,3.8-6.3,8-8.1,4.2-1.8,8.7-2.7,13.4-2.7s9.4,.9,13.5,2.7c4.1,1.8,6.7,4.5,7.9,8.1l39.2,126.3c.3,1.1,.4,1.9,.4,2.3,0,2.5-1.1,4.7-3.4,6.7-2.2,2-5,3.6-8.2,4.8s-6.4,1.8-9.4,1.8c-2.7,0-4.9-.4-6.8-1.3-1.9-.9-3.2-2.4-3.9-4.7l-7.1-25.9h-44.2l-7.1,25.9c-.6,2.2-1.8,3.8-3.8,4.7-1.9,.8-4.2,1.3-6.9,1.3Zm24.5-56.8h30.6l-15.3-55.5-15.3,55.5Z"/>
    <path class="cls-7" d="M622.9,419.3c-4.3,0-7.8-1-10.4-2.9-2.6-1.9-3.9-4.2-3.9-6.8v-131.8c0-3.3,1.5-5.8,4.5-7.5s6.3-2.5,9.8-2.5h43c7,0,13.7,1,20.1,3.1,6.4,2.1,11.7,5.8,15.7,11.1,4.1,5.3,6.1,12.9,6.1,22.7,0,8.4-1.6,15.4-4.7,20.8-3.1,5.5-7.5,9.4-13.1,11.7,4.3,1.5,8.1,3.6,11.3,6.1,3.2,2.6,5.7,6,7.5,10.2,1.8,4.3,2.7,9.9,2.7,16.8v4.3c0,10.9-1.9,19.6-5.6,26.1-3.7,6.5-8.7,11.2-15.1,14.1-6.4,2.9-13.5,4.3-21.5,4.3h-46.4v.2Zm18.2-94.4h22c4.1,0,7.1-1.5,9-4.6,2-3,2.9-6.3,2.9-9.7,0-2.5-.5-4.8-1.4-7s-2.2-4-4-5.4-4-2.1-6.6-2.1h-22v28.8h.1Zm0,66.2h21c5.3,0,9.4-1.5,12.4-4.6,2.9-3,4.4-7.9,4.4-14.5v-3.3c0-7-1.5-12-4.4-14.8s-7.1-4.2-12.4-4.2h-21v41.4Z"/>
  </g>
  <text class="cls-1" transform="translate(383.26 505.1)"><tspan x="0" y="0">Bhutan</tspan></text>
  <path class="cls-2" d="M430.4,629.9c7.7,2.8,12.9,9.3,13.2,16.3,.5,11.9-13.8,17.6-14.5,17.9-10.6,4-20.7-1.6-26.4-4.8-4.5-2.5-14.3-7.9-18-19.2-3-9-.6-17,1.3-23.2,3.1-10.3,8.6-16.9,12.3-21.3,2.1-2.4,7.3-8.3,15.2-13.6,6.7-4.5,24.7-16.5,48.1-12.2,15.1,2.8,35.8,12.8,41.1,29.6,2.4,7.7,.7,13.6,5.8,18,5.9,5,12.7,.8,22.7,2.5,15.5,2.6,32.2,18.2,32.2,34.9,0,12.4-9,23-17.5,28.3-20.1,12.7-52.1,5.1-52.2,5.1-.8,1.9-2.1,4.6-3.9,7.5-8.4,13.7-19.9,20.6-24.4,23.2-14.9,8.6-28.8,9.4-34.9,9.7-13.8,.7-41.2-1.4-49.5-15.2-7.3-12-8.8-17.8-8.8-17.8-.8-2.9-1.4-6.5-2.8-6.6-1.6-.1-2,4.6-4.5,7.5-6.3,7.4-28.2,6.3-38.7-6.6-6.5-7.9-6.3-17.4-6.1-24.7,.1-4.2,.3-8.9,3.1-10.5,3.9-2.2,8.4,4,14.1,2.3,5.1-1.5,7.3-8.2,8.5-12,3.4-10.2,.1-19.2-.4-20.7-4.1-10.8-12.9-15.9-16.8-18-1.5-.8-22.3-12.3-40.4-2.1-8.5,4.8-12.7,12.3-15.3,16.9-7.4,13.1-2.8,17.9-8.9,28.2-6.2,10.4-19.8,20.4-32.5,19-10.6-1.1-14.7-9.5-23.1-7.2-5.6,1.5-5,5.5-11.8,10.2-9.6,6.6-23.4,7.6-34.5,3.1-2.2-.9-9.8-4.1-15.3-11.6-3.8-5.2-3-7.5-8.4-19.6-3.7-8.2-5.6-12.4-9.2-15.5-1.1-.9-7.7-6.5-16.8-6.5-7.3,.1-8.5,3.9-19.1,7.7-6,2.2-16.1,5.8-26.1,2.5-6.8-2.2-5.3-4.9-16.4-11.4-1.2-.7-8.1-3.6-21.8-9.3-7.4-3.1-11.2-4.6-16.1-5.3-6.1-.8-10.3-.1-10.4-.7-.1-1,9.9-3.5,19.2-5.2,16.1-3,24.2-4.5,30.9-2.8,12.4,3.2,14.9,11.3,23,9.8,4.9-.9,5.7-4.2,14-11.7,5-4.4,13.1-11.7,23-15.2,14.3-5,27.9-.5,31.7,.8,10.4,3.5,10.6,7.1,28.4,17.5,13.1,7.7,19.6,11.5,26.5,12.2,14,1.5,33.3-5.3,40.3-21.4,6.3-14.7,1.4-34.7-7.7-37.8-8.4-2.8-21.2,8.5-28.5,14.8-7,6.1-7,8.2-11.1,9.7-11.3,4.1-28.6-5.7-35.7-19.5-7.8-15.2-1.5-31.2,1.1-37.8,1.2-3,13.5-32.5,45-38.2,14.7-2.7,38.4-1.2,46.9,11.6,2.1,3.2,4.3,8.6,6.5,8.2,2.3-.4,1.6-6.8,4.2-12.4,4.3-8.9,15.2-11.9,22.5-13.9,21.9-6,40.9,2.8,45.3,5,7.6,3.8,16.4,8,22.2,17.8,8.8,14.8,5.7,33.3-.8,44.8-4.8,8.4-12,14.2-16.1,17.5-2.9,2.3-7,5.6-13.2,8.5-6.1,2.8-13.5,6.1-22.9,4.8-8.2-1.2-13.8-5.3-16-7.1-1.8-1.5-14-11.8-12.3-26.6,1.1-9.4,7.2-15.3,10-18,3.2-3.1,9.7-9.4,19-9.5,11.3-.1,23.1,8.8,22.8,17.1-.2,3.9-3,8-6.6,9.6-3.7,1.6-8.8,1.9-10.3-.3-1.1-1.6,.2-3.9-.2-4.1-.6-.2-4.1,4.6-2.7,7.5,1.6,3.4,9,3.3,13.9,1.6,5.3-1.8,10.9-6.7,12.1-13.4,2-10.4-7.6-18.1-10.2-20.2-9.9-8-21.7-6.4-23.5-6.1-12.2,1.9-19,10.7-22,14.7-2.4,3.1-12.1,15.7-8.7,32.4,3.6,17.3,18.6,25.1,20.4,26,20.7,10.3,43.8-3.2,47.6-5.6,16.4-10.1,15.3-20.8,26.9-23,17.6-3.4,40.9,17.1,39.6,32-.4,4.2-2.9,8.9-4.9,12.4-4.4,8.1-7.3,8.6-10.8,14.6-7,11.6-5.2,24.7-4.7,28.3,1.3,9.3,5.1,15.8,6.1,17.4,1.7,2.8,7.6,12.1,19.4,17.2,2.1,.9,19.8,8.2,35.7-1.3,2.4-1.4,15.2-9.1,15.1-21.4,0-1.3-.3-10.4-7.9-15.1-6.2-3.8-13.5-1.4-14.6-1Z"/>
  <g>
    <path class="cls-5" d="M693.6,162.2c-2.2,0-4.6-.7-7-2-2.5-1.3-3.7-3.2-3.7-5.5v-15.1c0-4,1.2-7.9,3.5-11.4s5.4-7,9.2-10.1c3.8-3.2,7.8-6.3,12.1-9.3s8.3-6,12-9,6.8-5.9,9.2-9c2.4-3,3.6-6.2,3.6-9.5,0-1.7-.4-3.3-1.2-5.1-.8-1.7-2.1-3.1-3.8-4.3-1.7-1.1-4.1-1.7-7-1.7-3.2,0-5.9,.9-8.3,2.6-2.4,1.8-3.5,4.8-3.5,9,0,2.3-1.2,4.3-3.5,6.2-2.3,1.8-5.5,2.7-9.5,2.7-3.2,0-5.8-.9-7.9-2.6-2.1-1.8-3.2-5.1-3.2-10,0-6.3,1.7-11.7,5.1-16.2,3.4-4.5,7.9-7.9,13.3-10.2,5.5-2.3,11.2-3.5,17.2-3.5s12,1.2,17.6,3.7,10.2,6.1,13.8,10.9c3.6,4.8,5.4,10.6,5.4,17.6,0,5.6-1.2,10.6-3.5,15.1-2.4,4.5-5.4,8.5-9.1,12.1-3.7,3.6-7.6,6.8-11.8,9.7s-8.1,5.6-11.8,8-6.7,4.8-9.1,7.1c-2.4,2.3-3.5,4.6-3.5,7v1.4h41.3c2,0,3.7,1,5.2,3.1s2.2,4.5,2.2,7.3-.7,5.3-2.2,7.5-3.2,3.3-5.2,3.3h-55.9v.2Z"/>
    <path class="cls-5" d="M810,165c-6.7,0-12.5-.9-17.3-2.7-4.8-1.8-8.7-4.2-11.7-7.1s-5.2-6.1-6.5-9.6c-1.4-3.5-2.1-6.8-2.1-10,0-3.5,.9-5.9,2.6-7.1,1.7-1.2,4.8-1.8,9.1-1.8,5,0,8.4,.6,10.1,1.8,1.7,1.2,2.5,3.3,2.5,6.3,0,1.9,.4,3.4,1.2,4.5,.8,1.1,1.8,2.1,3.2,2.7,1.3,.7,2.8,1.1,4.5,1.4s3.4,.4,5.2,.4c5.4,0,9.1-1.1,11.3-3.2s3.2-5.7,3.2-10.8v-3c0-5.2-1.4-8.6-4.3-10.1-2.9-1.6-6.5-2.3-10.8-2.3-2.6,0-4.5-1-5.5-3-1.1-2-1.6-4.1-1.6-6.4s.5-4.5,1.6-6.5c1-1.9,2.9-2.9,5.5-2.9,2,0,3.9-.2,5.8-.7,1.9-.5,3.4-1.7,4.7-3.6,1.2-1.9,1.8-5,1.8-9.1,0-4.6-1.1-7.6-3.4-9-2.3-1.5-5-2.2-8.3-2.2-1.9,0-3.6,.1-5,.4-1.5,.3-2.7,.7-3.7,1.3s-1.7,1.4-2.2,2.4-.7,2.3-.7,3.8c0,2.6-.8,4.7-2.3,6.4s-4.6,2.5-9.2,2.5c-3.8,0-6.6-.3-8.4-.9-1.8-.6-3-1.6-3.5-3-.6-1.5-.9-3.4-.9-5.9,0-3,.6-6.2,1.8-9.4,1.2-3.3,3.2-6.3,6-9.1s6.5-5.1,11.1-6.8,10.3-2.6,17-2.6,12.7,.9,18,2.6c5.3,1.8,9.4,4.7,12.5,8.8s4.7,9.7,4.7,16.7c0,5.7-1,11-3.1,15.7-2.1,4.8-5.1,8-9.1,9.8,4.6,1.7,8.5,4.3,11.5,7.9,3,3.6,4.6,8.6,4.6,15v3c0,8.5-1.8,15.3-5.4,20.5-3.6,5.1-8.4,8.9-14.4,11.2-6.1,2.5-12.8,3.7-20.1,3.7Z"/>
  </g>
</svg>