<?xml version="1.0" encoding="utf-8"?>
<!-- Generator: Adobe Illustrator 17.0.0, SVG Export Plug-In . SVG Version: 6.00 Build 0)  -->
<!DOCTYPE svg PUBLIC "-//W3C//DTD SVG 1.1//EN" "http://www.w3.org/Graphics/SVG/1.1/DTD/svg11.dtd">
<svg version="1.1" id="Layer_21" xmlns="http://www.w3.org/2000/svg" xmlns:xlink="http://www.w3.org/1999/xlink" x="0px" y="0px"
	 width="82.107px" height="22.492px" viewBox="0 0 82.107 22.492" enable-background="new 0 0 82.107 22.492" xml:space="preserve">
<g>
	<path fill="#FFFFFF" d="M12.715,22.492v-0.964c0-0.078-0.041-0.15-0.109-0.189l-1.979-1.154c-0.067-0.039-0.109-0.111-0.109-0.189
		v-2.584c0.083-0.033,0.167-0.07,0.246-0.116c1.301-0.737,1.466-2.897,0.37-4.819c-1.092-1.924-3.034-2.884-4.333-2.144
		c-1.3,0.737-1.467,2.896-0.369,4.819c0.156,0.275,0.33,0.531,0.515,0.763c0.03,0.038,0.047,0.084,0.047,0.132v1.643
		c0,0.169-0.183,0.274-0.329,0.189l-2.39-1.391c-0.067-0.039-0.109-0.111-0.109-0.189V6.726c0-0.078-0.042-0.151-0.11-0.19
		L3.433,6.177C3.323,6.113,3.18,6.155,3.124,6.268c-0.744,1.504-1.16,3.19-1.16,4.981C1.964,17.297,6.73,22.231,12.715,22.492"/>
	<path fill="#FFFFFF" d="M6.77,4.544c0.068-0.039,0.151-0.039,0.219,0l2.236,1.292c-0.013,0.09-0.019,0.181-0.019,0.273
		c-0.009,1.495,1.775,2.717,3.988,2.733c2.212,0.012,4.015-1.188,4.023-2.683c0.009-1.494-1.778-2.716-3.99-2.732
		c-0.315-0.002-0.623,0.021-0.917,0.067c-0.048,0.008-0.097-0.001-0.139-0.026l-1.421-0.822c-0.146-0.085-0.146-0.296,0.001-0.38
		l2.399-1.376c0.068-0.039,0.151-0.039,0.219,0l8.34,4.817c0.068,0.039,0.151,0.039,0.219,0l0.6-0.346
		c0.109-0.063,0.145-0.207,0.076-0.312c-0.932-1.416-2.194-2.633-3.762-3.537C13.655-1.483,7.084,0.114,3.829,5.042
		c-0.07,0.105-0.034,0.25,0.075,0.313l0.613,0.354c0.068,0.039,0.151,0.039,0.219,0L6.77,4.544z"/>
	<path fill="#FFFFFF" d="M22.254,9.025c0,0.078-0.042,0.15-0.109,0.189l-2.237,1.293c-0.07-0.058-0.144-0.11-0.225-0.156
		c-1.289-0.754-3.244,0.18-4.36,2.09c-1.117,1.91-0.979,4.07,0.31,4.825c1.289,0.755,3.242-0.179,4.359-2.091
		c0.16-0.271,0.294-0.548,0.401-0.825c0.018-0.046,0.049-0.083,0.092-0.108l1.425-0.821c0.146-0.084,0.329,0.022,0.329,0.191
		l-0.011,2.764c0,0.078-0.042,0.15-0.11,0.189l-8.285,4.785c-0.068,0.039-0.11,0.111-0.11,0.19v0.719
		c0,0.127,0.107,0.23,0.234,0.222c1.672-0.108,3.338-0.59,4.887-1.483c5.172-2.988,7.078-9.447,4.465-14.725
		c-0.056-0.113-0.199-0.155-0.309-0.092l-0.629,0.363c-0.068,0.039-0.109,0.111-0.11,0.189L22.254,9.025z"/>
</g>
<g>
	<g>
		<path fill="#FFFFFF" d="M27.456,2.685h11.199v2.945h-7.697V9.31h6.67v2.722h-6.67v6.581h-3.502V2.685z"/>
		<path fill="#FFFFFF" d="M43.313,2.685h3.591l5.957,15.928h-3.636l-1.205-3.547h-5.957l-1.25,3.547h-3.547L43.313,2.685z
			 M42.979,12.456h4.127l-2.008-5.845h-0.044L42.979,12.456z"/>
		<path fill="#FFFFFF" d="M53.749,2.685h7.496c3.034,0,5.086,0.981,5.086,3.949c0,1.562-0.781,2.655-2.164,3.324
			c1.94,0.558,2.922,2.053,2.922,4.038c0,3.234-2.744,4.618-5.622,4.618h-7.719V2.685z M57.251,9.132h3.547
			c1.227,0,2.142-0.558,2.142-1.896c0-1.517-1.16-1.829-2.41-1.829h-3.279V9.132z M57.251,15.891h3.748
			c1.383,0,2.588-0.446,2.588-2.097c0-1.628-1.026-2.275-2.521-2.275h-3.815V15.891z"/>
		<path fill="#FFFFFF" d="M72.506,9.31c1.361,0.112,3.324-0.156,3.324-1.941c0-1.316-1.048-2.074-2.208-2.074
			c-1.584,0-2.432,1.182-2.409,2.788H68.2c0.111-3.19,2.186-5.398,5.398-5.398c2.499,0,5.243,1.54,5.243,4.328
			c0,1.472-0.736,2.788-2.186,3.19v0.044c1.718,0.379,2.766,1.807,2.766,3.547c0,3.28-2.744,5.131-5.8,5.131
			c-3.502,0-5.867-2.097-5.8-5.689h3.012c0.067,1.696,0.915,3.079,2.744,3.079c1.428,0,2.543-0.981,2.543-2.454
			c0-2.365-2.075-2.32-3.614-2.32V9.31z"/>
	</g>
</g>
</svg>
