<?xml version="1.0" encoding="utf-8"?>
<!-- Generator: Adobe Illustrator 17.0.0, SVG Export Plug-In . SVG Version: 6.00 Build 0)  -->
<!DOCTYPE svg PUBLIC "-//W3C//DTD SVG 1.1//EN" "http://www.w3.org/Graphics/SVG/1.1/DTD/svg11.dtd">
<svg version="1.1" id="fab9" xmlns="http://www.w3.org/2000/svg" xmlns:xlink="http://www.w3.org/1999/xlink" x="0px" y="0px"
	 width="130.25px" height="30px" viewBox="0 0 130.25 30" enable-background="new 0 0 130.25 30" xml:space="preserve">
<g>
	<path fill="#231F20" d="M4.604,4.107v8.786h6.57v3.849h-6.57v13.14H0.172V0.181h12.13v3.926H4.604z"/>
	<path fill="#231F20" d="M25.481,29.883l-0.894-5.637h-5.559l-0.894,5.637H13.74v-0.078l5.754-29.663h4.665l5.715,29.663v0.078
		H25.481z M21.788,7.062L19.61,20.475h4.354L21.788,7.062z"/>
	<path fill="#231F20" d="M44.219,29.883H32.362V0.181h11.78c1.762,0,2.644,0.908,2.644,2.721v7.659c0,0.7-0.111,1.244-0.331,1.633
		c-0.221,0.389-0.59,0.738-1.108,1.05l-1.827,1.127l1.944,1.205c0.518,0.311,0.894,0.674,1.127,1.089
		c0.233,0.415,0.35,0.972,0.35,1.672v8.825C46.941,28.976,46.033,29.883,44.219,29.883z M42.353,3.952h-5.559v8.708h3.421
		l2.138-1.516V3.952z M42.47,17.636l-2.177-1.438h-3.499v9.914h5.676V17.636z"/>
	<path fill="#231F20" d="M64.085,29.183c-0.467,0.467-1.128,0.7-1.983,0.7h-8.942c-0.855,0-1.516-0.231-1.983-0.693
		c-0.467-0.462-0.7-1.129-0.7-2.001v-6.287h4.354v5.209h5.598v-8.981h-7.415c-0.859,0-1.515-0.233-1.971-0.7
		c-0.456-0.466-0.683-1.127-0.683-1.982V2.902c0-1.814,0.881-2.721,2.644-2.721h9.058c1.814,0,2.721,0.908,2.721,2.721v24.259
		C64.785,28.043,64.552,28.716,64.085,29.183z M60.43,3.952h-5.715v9.408h5.715V3.952z"/>
</g>
<polygon fill="#FFFFFF" stroke="#231F20" stroke-width="2" stroke-miterlimit="10" points="68.508,28.75 83.684,5.886 96.639,1.032 
	126.25,28.75 "/>
<circle fill="#EE781D" cx="111.856" cy="13.828" r="6.436"/>
</svg>
