<?xml version="1.0" encoding="utf-8"?>
<!-- Generator: Adobe Illustrator 17.0.0, SVG Export Plug-In . SVG Version: 6.00 Build 0)  -->
<!DOCTYPE svg PUBLIC "-//W3C//DTD SVG 1.1//EN" "http://www.w3.org/Graphics/SVG/1.1/DTD/svg11.dtd">
<svg version="1.1" id="Layer_3" xmlns="http://www.w3.org/2000/svg" xmlns:xlink="http://www.w3.org/1999/xlink" x="0px" y="0px"
	 width="245.988px" height="245.993px" viewBox="127.005 2.002 245.988 245.993"
	 enable-background="new 127.005 2.002 245.988 245.993" xml:space="preserve">
<g>
	<g>
		<path fill="#0AAA64" d="M254.07,140.405l53.378-30.815c2.51-1.449,5.602-1.449,8.111,0l53.378,30.815
			c2.51,1.449,4.056,4.127,4.056,7.025v61.634c0,2.898-1.546,5.576-4.056,7.025l-53.378,30.82c-2.51,1.449-5.603,1.449-8.113,0
			l-53.378-30.82c-2.51-1.449-4.056-4.127-4.056-7.025V147.43C250.014,144.533,251.56,141.855,254.07,140.405z"/>
		<path fill="#EE3045" d="M131.063,140.405l53.378-30.815c2.51-1.449,5.602-1.449,8.111,0l53.378,30.815
			c2.51,1.449,4.056,4.127,4.056,7.025v61.634c0,2.898-1.546,5.576-4.056,7.025l-53.378,30.82c-2.51,1.449-5.603,1.449-8.113,0
			l-53.378-30.82c-2.51-1.449-4.056-4.127-4.056-7.025V147.43C127.006,144.533,128.553,141.855,131.063,140.405z"/>
		<path fill="#1B459B" d="M192.553,33.904L245.93,3.089c2.51-1.449,5.602-1.449,8.111,0l53.378,30.815
			c2.51,1.449,4.056,4.127,4.056,7.025v61.634c0,2.898-1.546,5.576-4.056,7.025l-53.378,30.82c-2.51,1.449-5.603,1.449-8.113,0
			l-53.378-30.82c-2.51-1.449-4.056-4.127-4.056-7.025V40.929C188.496,38.031,190.043,35.353,192.553,33.904z"/>
		<path fill="#221E20" d="M192.554,104.911l53.378-30.815c2.51-1.449,5.602-1.449,8.111,0l53.378,30.815
			c2.51,1.449,4.056,4.127,4.056,7.025v61.634c0,2.898-1.546,5.576-4.056,7.025l-53.378,30.82c-2.51,1.449-5.603,1.449-8.113,0
			l-53.378-30.82c-2.51-1.449-4.056-4.127-4.056-7.025v-61.634C188.498,109.038,190.044,106.36,192.554,104.911z"/>
	</g>
	<g>
		<g>
			<path fill="#FFFFFF" d="M218.063,119.65v5.306c0,0.518,0.42,0.938,0.938,0.938h10.831c0.518,0,0.938,0.42,0.938,0.938v3.65
				c0,0.518-0.42,0.938-0.938,0.938h-10.831c-0.518,0-0.938,0.42-0.938,0.938v9.57c0,0.518-0.42,0.938-0.938,0.938h-4.261
				c-0.518,0-0.938-0.42-0.938-0.938v-27.89c0-0.518,0.42-0.938,0.938-0.938h19.274c0.518,0,0.938,0.42,0.938,0.938v3.737
				c0,0.518-0.42,0.938-0.938,0.938h-13.137C218.483,118.712,218.063,119.131,218.063,119.65z"/>
			<path fill="#FFFFFF" d="M262.36,135.35v6.577c0,0.518-0.42,0.938-0.938,0.938h-4.216c-0.518,0-0.938-0.42-0.938-0.938v-5.808
				l-0.566-1.349H244.3l-0.566,1.349v5.808c0,0.518-0.42,0.938-0.938,0.938h-4.26c-0.518,0-0.938-0.42-0.938-0.938v-6.577
				c0-0.124,0.025-0.247,0.073-0.362l8.912-21.313c0.146-0.349,0.487-0.576,0.865-0.576h5.061c0.378,0,0.719,0.227,0.865,0.576
				l8.912,21.313C262.336,135.103,262.36,135.226,262.36,135.35z M247.521,129.331h4.918c0.666,0,1.119-0.674,0.869-1.291
				l-3.219-7.935h-0.218l-3.219,7.935C246.402,128.657,246.855,129.331,247.521,129.331z"/>
			<path fill="#FFFFFF" d="M267.841,114.037c0-0.518,0.42-0.938,0.938-0.938h12.683c5.005,0,7.92,2.046,7.92,6.875v2.611
				c0,1.679-0.596,3.384-2.048,4.415c-0.479,0.34-0.479,1.1,0,1.44c1.452,1.031,2.048,2.736,2.048,4.414v3.135
				c0,4.829-2.915,6.875-7.92,6.875h-12.683c-0.518,0-0.938-0.42-0.938-0.938V114.037z M280.635,124.979
				c1.915,0,2.61-0.826,2.61-2.436v-1.48c0-1.61-0.652-2.351-2.61-2.351h-5.764c-0.518,0-0.938,0.42-0.938,0.938v4.391
				c0,0.518,0.42,0.938,0.938,0.938C274.871,124.979,280.635,124.979,280.635,124.979z M280.635,137.163
				c1.958,0,2.61-0.739,2.61-2.349v-1.959c0-1.61-0.696-2.349-2.61-2.349h-5.764c-0.518,0-0.938,0.42-0.938,0.938v4.781
				c0,0.518,0.42,0.938,0.938,0.938L280.635,137.163L280.635,137.163z"/>
		</g>
	</g>
	<g>
		<path fill="#FFFFFF" d="M222.343,149.927h-5.914c-3.594,0-5.197,1.484-5.197,4.81v13.443c0,3.326,1.603,4.809,5.197,4.809h5.914
			c3.594,0,5.197-1.483,5.197-4.809v-1.388l-2.962-0.907v1.973c0,1.75-0.36,2.332-2.493,2.332h-5.397
			c-2.133,0-2.494-0.582-2.494-2.332V155.06c0-1.803,0.344-2.364,2.494-2.364h5.397c2.149,0,2.493,0.561,2.493,2.364v1.834
			l2.962-0.86v-1.297C227.54,151.41,225.937,149.927,222.343,149.927z"/>
		<path fill="#FFFFFF" d="M241.28,169.73v-16.576c0-0.253,0.206-0.458,0.459-0.458h5.584v-2.769h-15.08v2.769h5.617
			c0.253,0,0.458,0.205,0.458,0.458v16.576c0,0.253-0.205,0.459-0.458,0.459h-6.005v2.8h15.856v-2.8h-5.972
			C241.486,170.189,241.28,169.983,241.28,169.73z"/>
		<path fill="#FFFFFF" d="M250.927,152.695h7.394c0.253,0,0.459,0.205,0.459,0.458v19.835h2.962v-19.835
			c0-0.253,0.206-0.458,0.459-0.458h7.362v-2.769h-18.635v2.769H250.927z"/>
		<path fill="#FFFFFF" d="M286.382,149.927v5.11c0,0.128-0.054,0.251-0.148,0.337l-5.201,4.791c-0.17,0.156-0.453,0.156-0.622,0
			l-5.202-4.791c-0.094-0.086-0.148-0.209-0.148-0.337v-5.11h-2.962v5.851c0,0.396,0.168,0.778,0.461,1.046l6.532,5.971
			c0.094,0.086,0.149,0.209,0.149,0.338v9.857h2.962v-9.858c0-0.128,0.054-0.252,0.148-0.338l6.503-5.971
			c0.291-0.268,0.458-0.648,0.458-1.044v-5.852L286.382,149.927L286.382,149.927z"/>
	</g>
</g>
</svg>
