<?xml version="1.0" encoding="utf-8"?>
<!-- Generator: Adobe Illustrator 17.0.0, SVG Export Plug-In . SVG Version: 6.00 Build 0)  -->
<!DOCTYPE svg PUBLIC "-//W3C//DTD SVG 1.1//EN" "http://www.w3.org/Graphics/SVG/1.1/DTD/svg11.dtd">
<svg version="1.1" id="Layer_3" xmlns="http://www.w3.org/2000/svg" xmlns:xlink="http://www.w3.org/1999/xlink" x="0px" y="0px"
	 width="529.969px" height="134.481px" viewBox="0 0 529.969 134.481" enable-background="new 0 0 529.969 134.481"
	 xml:space="preserve">
<g>
	<g>
		<path fill="#0AAA64" d="M67.751,73.797l28.461-16.43c1.338-0.773,2.987-0.773,4.325,0l28.461,16.43
			c1.338,0.773,2.163,2.201,2.163,3.746v32.864c0,1.545-0.824,2.973-2.163,3.746l-28.461,16.433c-1.338,0.773-2.987,0.773-4.326,0
			L67.75,114.152c-1.338-0.773-2.163-2.201-2.163-3.746V77.543C65.588,75.997,66.412,74.569,67.751,73.797z"/>
		<path fill="#EE3045" d="M2.163,73.797l28.461-16.43c1.338-0.773,2.987-0.773,4.325,0l28.461,16.43
			c1.338,0.773,2.163,2.201,2.163,3.746v32.864c0,1.545-0.824,2.973-2.163,3.746l-28.461,16.433c-1.338,0.773-2.987,0.773-4.326,0
			L2.163,114.152C0.824,113.379,0,111.951,0,110.406V77.543C0,75.997,0.824,74.569,2.163,73.797z"/>
		<path fill="#1B459B" d="M34.949,17.01l28.461-16.43c1.338-0.773,2.987-0.773,4.325,0l28.461,16.43
			c1.338,0.773,2.163,2.201,2.163,3.746v32.864c0,1.545-0.824,2.973-2.163,3.746L67.736,73.798c-1.338,0.773-2.987,0.773-4.326,0
			L34.949,57.365c-1.338-0.773-2.163-2.201-2.163-3.746V20.756C32.787,19.21,33.611,17.782,34.949,17.01z"/>
		<path fill="#221E20" d="M34.95,54.871l28.461-16.43c1.338-0.773,2.987-0.773,4.325,0l28.461,16.43
			c1.338,0.773,2.163,2.201,2.163,3.746V91.48c0,1.545-0.824,2.973-2.163,3.746L67.737,111.66c-1.338,0.773-2.987,0.773-4.326,0
			L34.95,95.226c-1.338-0.773-2.163-2.201-2.163-3.746V58.617C32.787,57.072,33.612,55.644,34.95,54.871z"/>
	</g>
	<g>
		<g>
			<path fill="#FFFFFF" d="M48.551,62.729v2.829c0,0.276,0.224,0.5,0.5,0.5h5.775c0.276,0,0.5,0.224,0.5,0.5v1.946
				c0,0.276-0.224,0.5-0.5,0.5h-5.775c-0.276,0-0.5,0.224-0.5,0.5v5.102c0,0.276-0.224,0.5-0.5,0.5h-2.272
				c-0.276,0-0.5-0.224-0.5-0.5V59.737c0-0.276,0.224-0.5,0.5-0.5h10.277c0.276,0,0.5,0.224,0.5,0.5v1.992
				c0,0.276-0.224,0.5-0.5,0.5h-7.005C48.775,62.229,48.551,62.453,48.551,62.729z"/>
			<path fill="#FFFFFF" d="M72.171,71.101v3.507c0,0.276-0.224,0.5-0.5,0.5h-2.248c-0.276,0-0.5-0.224-0.5-0.5v-3.097l-0.302-0.719
				h-6.08l-0.302,0.719v3.097c0,0.276-0.224,0.5-0.5,0.5h-2.271c-0.276,0-0.5-0.224-0.5-0.5v-3.507c0-0.066,0.013-0.132,0.039-0.193
				l4.752-11.364c0.078-0.186,0.26-0.307,0.461-0.307h2.698c0.202,0,0.384,0.121,0.461,0.307l4.752,11.364
				C72.158,70.969,72.171,71.035,72.171,71.101z M64.259,67.892h2.622c0.355,0,0.597-0.359,0.463-0.688l-1.716-4.231h-0.116
				l-1.716,4.231C63.662,67.532,63.904,67.892,64.259,67.892z"/>
			<path fill="#FFFFFF" d="M75.093,59.737c0-0.276,0.224-0.5,0.5-0.5h6.762c2.669,0,4.223,1.091,4.223,3.666v1.392
				c0,0.895-0.318,1.804-1.092,2.354c-0.256,0.182-0.255,0.587,0,0.768c0.774,0.55,1.092,1.459,1.092,2.354v1.671
				c0,2.575-1.554,3.666-4.223,3.666h-6.762c-0.276,0-0.5-0.224-0.5-0.5V59.737z M81.915,65.571c1.021,0,1.392-0.44,1.392-1.299
				v-0.789c0-0.858-0.348-1.254-1.392-1.254h-3.074c-0.276,0-0.5,0.224-0.5,0.5v2.341c0,0.276,0.224,0.5,0.5,0.5H81.915z
				 M81.915,72.068c1.044,0,1.392-0.394,1.392-1.252v-1.045c0-0.858-0.371-1.252-1.392-1.252h-3.074c-0.276,0-0.5,0.224-0.5,0.5
				v2.549c0,0.276,0.224,0.5,0.5,0.5H81.915z"/>
		</g>
	</g>
	<g>
		<path fill="#FFFFFF" d="M50.834,78.873H47.68c-1.916,0-2.771,0.791-2.771,2.565v7.168c0,1.774,0.855,2.564,2.771,2.564h3.153
			c1.916,0,2.771-0.791,2.771-2.564v-0.74l-1.58-0.484v1.052c0,0.933-0.192,1.243-1.329,1.243h-2.877c-1.138,0-1.33-0.31-1.33-1.243
			V81.61c0-0.961,0.183-1.261,1.33-1.261h2.877c1.146,0,1.329,0.299,1.329,1.261v0.978l1.58-0.459v-0.691
			C53.605,79.664,52.75,78.873,50.834,78.873z"/>
		<path fill="#FFFFFF" d="M60.931,89.432v-8.838c0-0.135,0.11-0.244,0.245-0.244h2.977v-1.476h-8.041v1.476h2.995
			c0.135,0,0.244,0.11,0.244,0.244v8.838c0,0.135-0.11,0.245-0.244,0.245h-3.202v1.493h8.454v-1.493h-3.184
			C61.041,89.677,60.931,89.567,60.931,89.432z"/>
		<path fill="#FFFFFF" d="M66.075,80.35h3.942c0.135,0,0.245,0.11,0.245,0.244V91.17h1.579V80.594c0-0.135,0.11-0.244,0.245-0.244
			h3.925v-1.476h-9.936V80.35z"/>
		<path fill="#FFFFFF" d="M84.98,78.873v2.724c0,0.068-0.029,0.134-0.079,0.18l-2.773,2.555c-0.091,0.083-0.241,0.083-0.331,0
			l-2.774-2.555c-0.05-0.046-0.079-0.112-0.079-0.18v-2.724h-1.58v3.12c0,0.211,0.09,0.415,0.246,0.558l3.483,3.184
			c0.05,0.046,0.079,0.111,0.079,0.18v5.256h1.579v-5.256c0-0.068,0.029-0.134,0.079-0.18l3.467-3.184
			c0.155-0.143,0.244-0.346,0.244-0.556v-3.12H84.98z"/>
	</g>
</g>
</svg>
