<?xml version="1.0" encoding="utf-8"?>
<!-- Generator: Adobe Illustrator 17.0.0, SVG Export Plug-In . SVG Version: 6.00 Build 0)  -->
<!DOCTYPE svg PUBLIC "-//W3C//DTD SVG 1.1//EN" "http://www.w3.org/Graphics/SVG/1.1/DTD/svg11.dtd">
<svg version="1.1" id="fabcity" xmlns="http://www.w3.org/2000/svg" xmlns:xlink="http://www.w3.org/1999/xlink" x="0px" y="0px"
	 width="39.999px" height="40px" viewBox="0 0 39.999 40" enable-background="new 0 0 39.999 40" xml:space="preserve">
<g>
	<g>
		<path fill="#0AAA64" d="M20.661,22.505l8.68-5.011c0.408-0.236,0.911-0.236,1.319,0l8.68,5.011c0.408,0.236,0.66,0.671,0.66,1.142
			v10.022c0,0.471-0.251,0.907-0.66,1.142l-8.68,5.011c-0.408,0.236-0.911,0.236-1.319,0l-8.68-5.011
			c-0.408-0.236-0.66-0.671-0.66-1.142V23.647C20.002,23.176,20.253,22.741,20.661,22.505z"/>
		<path fill="#EE3045" d="M0.66,22.505l8.68-5.011c0.408-0.236,0.911-0.236,1.319,0l8.68,5.011c0.408,0.236,0.66,0.671,0.66,1.142
			v10.022c0,0.471-0.251,0.907-0.66,1.142l-8.68,5.011c-0.408,0.236-0.911,0.236-1.319,0l-8.68-5.011
			C0.251,34.576,0,34.141,0,33.669V23.647C0,23.176,0.251,22.741,0.66,22.505z"/>
		<path fill="#1B459B" d="M10.658,5.187l8.68-5.011c0.408-0.236,0.911-0.236,1.319,0l8.68,5.011c0.408,0.236,0.66,0.671,0.66,1.142
			v10.022c0,0.471-0.251,0.907-0.66,1.142l-8.68,5.011c-0.408,0.236-0.911,0.236-1.319,0l-8.68-5.011
			c-0.408-0.236-0.66-0.671-0.66-1.142V6.33C9.999,5.858,10.25,5.423,10.658,5.187z"/>
		<path fill="#221E20" d="M10.658,16.733l8.68-5.011c0.408-0.236,0.911-0.236,1.319,0l8.68,5.011c0.408,0.236,0.66,0.671,0.66,1.142
			v10.022c0,0.471-0.251,0.907-0.66,1.142l-8.68,5.011c-0.408,0.236-0.911,0.236-1.319,0l-8.68-5.011
			c-0.408-0.236-0.659-0.671-0.659-1.142V17.876C9.999,17.405,10.25,16.969,10.658,16.733z"/>
	</g>
	<g>
		<g>
			<path fill="#FFFFFF" d="M14.806,19.13v0.863c0,0.084,0.068,0.153,0.153,0.153h1.761c0.084,0,0.153,0.068,0.153,0.153v0.593
				c0,0.084-0.068,0.153-0.153,0.153h-1.761c-0.084,0-0.153,0.068-0.153,0.153v1.556c0,0.084-0.068,0.153-0.153,0.153h-0.693
				c-0.084,0-0.153-0.068-0.153-0.153v-4.535c0-0.084,0.068-0.153,0.153-0.153h3.134c0.084,0,0.153,0.068,0.153,0.153v0.608
				c0,0.084-0.068,0.153-0.153,0.153h-2.136C14.875,18.977,14.806,19.046,14.806,19.13z"/>
			<path fill="#FFFFFF" d="M22.009,21.683v1.069c0,0.084-0.068,0.153-0.153,0.153h-0.686c-0.084,0-0.153-0.068-0.153-0.153v-0.944
				l-0.092-0.219h-1.854l-0.092,0.219v0.944c0,0.084-0.068,0.153-0.153,0.153h-0.693c-0.084,0-0.153-0.068-0.153-0.153v-1.069
				c0-0.02,0.004-0.04,0.012-0.059l1.449-3.466c0.024-0.057,0.079-0.094,0.141-0.094h0.823c0.062,0,0.117,0.037,0.141,0.094
				l1.449,3.466C22.005,21.643,22.009,21.663,22.009,21.683z M19.596,20.704h0.8c0.108,0,0.182-0.11,0.141-0.21l-0.523-1.29h-0.035
				l-0.523,1.29C19.414,20.595,19.488,20.704,19.596,20.704z"/>
			<path fill="#FFFFFF" d="M22.9,18.217c0-0.084,0.068-0.153,0.153-0.153h2.062c0.814,0,1.288,0.333,1.288,1.118v0.425
				c0,0.273-0.097,0.55-0.333,0.718c-0.078,0.055-0.078,0.179,0,0.234c0.236,0.168,0.333,0.445,0.333,0.718v0.51
				c0,0.785-0.474,1.118-1.288,1.118h-2.062c-0.084,0-0.153-0.068-0.153-0.153V18.217z M24.981,19.997
				c0.311,0,0.424-0.134,0.424-0.396V19.36c0-0.262-0.106-0.382-0.424-0.382h-0.937c-0.084,0-0.153,0.068-0.153,0.153v0.714
				c0,0.084,0.068,0.153,0.153,0.153H24.981z M24.981,21.978c0.318,0,0.424-0.12,0.424-0.382v-0.319
				c0-0.262-0.113-0.382-0.424-0.382h-0.937c-0.084,0-0.153,0.068-0.153,0.153v0.777c0,0.084,0.068,0.153,0.153,0.153H24.981z"/>
		</g>
	</g>
	<g>
		<path fill="#FFFFFF" d="M15.502,24.053h-0.962c-0.584,0-0.845,0.241-0.845,0.782v2.186c0,0.541,0.261,0.782,0.845,0.782h0.962
			c0.584,0,0.845-0.241,0.845-0.782v-0.226l-0.482-0.148v0.321c0,0.285-0.059,0.379-0.405,0.379h-0.878
			c-0.347,0-0.406-0.095-0.406-0.379v-2.081c0-0.293,0.056-0.384,0.406-0.384h0.878c0.35,0,0.405,0.091,0.405,0.384v0.298
			l0.482-0.14v-0.211C16.347,24.294,16.087,24.053,15.502,24.053z"/>
		<path fill="#FFFFFF" d="M18.581,27.273v-2.695c0-0.041,0.033-0.075,0.075-0.075h0.908v-0.45h-2.452v0.45h0.913
			c0.041,0,0.075,0.033,0.075,0.075v2.695c0,0.041-0.033,0.075-0.075,0.075h-0.976v0.455h2.578v-0.455h-0.971
			C18.615,27.348,18.581,27.314,18.581,27.273z"/>
		<path fill="#FFFFFF" d="M20.15,24.503h1.202c0.041,0,0.075,0.033,0.075,0.075v3.225h0.482v-3.225c0-0.041,0.033-0.075,0.075-0.075
			h1.197v-0.45h-3.03V24.503z"/>
		<path fill="#FFFFFF" d="M25.915,24.053v0.831c0,0.021-0.009,0.041-0.024,0.055l-0.846,0.779c-0.028,0.025-0.074,0.025-0.101,0
			l-0.846-0.779c-0.015-0.014-0.024-0.034-0.024-0.055v-0.831h-0.482v0.951c0,0.064,0.027,0.126,0.075,0.17l1.062,0.971
			c0.015,0.014,0.024,0.034,0.024,0.055v1.603h0.482V26.2c0-0.021,0.009-0.041,0.024-0.055l1.057-0.971
			c0.047-0.044,0.075-0.105,0.075-0.17v-0.952H25.915z"/>
	</g>
</g>
</svg>
