<?xml version="1.0" encoding="utf-8"?>
<!-- Generator: Adobe Illustrator 17.0.0, SVG Export Plug-In . SVG Version: 6.00 Build 0)  -->
<!DOCTYPE svg PUBLIC "-//W3C//DTD SVG 1.1//EN" "http://www.w3.org/Graphics/SVG/1.1/DTD/svg11.dtd">
<svg version="1.1" id="Layer_6_copy" xmlns="http://www.w3.org/2000/svg" xmlns:xlink="http://www.w3.org/1999/xlink" x="0px"
	 y="0px" width="500px" height="250px" viewBox="0 0 500 250" enable-background="new 0 0 500 250" xml:space="preserve">
<g>
	<path fill="#0AAA64" d="M67.919,151.223v-2.247c0-0.182-0.097-0.35-0.254-0.441l-4.615-2.69c-0.157-0.092-0.254-0.26-0.254-0.441
		v-6.025c0.193-0.077,0.389-0.164,0.573-0.271c3.033-1.719,3.418-6.756,0.863-11.237c-2.547-4.486-7.074-6.724-10.103-4.998
		c-3.032,1.717-3.42,6.752-0.861,11.236c0.364,0.642,0.769,1.238,1.201,1.779c0.07,0.088,0.109,0.196,0.109,0.309v3.83
		c0,0.394-0.427,0.64-0.768,0.442l-5.574-3.243c-0.157-0.092-0.254-0.26-0.254-0.442V114.46c0-0.183-0.097-0.351-0.255-0.442
		l-1.45-0.838c-0.256-0.148-0.589-0.051-0.72,0.214c-1.734,3.506-2.705,7.439-2.705,11.614
		C42.851,139.11,53.964,150.614,67.919,151.223"/>
	<path fill="#EE3045" d="M54.057,109.372c0.158-0.091,0.352-0.09,0.51,0.001l5.215,3.012c-0.031,0.209-0.044,0.422-0.044,0.637
		c-0.021,3.485,4.139,6.337,9.298,6.372c5.159,0.029,9.361-2.77,9.382-6.257c0.02-3.484-4.146-6.333-9.304-6.369
		c-0.735-0.005-1.452,0.05-2.138,0.157c-0.113,0.018-0.226-0.003-0.325-0.06l-3.315-1.916c-0.341-0.197-0.34-0.69,0.001-0.886
		l5.593-3.209c0.158-0.091,0.352-0.09,0.51,0.001l19.446,11.231c0.158,0.091,0.353,0.091,0.511,0l1.399-0.807
		c0.255-0.147,0.339-0.483,0.177-0.729c-2.174-3.302-5.115-6.14-8.771-8.247c-12.091-6.983-27.412-3.26-35.001,8.232
		c-0.162,0.246-0.08,0.582,0.175,0.729l1.43,0.826c0.158,0.091,0.352,0.091,0.51,0.001L54.057,109.372z"/>
	<path fill="#1B459B" d="M90.163,119.822c-0.001,0.182-0.098,0.349-0.255,0.44l-5.215,3.014c-0.164-0.135-0.335-0.256-0.524-0.364
		c-3.007-1.757-7.564,0.42-10.167,4.873c-2.605,4.453-2.284,9.49,0.724,11.25c3.007,1.761,7.558-0.418,10.165-4.875
		c0.373-0.631,0.687-1.277,0.936-1.923c0.041-0.106,0.115-0.194,0.214-0.251l3.322-1.913c0.341-0.197,0.768,0.051,0.766,0.445
		l-0.025,6.445c-0.001,0.182-0.098,0.35-0.255,0.441l-19.319,11.157c-0.158,0.091-0.255,0.26-0.255,0.443v1.677
		c0,0.296,0.25,0.536,0.545,0.517c3.899-0.253,7.784-1.376,11.395-3.459c12.059-6.967,16.503-22.029,10.412-34.334
		c-0.131-0.265-0.464-0.362-0.72-0.215l-1.467,0.846c-0.158,0.091-0.255,0.259-0.256,0.441L90.163,119.822z"/>
	<g>
		<g>
			<path fill="#231E20" d="M102.291,104.536h26.105v6.864h-17.941v8.58h15.548v6.345h-15.548v15.341h-8.165V104.536z"/>
			<path fill="#231E20" d="M139.264,104.536h8.373l13.884,37.13h-8.476l-2.809-8.269h-13.884l-2.912,8.269h-8.268L139.264,104.536z
				 M138.484,127.313h9.62l-4.68-13.625h-0.104L138.484,127.313z"/>
			<path fill="#231E20" d="M163.6,104.536h17.473c7.072,0,11.856,2.288,11.856,9.204c0,3.641-1.82,6.188-5.044,7.749
				c4.524,1.3,6.812,4.785,6.812,9.413c0,7.54-6.396,10.765-13.104,10.765H163.6V104.536z M171.765,119.564h8.268
				c2.86,0,4.992-1.3,4.992-4.42c0-3.536-2.704-4.264-5.616-4.264h-7.644V119.564z M171.765,135.321h8.736
				c3.224,0,6.032-1.04,6.032-4.888c0-3.797-2.392-5.305-5.876-5.305h-8.892V135.321z"/>
			<path fill="#C0BFBF" d="M199.533,104.536h25.637v4.16h-20.697v11.805h19.293v4.16h-19.293v12.845h20.854v4.16h-25.793V104.536z"
				/>
			<path fill="#C0BFBF" d="M256.89,115.717c-1.04-5.252-5.252-7.904-10.4-7.904c-8.841,0-12.585,7.28-12.585,15.028
				c0,8.477,3.744,15.549,12.637,15.549c6.5,0,10.244-4.576,10.713-10.713h4.939c-0.936,9.257-6.708,14.873-16.068,14.873
				c-11.544,0-17.16-8.528-17.16-19.345c0-10.765,6.136-19.553,17.576-19.553c7.748,0,14.145,4.16,15.289,12.064H256.89z"/>
			<path fill="#C0BFBF" d="M283.515,103.652c11.805,0,17.785,9.36,17.785,19.448c0,10.089-5.979,19.449-17.785,19.449
				c-11.805,0-17.784-9.36-17.784-19.449C265.731,113.013,271.71,103.652,283.515,103.652z M283.515,138.39
				c9.048,0,12.845-7.801,12.845-15.289s-3.797-15.288-12.845-15.288c-9.048,0-12.845,7.8-12.845,15.288
				S274.467,138.39,283.515,138.39z"/>
			<path fill="#C0BFBF" d="M306.761,104.536h5.252l19.553,30.109h0.104v-30.109h4.681v37.13h-5.408l-19.397-29.798h-0.104v29.798
				h-4.681V104.536z"/>
			<path fill="#C0BFBF" d="M359.542,103.652c11.805,0,17.785,9.36,17.785,19.448c0,10.089-5.98,19.449-17.785,19.449
				s-17.785-9.36-17.785-19.449C341.757,113.013,347.737,103.652,359.542,103.652z M359.542,138.39
				c9.049,0,12.845-7.801,12.845-15.289s-3.796-15.288-12.845-15.288s-12.845,7.8-12.845,15.288S350.493,138.39,359.542,138.39z"/>
			<path fill="#C0BFBF" d="M382.942,104.536h6.76l11.701,31.201l11.752-31.201h6.761v37.13h-4.681v-30.89h-0.104l-11.597,30.89
				h-4.212l-11.597-30.89h-0.104v30.89h-4.68V104.536z"/>
			<path fill="#C0BFBF" d="M442.952,126.481v15.185h-4.939v-15.185l-14.354-21.945h5.877l11.128,17.681l10.868-17.681h5.617
				L442.952,126.481z"/>
		</g>
	</g>
</g>
</svg>
