<?xml version="1.0" encoding="utf-8"?>
<!-- Generator: Adobe Illustrator 17.0.0, SVG Export Plug-In . SVG Version: 6.00 Build 0)  -->
<!DOCTYPE svg PUBLIC "-//W3C//DTD SVG 1.1//EN" "http://www.w3.org/Graphics/SVG/1.1/DTD/svg11.dtd">
<svg version="1.1" id="fabeconomy" xmlns="http://www.w3.org/2000/svg" xmlns:xlink="http://www.w3.org/1999/xlink" x="0px" y="0px"
	 width="157.993px" height="20px" viewBox="0 0 157.993 20" enable-background="new 0 0 157.993 20" xml:space="preserve">
<g>
	<g>
		<path fill="#0AAA64" d="M9.56,20v-0.857c0-0.069-0.037-0.133-0.097-0.168l-1.76-1.026c-0.06-0.035-0.097-0.099-0.097-0.168v-2.298
			c0.074-0.03,0.148-0.063,0.218-0.104c1.157-0.656,1.303-2.576,0.329-4.285C7.183,9.383,5.456,8.53,4.301,9.188
			c-1.156,0.655-1.304,2.575-0.328,4.285c0.139,0.245,0.293,0.472,0.458,0.678c0.027,0.034,0.041,0.075,0.041,0.118v1.461
			c0,0.15-0.163,0.244-0.293,0.168l-2.126-1.237c-0.06-0.035-0.097-0.099-0.097-0.168V5.981c0-0.07-0.037-0.134-0.097-0.169
			L1.306,5.492c-0.098-0.056-0.225-0.02-0.275,0.081C0.37,6.911,0,8.411,0,10.003C0,15.381,4.238,19.768,9.56,20"/>
		<path fill="#EE3045" d="M4.274,4.04c0.06-0.035,0.134-0.034,0.194,0l1.989,1.149C6.445,5.269,6.44,5.35,6.44,5.432
			c-0.008,1.329,1.578,2.416,3.546,2.43c1.967,0.011,3.57-1.056,3.578-2.386c0.008-1.329-1.581-2.415-3.548-2.429
			C9.735,3.045,9.462,3.066,9.2,3.107C9.157,3.114,9.114,3.106,9.076,3.084L7.812,2.353c-0.13-0.075-0.13-0.263,0.001-0.338
			l2.133-1.224c0.06-0.035,0.134-0.034,0.194,0l7.416,4.283c0.06,0.035,0.135,0.035,0.195,0l0.533-0.308
			c0.097-0.056,0.129-0.184,0.067-0.278c-0.829-1.259-1.951-2.341-3.345-3.145C10.396-1.319,4.553,0.101,1.659,4.484
			C1.597,4.577,1.628,4.706,1.726,4.762l0.545,0.315c0.06,0.035,0.134,0.035,0.194,0L4.274,4.04z"/>
		<path fill="#1B459B" d="M18.043,8.025c0,0.069-0.037,0.133-0.097,0.168l-1.989,1.149c-0.063-0.052-0.128-0.098-0.2-0.139
			c-1.147-0.67-2.884,0.16-3.877,1.858c-0.993,1.698-0.871,3.619,0.276,4.29c1.147,0.672,2.882-0.16,3.876-1.859
			c0.142-0.241,0.262-0.487,0.357-0.733c0.016-0.041,0.044-0.074,0.082-0.096l1.267-0.73c0.13-0.075,0.293,0.019,0.292,0.17
			l-0.009,2.458c0,0.069-0.037,0.133-0.097,0.168l-7.367,4.255c-0.06,0.035-0.097,0.099-0.097,0.169v0.64
			c0,0.113,0.095,0.204,0.208,0.197c1.487-0.096,2.969-0.525,4.345-1.319c4.599-2.657,6.293-8.401,3.971-13.093
			c-0.05-0.101-0.177-0.138-0.274-0.082l-0.559,0.323c-0.06,0.035-0.097,0.099-0.098,0.168L18.043,8.025z"/>
	</g>
	<g>
		<g>
			<path fill="#231E20" d="M22.667,2.92h9.955v2.618h-6.842V8.81h5.929v2.42h-5.929v5.85h-3.114V2.92z"/>
			<path fill="#231E20" d="M36.767,2.92h3.193l5.295,14.159h-3.232l-1.071-3.153h-5.295l-1.111,3.153h-3.153L36.767,2.92z
				 M36.47,11.606h3.669l-1.785-5.196h-0.04L36.47,11.606z"/>
			<path fill="#231E20" d="M46.048,2.92h6.663c2.697,0,4.521,0.873,4.521,3.51c0,1.388-0.694,2.36-1.924,2.955
				c1.725,0.496,2.598,1.824,2.598,3.589c0,2.875-2.439,4.105-4.997,4.105h-6.862V2.92z M49.161,8.651h3.153
				c1.091,0,1.904-0.496,1.904-1.686c0-1.349-1.031-1.626-2.142-1.626h-2.915V8.651z M49.161,14.66h3.332
				c1.23,0,2.3-0.397,2.3-1.864c0-1.448-0.912-2.023-2.241-2.023h-3.391V14.66z"/>
			<path fill="#C0BFBF" d="M59.751,2.92h9.777v1.586h-7.893v4.502h7.357v1.586h-7.357v4.898h7.952v1.586h-9.836V2.92z"/>
			<path fill="#C0BFBF" d="M81.624,7.184c-0.397-2.003-2.003-3.014-3.966-3.014c-3.371,0-4.799,2.776-4.799,5.731
				c0,3.233,1.428,5.93,4.819,5.93c2.479,0,3.907-1.745,4.085-4.085h1.884c-0.357,3.53-2.558,5.672-6.128,5.672
				c-4.402,0-6.544-3.252-6.544-7.377c0-4.105,2.34-7.456,6.703-7.456c2.955,0,5.394,1.586,5.83,4.601H81.624z"/>
			<path fill="#C0BFBF" d="M91.777,2.583c4.502,0,6.782,3.57,6.782,7.417c0,3.847-2.28,7.417-6.782,7.417
				c-4.502,0-6.782-3.57-6.782-7.417C84.995,6.153,87.276,2.583,91.777,2.583z M91.777,15.83c3.451,0,4.899-2.975,4.899-5.83
				s-1.448-5.83-4.899-5.83c-3.45,0-4.898,2.974-4.898,5.83S88.327,15.83,91.777,15.83z"/>
			<path fill="#C0BFBF" d="M100.642,2.92h2.003l7.456,11.482h0.04V2.92h1.785v14.159h-2.062l-7.397-11.363h-0.039v11.363h-1.785
				V2.92z"/>
			<path fill="#C0BFBF" d="M120.77,2.583c4.502,0,6.782,3.57,6.782,7.417c0,3.847-2.281,7.417-6.782,7.417
				c-4.502,0-6.782-3.57-6.782-7.417C113.988,6.153,116.268,2.583,120.77,2.583z M120.77,15.83c3.451,0,4.898-2.975,4.898-5.83
				s-1.448-5.83-4.898-5.83s-4.898,2.974-4.898,5.83S117.319,15.83,120.77,15.83z"/>
			<path fill="#C0BFBF" d="M129.694,2.92h2.578l4.462,11.899l4.482-11.899h2.578v14.159h-1.785V5.3h-0.039l-4.422,11.779h-1.606
				L131.518,5.3h-0.04v11.779h-1.785V2.92z"/>
			<path fill="#C0BFBF" d="M152.579,11.289v5.791h-1.884v-5.791l-5.474-8.368h2.241l4.244,6.743l4.145-6.743h2.142L152.579,11.289z"
				/>
		</g>
	</g>
</g>
</svg>
