<?xml version="1.0" encoding="utf-8"?>
<!-- Generator: Adobe Illustrator 17.0.0, SVG Export Plug-In . SVG Version: 6.00 Build 0)  -->
<!DOCTYPE svg PUBLIC "-//W3C//DTD SVG 1.1//EN" "http://www.w3.org/Graphics/SVG/1.1/DTD/svg11.dtd">
<svg version="1.1" id="fabfoundation" xmlns="http://www.w3.org/2000/svg" xmlns:xlink="http://www.w3.org/1999/xlink" x="0px"
	 y="0px" width="182.5px" height="20px" viewBox="0 0 182.5 20" enable-background="new 0 0 182.5 20" xml:space="preserve">
<g>
	<g>
		<path fill="#0AAA64" d="M9.881,20v-0.857c0-0.069-0.037-0.133-0.097-0.168l-1.76-1.026c-0.06-0.035-0.097-0.099-0.097-0.168
			v-2.298c0.074-0.03,0.148-0.063,0.218-0.104c1.157-0.656,1.303-2.576,0.329-4.285C7.504,9.383,5.777,8.53,4.622,9.188
			c-1.156,0.655-1.304,2.575-0.328,4.285c0.139,0.245,0.293,0.472,0.458,0.678c0.027,0.034,0.041,0.075,0.041,0.118v1.461
			c0,0.15-0.163,0.244-0.293,0.168l-2.126-1.237c-0.06-0.035-0.097-0.099-0.097-0.168V5.981c0-0.07-0.037-0.134-0.097-0.169
			L1.627,5.492C1.53,5.436,1.403,5.473,1.353,5.574c-0.661,1.337-1.032,2.837-1.032,4.429C0.321,15.381,4.559,19.768,9.881,20"/>
		<path fill="#EE3045" d="M4.595,4.04c0.06-0.035,0.134-0.034,0.194,0l1.989,1.149C6.766,5.269,6.761,5.35,6.761,5.432
			c-0.008,1.329,1.578,2.416,3.546,2.43c1.967,0.011,3.57-1.056,3.578-2.386c0.008-1.329-1.581-2.415-3.548-2.429
			c-0.28-0.002-0.554,0.019-0.815,0.06C9.478,3.114,9.435,3.106,9.397,3.084L8.133,2.353c-0.13-0.075-0.13-0.263,0.001-0.338
			l2.133-1.224c0.06-0.035,0.134-0.034,0.194,0l7.416,4.283c0.06,0.035,0.135,0.035,0.195,0l0.533-0.308
			c0.097-0.056,0.129-0.184,0.067-0.278c-0.829-1.259-1.951-2.341-3.345-3.145C10.717-1.319,4.874,0.101,1.98,4.484
			C1.918,4.577,1.95,4.706,2.047,4.762l0.545,0.315c0.06,0.035,0.134,0.035,0.194,0L4.595,4.04z"/>
		<path fill="#1B459B" d="M18.364,8.025c0,0.069-0.037,0.133-0.097,0.168l-1.989,1.149c-0.063-0.052-0.128-0.098-0.2-0.139
			c-1.147-0.67-2.884,0.16-3.877,1.858c-0.993,1.698-0.871,3.619,0.276,4.29c1.147,0.672,2.882-0.16,3.876-1.859
			c0.142-0.241,0.262-0.487,0.357-0.733c0.016-0.041,0.044-0.074,0.082-0.096l1.267-0.73c0.13-0.075,0.293,0.019,0.292,0.17
			l-0.009,2.458c0,0.069-0.037,0.133-0.097,0.168l-7.367,4.255c-0.06,0.035-0.097,0.099-0.097,0.169v0.64
			c0,0.113,0.095,0.204,0.208,0.197c1.487-0.096,2.969-0.525,4.345-1.319c4.599-2.657,6.293-8.401,3.971-13.093
			c-0.05-0.101-0.177-0.138-0.274-0.082l-0.559,0.323c-0.06,0.035-0.097,0.099-0.098,0.168L18.364,8.025z"/>
	</g>
	<g>
		<g>
			<path fill="#231E20" d="M22.989,2.92h9.956v2.618h-6.842V8.81h5.93v2.42h-5.93v5.851h-3.114V2.92z"/>
			<path fill="#231E20" d="M37.089,2.92h3.193l5.295,14.161h-3.233l-1.071-3.153h-5.295l-1.111,3.153h-3.153L37.089,2.92z
				 M36.791,11.606h3.669L38.676,6.41h-0.04L36.791,11.606z"/>
			<path fill="#231E20" d="M46.369,2.92h6.664c2.697,0,4.522,0.873,4.522,3.51c0,1.388-0.694,2.36-1.924,2.955
				c1.725,0.496,2.598,1.825,2.598,3.59c0,2.876-2.439,4.105-4.998,4.105h-6.862V2.92z M49.483,8.651h3.153
				c1.091,0,1.904-0.496,1.904-1.686c0-1.349-1.031-1.626-2.142-1.626h-2.915V8.651z M49.483,14.661h3.332
				c1.23,0,2.301-0.397,2.301-1.864c0-1.448-0.912-2.023-2.241-2.023h-3.391V14.661z"/>
			<path fill="#C0BFBF" d="M60.072,2.92h9.302v1.587h-7.417v4.502h6.505v1.587h-6.505v6.485h-1.884V2.92z"/>
			<path fill="#C0BFBF" d="M77.246,2.582c4.502,0,6.783,3.57,6.783,7.418c0,3.847-2.281,7.417-6.783,7.417
				c-4.502,0-6.783-3.57-6.783-7.417C70.463,6.152,72.744,2.582,77.246,2.582z M77.246,15.831c3.451,0,4.899-2.975,4.899-5.831
				c0-2.856-1.448-5.831-4.899-5.831c-3.451,0-4.899,2.975-4.899,5.831C72.347,12.856,73.795,15.831,77.246,15.831z"/>
			<path fill="#C0BFBF" d="M97.434,11.963c0,3.57-2.043,5.454-5.573,5.454c-3.649,0-5.811-1.686-5.811-5.454V2.92h1.884v9.044
				c0,2.499,1.428,3.867,3.927,3.867c2.38,0,3.689-1.368,3.689-3.867V2.92h1.884V11.963z"/>
			<path fill="#C0BFBF" d="M100.229,2.92h2.003l7.457,11.483h0.04V2.92h1.785V17.08h-2.063l-7.398-11.364h-0.04V17.08h-1.785V2.92z"
				/>
			<path fill="#C0BFBF" d="M114.368,2.92h4.859c4.363,0,6.803,2.182,6.803,6.743c0,4.74-2.083,7.417-6.803,7.417h-4.859V2.92z
				 M116.253,15.494h3.134c1.289,0,4.76-0.357,4.76-5.573c0-3.371-1.25-5.414-4.72-5.414h-3.173V15.494z"/>
			<path fill="#C0BFBF" d="M131.978,2.92h2.083l5.533,14.161h-2.082l-1.547-4.264h-5.989l-1.587,4.264h-1.943L131.978,2.92z
				 M130.57,11.23h4.8l-2.36-6.604h-0.04L130.57,11.23z"/>
			<path fill="#C0BFBF" d="M142.171,4.506h-4.72V2.92h11.325v1.587h-4.72V17.08h-1.884V4.506z"/>
			<path fill="#C0BFBF" d="M150.222,2.92h1.884V17.08h-1.884V2.92z"/>
			<path fill="#C0BFBF" d="M161.07,2.582c4.502,0,6.783,3.57,6.783,7.418c0,3.847-2.281,7.417-6.783,7.417
				c-4.502,0-6.783-3.57-6.783-7.417C154.287,6.152,156.568,2.582,161.07,2.582z M161.07,15.831c3.451,0,4.899-2.975,4.899-5.831
				c0-2.856-1.448-5.831-4.899-5.831c-3.451,0-4.899,2.975-4.899,5.831C156.171,12.856,157.619,15.831,161.07,15.831z"/>
			<path fill="#C0BFBF" d="M169.933,2.92h2.003l7.457,11.483h0.04V2.92h1.785V17.08h-2.063l-7.398-11.364h-0.04V17.08h-1.785V2.92z"
				/>
		</g>
	</g>
</g>
</svg>
