<?xml version="1.0" encoding="utf-8"?>
<!-- Generator: Adobe Illustrator 17.0.0, SVG Export Plug-In . SVG Version: 6.00 Build 0)  -->
<!DOCTYPE svg PUBLIC "-//W3C//DTD SVG 1.1//EN" "http://www.w3.org/Graphics/SVG/1.1/DTD/svg11.dtd">
<svg version="1.1" id="fabfoundation" xmlns="http://www.w3.org/2000/svg" xmlns:xlink="http://www.w3.org/1999/xlink" x="0px"
	 y="0px" width="529.969px" height="134.481px" viewBox="0 0 529.969 134.481" enable-background="new 0 0 529.969 134.481"
	 xml:space="preserve">
<g>
	<path fill="#0AAA64" d="M30.067,96.29V93.8c0-0.201-0.107-0.388-0.281-0.489l-5.112-2.98c-0.174-0.101-0.281-0.288-0.281-0.489
		v-6.674c0.214-0.086,0.431-0.182,0.634-0.301c3.36-1.904,3.787-7.484,0.956-12.449c-2.822-4.97-7.837-7.449-11.192-5.537
		c-3.359,1.903-3.788,7.48-0.954,12.447c0.404,0.711,0.852,1.371,1.33,1.971c0.078,0.098,0.12,0.217,0.12,0.342v4.243
		c0,0.437-0.473,0.709-0.851,0.489l-6.175-3.593C8.087,80.68,7.98,80.493,7.98,80.292V55.564c0-0.202-0.108-0.389-0.283-0.49
		L6.09,54.146c-0.284-0.164-0.653-0.057-0.798,0.237c-1.921,3.884-2.997,8.241-2.997,12.866
		C2.295,82.872,14.606,95.615,30.067,96.29"/>
	<path fill="#EE3045" d="M14.709,49.927c0.175-0.1,0.39-0.1,0.565,0.001l5.777,3.337c-0.034,0.231-0.049,0.468-0.049,0.706
		c-0.023,3.861,4.585,7.02,10.301,7.059c5.715,0.032,10.37-3.069,10.393-6.931c0.022-3.859-4.593-7.015-10.307-7.056
		c-0.814-0.005-1.608,0.055-2.369,0.174c-0.125,0.02-0.25-0.003-0.36-0.066l-3.672-2.123c-0.378-0.218-0.377-0.764,0.002-0.981
		l6.196-3.555c0.175-0.1,0.39-0.1,0.565,0.001l21.543,12.442c0.175,0.101,0.391,0.101,0.566,0l1.549-0.894
		c0.283-0.163,0.375-0.535,0.196-0.807c-2.409-3.658-5.666-6.801-9.717-9.136c-13.394-7.736-30.367-3.611-38.774,9.119
		c-0.18,0.272-0.089,0.645,0.194,0.808l1.584,0.915c0.175,0.101,0.39,0.101,0.565,0.001L14.709,49.927z"/>
	<path fill="#1B459B" d="M54.708,61.504c-0.001,0.201-0.108,0.387-0.283,0.488l-5.778,3.339c-0.182-0.15-0.371-0.284-0.58-0.404
		c-3.331-1.947-8.379,0.465-11.263,5.398c-2.886,4.933-2.53,10.513,0.802,12.463c3.331,1.951,8.373-0.464,11.261-5.401
		c0.413-0.699,0.761-1.415,1.036-2.131c0.045-0.118,0.128-0.215,0.237-0.278l3.68-2.12c0.378-0.218,0.85,0.056,0.849,0.493
		l-0.027,7.14c-0.001,0.201-0.109,0.387-0.283,0.488L32.958,93.34c-0.175,0.101-0.283,0.288-0.283,0.49v1.858
		c0,0.328,0.277,0.594,0.604,0.573c4.319-0.28,8.624-1.524,12.623-3.832c13.359-7.718,18.282-24.404,11.534-38.036
		c-0.145-0.293-0.514-0.401-0.797-0.238l-1.625,0.937c-0.175,0.101-0.282,0.287-0.283,0.488L54.708,61.504z"/>
	<g>
		<g>
			<path fill="#231E20" d="M68.144,44.567h28.922v7.605H77.19v9.506h17.226v7.029H77.19v16.996h-9.046V44.567z"/>
			<path fill="#231E20" d="M109.104,44.567h9.276l15.383,41.136h-9.391l-3.111-9.161h-15.383l-3.226,9.161h-9.161L109.104,44.567z
				 M108.24,69.801h10.658l-5.185-15.094h-0.115L108.24,69.801z"/>
			<path fill="#231E20" d="M136.063,44.567h19.358c7.835,0,13.136,2.535,13.136,10.198c0,4.033-2.017,6.856-5.588,8.584
				c5.012,1.44,7.547,5.3,7.547,10.428c0,8.354-7.087,11.926-14.519,11.926h-19.935V44.567z M145.108,61.217h9.16
				c3.169,0,5.531-1.44,5.531-4.897c0-3.918-2.996-4.724-6.222-4.724h-8.469V61.217z M145.108,78.674h9.679
				c3.572,0,6.683-1.152,6.683-5.416c0-4.206-2.65-5.876-6.51-5.876h-9.852V78.674z"/>
			<path fill="#C0BFBF" d="M175.87,44.567h27.021v4.609h-21.547v13.078h18.897v4.609h-18.897v18.84h-5.473V44.567z"/>
			<path fill="#C0BFBF" d="M225.759,43.587c13.078,0,19.704,10.371,19.704,21.548c0,11.177-6.626,21.547-19.704,21.547
				c-13.079,0-19.704-10.371-19.704-21.547C206.055,53.958,212.68,43.587,225.759,43.587z M225.759,82.073
				c10.024,0,14.23-8.642,14.23-16.938c0-8.297-4.206-16.939-14.23-16.939c-10.025,0-14.231,8.642-14.231,16.939
				C211.528,73.431,215.734,82.073,225.759,82.073z"/>
			<path fill="#C0BFBF" d="M284.405,70.838c0,10.371-5.934,15.844-16.189,15.844c-10.601,0-16.881-4.897-16.881-15.844V44.567h5.473
				v26.272c0,7.26,4.148,11.235,11.408,11.235c6.913,0,10.716-3.975,10.716-11.235V44.567h5.473V70.838z"/>
			<path fill="#C0BFBF" d="M292.523,44.567h5.819l21.663,33.358h0.115V44.567h5.186v41.136h-5.992l-21.49-33.012h-0.115v33.012
				h-5.186V44.567z"/>
			<path fill="#C0BFBF" d="M333.598,44.567h14.115c12.675,0,19.762,6.338,19.762,19.589c0,13.77-6.05,21.547-19.762,21.547h-14.115
				V44.567z M339.071,81.094h9.103c3.745,0,13.827-1.037,13.827-16.19c0-9.794-3.63-15.728-13.712-15.728h-9.218V81.094z"/>
			<path fill="#C0BFBF" d="M384.753,44.567h6.05l16.074,41.136h-6.049l-4.494-12.387h-17.399l-4.61,12.387h-5.645L384.753,44.567z
				 M380.663,68.707h13.942l-6.856-19.185h-0.116L380.663,68.707z"/>
			<path fill="#C0BFBF" d="M414.364,49.176h-13.712v-4.609h32.897v4.609h-13.712v36.527h-5.473V49.176z"/>
			<path fill="#C0BFBF" d="M437.752,44.567h5.473v41.136h-5.473V44.567z"/>
			<path fill="#C0BFBF" d="M469.262,43.587c13.079,0,19.705,10.371,19.705,21.548c0,11.177-6.626,21.547-19.705,21.547
				c-13.078,0-19.704-10.371-19.704-21.547C449.559,53.958,456.185,43.587,469.262,43.587z M469.262,82.073
				c10.025,0,14.231-8.642,14.231-16.938c0-8.297-4.206-16.939-14.231-16.939c-10.024,0-14.23,8.642-14.23,16.939
				C455.032,73.431,459.238,82.073,469.262,82.073z"/>
			<path fill="#C0BFBF" d="M495.011,44.567h5.819l21.663,33.358h0.115V44.567h5.186v41.136h-5.992l-21.49-33.012h-0.115v33.012
				h-5.186V44.567z"/>
		</g>
	</g>
</g>
</svg>
