<?xml version="1.0" encoding="utf-8"?>
<!-- Generator: Adobe Illustrator 17.0.0, SVG Export Plug-In . SVG Version: 6.00 Build 0)  -->
<!DOCTYPE svg PUBLIC "-//W3C//DTD SVG 1.1//EN" "http://www.w3.org/Graphics/SVG/1.1/DTD/svg11.dtd">
<svg version="1.1" id="Layer_2" xmlns="http://www.w3.org/2000/svg" xmlns:xlink="http://www.w3.org/1999/xlink" x="0px" y="0px"
	 width="500px" height="250px" viewBox="0 0 500 250" enable-background="new 0 0 500 250" xml:space="preserve">
<g>
	<path fill="#0AAA64" d="M27.318,152.529v-2.359c0-0.191-0.101-0.367-0.266-0.463l-4.845-2.824
		c-0.165-0.096-0.266-0.273-0.266-0.463v-6.325c0.203-0.081,0.408-0.172,0.601-0.285c3.184-1.805,3.588-7.093,0.906-11.797
		c-2.674-4.71-7.427-7.059-10.607-5.247c-3.183,1.803-3.59,7.089-0.904,11.796c0.383,0.674,0.807,1.299,1.261,1.868
		c0.074,0.093,0.114,0.205,0.114,0.324v4.021c0,0.414-0.449,0.672-0.806,0.464l-5.851-3.405c-0.165-0.096-0.267-0.273-0.267-0.464
		v-23.434c0-0.192-0.102-0.369-0.268-0.465l-1.523-0.88c-0.269-0.155-0.619-0.054-0.756,0.224C2.019,116.496,1,120.625,1,125.008
		C1,139.814,12.667,151.89,27.318,152.529"/>
	<path fill="#EE3045" d="M12.765,108.593c0.166-0.095,0.37-0.095,0.535,0.001l5.475,3.162c-0.032,0.219-0.047,0.443-0.047,0.669
		c-0.022,3.659,4.345,6.652,9.762,6.689c5.416,0.03,9.827-2.908,9.849-6.569c0.021-3.657-4.353-6.648-9.767-6.687
		c-0.771-0.005-1.524,0.052-2.245,0.165c-0.118,0.019-0.237-0.003-0.341-0.063l-3.48-2.012c-0.358-0.207-0.357-0.724,0.002-0.93
		l5.872-3.369c0.166-0.095,0.37-0.095,0.535,0.001l20.415,11.791c0.166,0.096,0.37,0.096,0.536,0l1.468-0.848
		c0.268-0.155,0.356-0.507,0.185-0.765c-2.283-3.466-5.37-6.446-9.209-8.658c-12.693-7.331-28.778-3.422-36.745,8.642
		c-0.17,0.258-0.084,0.611,0.184,0.766l1.501,0.867c0.166,0.096,0.369,0.096,0.535,0.001L12.765,108.593z"/>
	<path fill="#1B459B" d="M50.67,119.564c-0.001,0.191-0.103,0.367-0.268,0.462l-5.475,3.164c-0.172-0.142-0.352-0.269-0.55-0.382
		c-3.156-1.845-7.941,0.441-10.674,5.116c-2.735,4.675-2.397,9.963,0.76,11.811c3.156,1.849,7.935-0.439,10.672-5.118
		c0.392-0.662,0.721-1.341,0.982-2.019c0.043-0.112,0.121-0.204,0.225-0.264l3.488-2.009c0.358-0.206,0.806,0.053,0.804,0.467
		l-0.026,6.766c-0.001,0.191-0.103,0.367-0.268,0.463l-20.281,11.713c-0.166,0.096-0.268,0.273-0.268,0.465v1.761
		c0,0.31,0.263,0.563,0.573,0.543c4.093-0.265,8.172-1.445,11.962-3.631c12.66-7.314,17.326-23.127,10.931-36.045
		c-0.138-0.278-0.487-0.38-0.756-0.226l-1.54,0.888c-0.165,0.095-0.268,0.272-0.268,0.463L50.67,119.564z"/>
	<g>
		<g>
			<path fill="#231E20" d="M63.403,103.513h27.409v7.207H71.975v9.009H88.3v6.661H71.975v16.107h-8.572V103.513z"/>
			<path fill="#231E20" d="M102.22,103.513h8.791l14.578,38.984h-8.9l-2.948-8.681H99.162l-3.058,8.681h-8.681L102.22,103.513z
				 M101.401,127.427h10.101l-4.914-14.305h-0.109L101.401,127.427z"/>
			<path fill="#231E20" d="M127.768,103.513h18.345c7.425,0,12.448,2.403,12.448,9.664c0,3.822-1.911,6.497-5.296,8.135
				c4.75,1.365,7.152,5.023,7.152,9.882c0,7.917-6.716,11.302-13.759,11.302h-18.891V103.513z M136.34,119.292h8.681
				c3.003,0,5.241-1.365,5.241-4.641c0-3.713-2.839-4.477-5.897-4.477h-8.026V119.292z M136.34,135.835h9.172
				c3.385,0,6.333-1.092,6.333-5.132c0-3.985-2.511-5.569-6.169-5.569h-9.336V135.835z"/>
			<path fill="#C0BFBF" d="M165.492,103.513h25.607v4.368h-20.42v12.394h17.908v4.368h-17.908v17.854h-5.187V103.513z"/>
			<path fill="#C0BFBF" d="M212.77,102.584c12.394,0,18.673,9.828,18.673,20.42c0,10.592-6.279,20.42-18.673,20.42
				c-12.394,0-18.673-9.828-18.673-20.42C194.098,112.412,200.376,102.584,212.77,102.584z M212.77,139.056
				c9.5,0,13.486-8.19,13.486-16.052c0-7.862-3.986-16.052-13.486-16.052c-9.501,0-13.486,8.19-13.486,16.052
				C199.284,130.867,203.27,139.056,212.77,139.056z"/>
			<path fill="#C0BFBF" d="M268.348,128.41c0,9.828-5.624,15.015-15.342,15.015c-10.046,0-15.998-4.641-15.998-15.015v-24.897h5.187
				v24.897c0,6.88,3.931,10.647,10.811,10.647c6.551,0,10.155-3.767,10.155-10.647v-24.897h5.187V128.41z"/>
			<path fill="#C0BFBF" d="M276.041,103.513h5.515l20.529,31.613h0.109v-31.613h4.914v38.984h-5.679l-20.365-31.285h-0.109v31.285
				h-4.914V103.513z"/>
			<path fill="#C0BFBF" d="M314.966,103.513h13.377c12.012,0,18.728,6.006,18.728,18.564c0,13.049-5.733,20.42-18.728,20.42h-13.377
				V103.513z M320.153,138.129h8.626c3.549,0,13.104-0.983,13.104-15.343c0-9.281-3.44-14.905-12.995-14.905h-8.735V138.129z"/>
			<path fill="#C0BFBF" d="M363.445,103.513h5.733l15.232,38.984h-5.733l-4.259-11.739h-16.488l-4.368,11.739h-5.35L363.445,103.513
				z M359.569,126.39h13.213l-6.497-18.182h-0.11L359.569,126.39z"/>
			<path fill="#C0BFBF" d="M391.506,107.881h-12.995v-4.368h31.176v4.368h-12.994v34.615h-5.187V107.881z"/>
			<path fill="#C0BFBF" d="M413.67,103.513h5.186v38.984h-5.186V103.513z"/>
			<path fill="#C0BFBF" d="M443.532,102.584c12.394,0,18.673,9.828,18.673,20.42c0,10.592-6.279,20.42-18.673,20.42
				c-12.394,0-18.673-9.828-18.673-20.42C424.859,112.412,431.138,102.584,443.532,102.584z M443.532,139.056
				c9.501,0,13.487-8.19,13.487-16.052c0-7.862-3.986-16.052-13.487-16.052c-9.5,0-13.486,8.19-13.486,16.052
				C430.046,130.867,434.032,139.056,443.532,139.056z"/>
			<path fill="#C0BFBF" d="M467.933,103.513h5.515l20.529,31.613h0.109v-31.613H499v38.984h-5.679l-20.365-31.285h-0.109v31.285
				h-4.914V103.513z"/>
		</g>
	</g>
</g>
</svg>
