<?xml version="1.0" encoding="utf-8"?>
<!-- Generator: Adobe Illustrator 17.0.0, SVG Export Plug-In . SVG Version: 6.00 Build 0)  -->
<!DOCTYPE svg PUBLIC "-//W3C//DTD SVG 1.1//EN" "http://www.w3.org/Graphics/SVG/1.1/DTD/svg11.dtd">
<svg version="1.1" id="Layer_6" xmlns="http://www.w3.org/2000/svg" xmlns:xlink="http://www.w3.org/1999/xlink" x="0px" y="0px"
	 width="500px" height="250px" viewBox="0 0 500 250" enable-background="new 0 0 500 250" xml:space="preserve">
<g>
	<path fill="#0AAA64" d="M56.454,151.223v-2.247c0-0.182-0.097-0.35-0.254-0.441l-4.615-2.69c-0.157-0.092-0.254-0.26-0.254-0.441
		v-6.025c0.193-0.077,0.389-0.164,0.573-0.271c3.033-1.719,3.418-6.756,0.863-11.237c-2.547-4.486-7.074-6.724-10.103-4.998
		c-3.032,1.717-3.42,6.752-0.861,11.236c0.364,0.642,0.769,1.238,1.201,1.779c0.07,0.088,0.109,0.196,0.109,0.309v3.83
		c0,0.394-0.427,0.64-0.768,0.442l-5.574-3.243c-0.157-0.092-0.254-0.26-0.254-0.442V114.46c0-0.183-0.097-0.351-0.255-0.442
		l-1.45-0.838c-0.256-0.148-0.589-0.051-0.72,0.214c-1.734,3.506-2.705,7.439-2.705,11.614
		C31.385,139.11,42.498,150.614,56.454,151.223"/>
	<path fill="#EE3045" d="M42.591,109.372c0.158-0.091,0.352-0.09,0.51,0.001l5.215,3.012c-0.031,0.209-0.044,0.422-0.044,0.637
		c-0.021,3.485,4.139,6.337,9.298,6.372c5.159,0.029,9.361-2.77,9.382-6.257c0.02-3.484-4.146-6.333-9.304-6.369
		c-0.735-0.005-1.452,0.05-2.138,0.157c-0.113,0.018-0.226-0.003-0.325-0.06l-3.315-1.916c-0.341-0.197-0.34-0.69,0.001-0.886
		l5.593-3.209c0.158-0.091,0.352-0.09,0.51,0.001l19.446,11.231c0.158,0.091,0.353,0.091,0.511,0l1.399-0.807
		c0.255-0.147,0.339-0.483,0.177-0.729c-2.174-3.302-5.115-6.14-8.771-8.247c-12.091-6.983-27.412-3.26-35.001,8.232
		c-0.162,0.246-0.08,0.582,0.175,0.729l1.43,0.826c0.158,0.091,0.352,0.091,0.51,0.001L42.591,109.372z"/>
	<path fill="#1B459B" d="M78.697,119.822c-0.001,0.182-0.098,0.349-0.255,0.44l-5.215,3.014c-0.164-0.135-0.335-0.256-0.524-0.364
		c-3.007-1.757-7.564,0.42-10.167,4.873c-2.605,4.453-2.284,9.49,0.724,11.25c3.007,1.761,7.558-0.418,10.165-4.875
		c0.373-0.631,0.687-1.277,0.936-1.923c0.041-0.106,0.115-0.194,0.214-0.251l3.322-1.913c0.341-0.197,0.768,0.051,0.766,0.445
		l-0.025,6.445c-0.001,0.182-0.098,0.35-0.255,0.441l-19.319,11.157c-0.158,0.091-0.255,0.26-0.255,0.443v1.677
		c0,0.296,0.25,0.536,0.545,0.517c3.899-0.253,7.784-1.376,11.395-3.459c12.059-6.967,16.503-22.029,10.412-34.334
		c-0.131-0.265-0.464-0.362-0.72-0.215l-1.467,0.846c-0.158,0.091-0.255,0.259-0.256,0.441L78.697,119.822z"/>
	<g>
		<g>
			<path fill="#231E20" d="M90.825,104.536h26.105v6.864H98.989v8.58h15.548v6.345H98.989v15.34h-8.165V104.536z"/>
			<path fill="#231E20" d="M127.798,104.536h8.373l13.884,37.129h-8.476l-2.809-8.268h-13.884l-2.912,8.268h-8.268L127.798,104.536z
				 M127.018,127.313h9.62l-4.68-13.624h-0.104L127.018,127.313z"/>
			<path fill="#231E20" d="M152.134,104.536h17.473c7.072,0,11.856,2.288,11.856,9.204c0,3.641-1.82,6.188-5.044,7.749
				c4.524,1.3,6.812,4.784,6.812,9.413c0,7.54-6.396,10.764-13.104,10.764h-17.993V104.536z M160.299,119.565h8.268
				c2.86,0,4.992-1.3,4.992-4.42c0-3.536-2.704-4.264-5.616-4.264h-7.644V119.565z M160.299,135.322h8.736
				c3.224,0,6.032-1.04,6.032-4.889c0-3.796-2.392-5.304-5.876-5.304h-8.892V135.322z"/>
			<path fill="#C0BFBF" d="M188.275,104.536h4.94v37.129h-4.94V104.536z"/>
			<path fill="#C0BFBF" d="M200.963,104.536h5.252l19.553,30.109h0.104v-30.109h4.68v37.129h-5.408l-19.396-29.797h-0.104v29.797
				h-4.68V104.536z"/>
			<path fill="#C0BFBF" d="M252.653,141.665h-5.616l-13.104-37.129h5.356l10.607,32.189H250l10.712-32.189h5.148L252.653,141.665z"
				/>
			<path fill="#C0BFBF" d="M269.292,104.536h25.638v4.16h-20.698v11.805h19.293v4.16h-19.293v12.844h20.853v4.16h-25.793V104.536z"
				/>
			<path fill="#C0BFBF" d="M300.493,104.536h5.253l19.553,30.109h0.104v-30.109h4.68v37.129h-5.408l-19.396-29.797h-0.104v29.797
				h-4.681V104.536z"/>
			<path fill="#C0BFBF" d="M345.995,108.697h-12.376v-4.16h29.692v4.16h-12.376v32.969h-4.94V108.697z"/>
			<path fill="#C0BFBF" d="M382.604,103.653c11.805,0,17.785,9.36,17.785,19.448c0,10.089-5.98,19.449-17.785,19.449
				s-17.785-9.36-17.785-19.449C364.818,113.013,370.799,103.653,382.604,103.653z M382.604,138.39
				c9.049,0,12.845-7.801,12.845-15.289s-3.796-15.288-12.845-15.288s-12.845,7.8-12.845,15.288S373.555,138.39,382.604,138.39z"/>
			<path fill="#C0BFBF" d="M405.9,104.536h17.473c6.969,0,11.285,3.796,11.285,9.725c0,4.472-1.977,8.164-6.448,9.412v0.104
				c4.315,0.832,5.2,4.004,5.563,7.644c0.312,3.641,0.104,7.696,2.185,10.244h-5.513c-1.403-1.508-0.623-5.512-1.352-9.152
				c-0.52-3.64-1.404-6.708-6.188-6.708h-12.064v15.86h-4.94V104.536z M421.138,121.645c4.628,0,8.58-1.196,8.58-6.604
				c0-3.64-1.976-6.344-6.604-6.344h-12.272v12.948H421.138z"/>
			<path fill="#C0BFBF" d="M454.418,126.481v15.185h-4.939v-15.185l-14.354-21.944h5.877l11.128,17.681l10.868-17.681h5.617
				L454.418,126.481z"/>
		</g>
	</g>
</g>
</svg>
