<?xml version="1.0" encoding="utf-8"?>
<!-- Generator: Adobe Illustrator 17.0.0, SVG Export Plug-In . SVG Version: 6.00 Build 0)  -->
<!DOCTYPE svg PUBLIC "-//W3C//DTD SVG 1.1//EN" "http://www.w3.org/Graphics/SVG/1.1/DTD/svg11.dtd">
<svg version="1.1" id="Layer_1" xmlns="http://www.w3.org/2000/svg" xmlns:xlink="http://www.w3.org/1999/xlink" x="0px" y="0px"
	 width="164.152px" height="29.461px" viewBox="0 0 164.152 29.461" enable-background="new 0 0 164.152 29.461"
	 xml:space="preserve">
<rect x="36.743" y="5.23" fill="none" width="134.41" height="22.824"/>
<text transform="matrix(1 0 0 1 36.7428 23.7933)"><tspan x="0" y="0" font-family="'HelveticaNeueLTStd-Bd'" font-size="26">Fablab.</tspan><tspan x="90.973" y="0" font-family="'HelveticaNeueLTStd-Lt'" font-size="26">org</tspan></text>
<path fill="#0AAA64" d="M13.41,28.054v-1.202c0-0.097-0.052-0.187-0.136-0.236l-2.469-1.439c-0.084-0.049-0.136-0.139-0.136-0.236
	v-3.223c0.103-0.041,0.208-0.088,0.306-0.145c1.623-0.919,1.828-3.614,0.461-6.011c-1.362-2.4-3.784-3.597-5.404-2.674
	c-1.622,0.919-1.829,3.612-0.461,6.01c0.195,0.343,0.411,0.662,0.642,0.952c0.038,0.047,0.058,0.105,0.058,0.165v2.049
	c0,0.211-0.229,0.342-0.411,0.236l-2.981-1.735c-0.084-0.049-0.136-0.139-0.136-0.236V8.389c0-0.098-0.052-0.188-0.137-0.237
	L1.832,7.704C1.695,7.625,1.517,7.677,1.447,7.819C0.519,9.694,0,11.798,0,14.031C0,21.575,5.945,27.728,13.41,28.054"/>
<path fill="#EE3045" d="M5.994,5.667c0.084-0.048,0.188-0.048,0.273,0l2.79,1.611C9.04,7.391,9.033,7.505,9.033,7.62
	c-0.011,1.864,2.214,3.39,4.974,3.408c2.76,0.016,5.007-1.482,5.018-3.347c0.011-1.864-2.218-3.387-4.977-3.407
	c-0.393-0.003-0.777,0.027-1.144,0.084c-0.06,0.009-0.121-0.002-0.174-0.032l-1.773-1.025c-0.182-0.105-0.182-0.369,0.001-0.474
	l2.992-1.717c0.084-0.048,0.188-0.048,0.273,0l10.402,6.008c0.085,0.049,0.189,0.049,0.273,0l0.748-0.432
	c0.136-0.079,0.181-0.258,0.095-0.39c-1.163-1.766-2.736-3.284-4.692-4.411C14.582-1.85,6.386,0.142,2.327,6.289
	C2.24,6.421,2.284,6.601,2.421,6.679l0.765,0.442c0.084,0.049,0.188,0.049,0.273,0L5.994,5.667z"/>
<path fill="#1B459B" d="M25.308,11.257c0,0.097-0.052,0.187-0.137,0.236l-2.79,1.612c-0.088-0.072-0.179-0.137-0.28-0.195
	c-1.608-0.94-4.046,0.225-5.439,2.607c-1.393,2.382-1.222,5.076,0.387,6.018c1.608,0.942,4.043-0.224,5.437-2.608
	c0.2-0.337,0.367-0.683,0.5-1.029c0.022-0.057,0.062-0.104,0.115-0.134l1.777-1.023c0.183-0.105,0.411,0.027,0.41,0.238
	l-0.013,3.448c0,0.097-0.052,0.187-0.137,0.236l-10.334,5.968c-0.085,0.049-0.137,0.139-0.137,0.237v0.897
	c0,0.158,0.134,0.287,0.292,0.277c2.086-0.135,4.164-0.736,6.095-1.85c6.451-3.727,8.828-11.784,5.569-18.366
	c-0.07-0.142-0.248-0.194-0.385-0.115l-0.785,0.452C25.372,8.21,25.32,8.3,25.319,8.397L25.308,11.257z"/>
</svg>
