<?xml version="1.0" encoding="utf-8"?>
<!-- Generator: Adobe Illustrator 17.0.0, SVG Export Plug-In . SVG Version: 6.00 Build 0)  -->
<!DOCTYPE svg PUBLIC "-//W3C//DTD SVG 1.1//EN" "http://www.w3.org/Graphics/SVG/1.1/DTD/svg11.dtd">
<svg version="1.1" id="Layer_1" xmlns="http://www.w3.org/2000/svg" xmlns:xlink="http://www.w3.org/1999/xlink" x="0px" y="0px"
	 width="164.152px" height="29.461px" viewBox="0 0 164.152 29.461" enable-background="new 0 0 164.152 29.461"
	 xml:space="preserve">
<g enable-background="new    ">
	<path d="M38.537,5.229H51.59v3.432h-8.971v4.29h7.774v3.172h-7.774v7.67h-4.082V5.229z"/>
	<path d="M53.409,14.485c0.208-3.458,3.302-4.498,6.318-4.498c2.678,0,5.902,0.598,5.902,3.822v6.994c0,1.223,0.13,2.444,0.468,2.99
		h-3.744c-0.13-0.416-0.234-0.858-0.26-1.3c-1.17,1.222-2.886,1.664-4.524,1.664c-2.548,0-4.576-1.274-4.576-4.03
		c0-3.042,2.288-3.771,4.576-4.082c2.262-0.338,4.368-0.26,4.368-1.768c0-1.586-1.092-1.819-2.392-1.819
		c-1.404,0-2.314,0.571-2.444,2.027H53.409z M61.937,17.215c-0.624,0.546-1.924,0.572-3.068,0.78
		c-1.145,0.233-2.185,0.624-2.185,1.976c0,1.378,1.066,1.716,2.262,1.716c2.886,0,2.99-2.288,2.99-3.094V17.215z"/>
	<path d="M68.488,5.229h3.692v6.76h0.052c0.91-1.378,2.574-2.002,4.238-2.002c2.678,0,5.564,2.158,5.564,7.072
		c0,4.94-2.886,7.099-5.564,7.099c-1.976,0-3.614-0.599-4.42-2.08h-0.052v1.716h-3.51V5.229z M75.197,12.769
		c-2.184,0-3.146,2.054-3.146,4.316c0,2.235,0.962,4.29,3.146,4.29s3.146-2.055,3.146-4.29
		C78.343,14.823,77.381,12.769,75.197,12.769z"/>
	<path d="M84.478,5.229h3.691v18.564h-3.691V5.229z"/>
	<path d="M90.926,14.485c0.208-3.458,3.303-4.498,6.318-4.498c2.679,0,5.902,0.598,5.902,3.822v6.994c0,1.223,0.13,2.444,0.468,2.99
		H99.87c-0.13-0.416-0.233-0.858-0.26-1.3c-1.17,1.222-2.886,1.664-4.524,1.664c-2.548,0-4.576-1.274-4.576-4.03
		c0-3.042,2.288-3.771,4.576-4.082c2.263-0.338,4.368-0.26,4.368-1.768c0-1.586-1.092-1.819-2.392-1.819
		c-1.404,0-2.314,0.571-2.444,2.027H90.926z M99.454,17.215c-0.624,0.546-1.924,0.572-3.067,0.78
		c-1.145,0.233-2.185,0.624-2.185,1.976c0,1.378,1.066,1.716,2.262,1.716c2.887,0,2.99-2.288,2.99-3.094V17.215z"/>
	<path d="M106.006,5.229h3.692v6.76h0.052c0.91-1.378,2.574-2.002,4.238-2.002c2.678,0,5.564,2.158,5.564,7.072
		c0,4.94-2.887,7.099-5.564,7.099c-1.977,0-3.614-0.599-4.42-2.08h-0.053v1.716h-3.51V5.229z M112.714,12.769
		c-2.184,0-3.146,2.054-3.146,4.316c0,2.235,0.962,4.29,3.146,4.29c2.185,0,3.146-2.055,3.146-4.29
		C115.86,14.823,114.898,12.769,112.714,12.769z"/>
	<path d="M122.048,19.789h4.082v4.004h-4.082V19.789z"/>
</g>
<g enable-background="new    ">
	<path d="M141.288,17.085c0,3.848-2.235,7.098-6.344,7.098s-6.345-3.25-6.345-7.098c0-3.848,2.236-7.098,6.345-7.098
		S141.288,13.237,141.288,17.085z M130.238,17.085c0,2.86,1.56,5.72,4.706,5.72s4.706-2.859,4.706-5.72c0-2.86-1.56-5.72-4.706-5.72
		S130.238,14.225,130.238,17.085z"/>
	<path d="M143.732,10.377h1.508v3.146h0.052c0.832-2.158,2.652-3.432,5.07-3.328v1.638c-2.964-0.155-4.992,2.028-4.992,4.81v7.15
		h-1.638V10.377z"/>
	<path d="M163.258,22.701c-0.025,4.004-1.56,6.448-5.954,6.448c-2.678,0-5.33-1.196-5.564-4.057h1.639
		c0.363,1.977,2.105,2.679,3.926,2.679c3.017,0,4.316-1.795,4.316-5.07v-1.82h-0.052c-0.755,1.638-2.341,2.756-4.265,2.756
		c-4.29,0-6.059-3.068-6.059-6.89c0-3.692,2.185-6.76,6.059-6.76c1.95,0,3.614,1.223,4.265,2.704h0.052v-2.313h1.638V22.701z
		 M161.62,16.929c0-2.625-1.223-5.564-4.316-5.564c-3.12,0-4.42,2.782-4.42,5.564c0,2.704,1.404,5.33,4.42,5.33
		C160.138,22.259,161.62,19.659,161.62,16.929z"/>
</g>
<path fill="#0AAA64" d="M13.41,28.054v-1.202c0-0.097-0.052-0.187-0.136-0.236l-2.469-1.439c-0.084-0.049-0.136-0.139-0.136-0.236
	v-3.223c0.103-0.041,0.208-0.088,0.306-0.145c1.623-0.919,1.828-3.614,0.461-6.011c-1.362-2.4-3.784-3.597-5.404-2.674
	c-1.622,0.919-1.829,3.612-0.461,6.01c0.195,0.343,0.411,0.662,0.642,0.952c0.038,0.047,0.058,0.105,0.058,0.165v2.049
	c0,0.211-0.229,0.342-0.411,0.236l-2.981-1.735c-0.084-0.049-0.136-0.139-0.136-0.236V8.389c0-0.098-0.052-0.188-0.137-0.237
	L1.832,7.704C1.695,7.625,1.517,7.677,1.447,7.819C0.519,9.694,0,11.798,0,14.031C0,21.575,5.945,27.728,13.41,28.054"/>
<path fill="#EE3045" d="M5.994,5.667c0.084-0.048,0.188-0.048,0.273,0l2.79,1.611C9.04,7.391,9.033,7.505,9.033,7.62
	c-0.011,1.864,2.214,3.39,4.974,3.408c2.76,0.016,5.007-1.482,5.018-3.347c0.011-1.864-2.218-3.387-4.977-3.407
	c-0.393-0.003-0.777,0.027-1.144,0.084c-0.06,0.009-0.121-0.002-0.174-0.032l-1.773-1.025c-0.182-0.105-0.182-0.369,0.001-0.474
	L13.95,1.11c0.084-0.048,0.188-0.048,0.273,0l10.402,6.008c0.085,0.049,0.189,0.049,0.273,0l0.748-0.432
	c0.136-0.079,0.181-0.258,0.095-0.39c-1.163-1.766-2.736-3.284-4.692-4.411C14.582-1.85,6.386,0.142,2.327,6.289
	C2.24,6.421,2.284,6.601,2.421,6.679l0.765,0.442c0.084,0.049,0.188,0.049,0.273,0L5.994,5.667z"/>
<path fill="#1B459B" d="M25.308,11.257c0,0.097-0.052,0.187-0.137,0.236l-2.79,1.612c-0.088-0.072-0.179-0.137-0.28-0.195
	c-1.608-0.94-4.046,0.225-5.439,2.607c-1.393,2.382-1.222,5.076,0.387,6.018c1.608,0.942,4.043-0.224,5.437-2.608
	c0.2-0.337,0.367-0.683,0.5-1.029c0.022-0.057,0.062-0.104,0.115-0.134l1.777-1.023c0.183-0.105,0.411,0.027,0.41,0.238
	l-0.013,3.448c0,0.097-0.052,0.187-0.137,0.236l-10.334,5.968c-0.085,0.049-0.137,0.139-0.137,0.237v0.897
	c0,0.158,0.134,0.287,0.292,0.277c2.086-0.135,4.164-0.736,6.095-1.85c6.451-3.727,8.828-11.784,5.569-18.366
	c-0.07-0.142-0.248-0.194-0.385-0.115l-0.785,0.452C25.372,8.21,25.32,8.3,25.319,8.397L25.308,11.257z"/>
</svg>
