<?xml version="1.0" encoding="utf-8"?>
<!-- Generator: Adobe Illustrator 17.0.0, SVG Export Plug-In . SVG Version: 6.00 Build 0)  -->
<!DOCTYPE svg PUBLIC "-//W3C//DTD SVG 1.1//EN" "http://www.w3.org/Graphics/SVG/1.1/DTD/svg11.dtd">
<svg version="1.1" id="Layer_1" xmlns="http://www.w3.org/2000/svg" xmlns:xlink="http://www.w3.org/1999/xlink" x="0px" y="0px"
	 width="500px" height="250px" viewBox="0 0 500 250" enable-background="new 0 0 500 250" xml:space="preserve">
<g>
	<g>
		<path fill="#0AAA64" d="M41.173,166.784v-3.508c0-0.284-0.151-0.546-0.396-0.689l-7.204-4.199
			c-0.245-0.143-0.396-0.405-0.396-0.689v-9.405c0.302-0.121,0.607-0.256,0.894-0.424c4.735-2.683,5.336-10.546,1.347-17.541
			c-3.976-7.003-11.043-10.497-15.771-7.802c-4.732,2.681-5.338,10.54-1.344,17.539c0.569,1.002,1.2,1.932,1.874,2.777
			c0.11,0.138,0.169,0.305,0.169,0.482v5.979c0,0.615-0.667,0.999-1.199,0.689l-8.7-5.062c-0.245-0.143-0.397-0.405-0.397-0.689
			v-34.843c0-0.285-0.152-0.548-0.399-0.691L7.388,107.4c-0.4-0.231-0.92-0.08-1.125,0.334c-2.707,5.473-4.223,11.612-4.223,18.129
			C2.041,147.877,19.388,165.833,41.173,166.784"/>
		<path fill="#EE3045" d="M19.533,101.456c0.247-0.141,0.55-0.141,0.796,0.001l8.14,4.702c-0.048,0.326-0.069,0.659-0.069,0.994
			c-0.032,5.441,6.461,9.891,14.515,9.946c8.053,0.045,14.612-4.324,14.645-9.767c0.031-5.438-6.473-9.885-14.523-9.942
			c-1.147-0.008-2.266,0.077-3.337,0.245c-0.176,0.028-0.353-0.004-0.507-0.094l-5.174-2.991c-0.532-0.308-0.531-1.076,0.002-1.382
			l8.731-5.01c0.247-0.141,0.55-0.141,0.796,0.001l30.355,17.532c0.247,0.143,0.551,0.143,0.798,0l2.183-1.26
			c0.398-0.23,0.529-0.753,0.276-1.137c-3.394-5.154-7.984-9.584-13.692-12.873c-18.874-10.9-42.79-5.089-54.636,12.85
			c-0.253,0.384-0.125,0.908,0.273,1.138l2.232,1.289c0.246,0.142,0.549,0.143,0.796,0.001L19.533,101.456z"/>
		<path fill="#1B459B" d="M75.894,117.768c-0.001,0.284-0.153,0.546-0.399,0.688l-8.141,4.705c-0.256-0.211-0.523-0.4-0.818-0.569
			c-4.693-2.743-11.807,0.655-15.871,7.606c-4.066,6.951-3.565,14.813,1.13,17.561c4.693,2.749,11.799-0.653,15.867-7.61
			c0.583-0.985,1.072-1.994,1.46-3.002c0.064-0.166,0.18-0.303,0.334-0.392l5.186-2.987c0.533-0.307,1.198,0.079,1.196,0.694
			L75.8,144.523c-0.001,0.284-0.153,0.546-0.399,0.688l-30.156,17.415c-0.247,0.143-0.399,0.406-0.399,0.691v2.618
			c0,0.462,0.391,0.837,0.851,0.807c6.086-0.395,12.151-2.148,17.787-5.399c18.824-10.876,25.761-34.386,16.252-53.595
			c-0.204-0.413-0.724-0.566-1.124-0.335l-2.289,1.32c-0.246,0.142-0.398,0.404-0.399,0.688L75.894,117.768z"/>
	</g>
	<g>
		<path d="M457.738,86.79c0-0.997,0.392-1.842,1.172-2.535s1.711-1.039,2.792-1.039c1.084,0,2.015,0.346,2.795,1.039
			s1.169,1.538,1.169,2.535c0,0.953-0.389,1.786-1.169,2.501s-1.711,1.072-2.795,1.072c-1.081,0-2.012-0.357-2.792-1.072
			C458.13,88.576,457.738,87.743,457.738,86.79z M458.325,126.623v-26.317c0-0.651,0.313-1.181,0.94-1.592
			c0.629-0.413,1.44-0.617,2.437-0.617s1.822,0.205,2.47,0.617c0.651,0.411,0.976,0.941,0.976,1.592v26.317
			c0,0.563-0.337,1.083-1.009,1.559c-0.672,0.477-1.482,0.715-2.437,0.715c-0.952,0-1.753-0.238-2.404-0.715
			C458.648,127.706,458.325,127.186,458.325,126.623z"/>
		<path d="M471.06,116.486v-5.979c0-3.422,1.319-6.411,3.964-8.968c2.641-2.554,5.804-3.833,9.488-3.833
			c3.593,0,6.735,1.267,9.421,3.801c2.684,2.535,4.027,5.534,4.027,9v5.979c0,3.378-1.352,6.379-4.06,9
			c-2.708,2.62-5.837,3.931-9.388,3.931c-3.596,0-6.738-1.3-9.424-3.899S471.06,119.908,471.06,116.486z M477.882,116.467
			c0,1.765,0.651,3.346,1.949,4.744c1.301,1.399,2.858,2.098,4.681,2.098c1.774,0,3.322-0.699,4.644-2.098
			c1.322-1.398,1.982-2.979,1.982-4.744v-5.94c0-1.72-0.66-3.269-1.982-4.646c-1.322-1.378-2.87-2.066-4.644-2.066
			c-1.822,0-3.379,0.688-4.681,2.066c-1.298,1.376-1.949,2.926-1.949,4.646V116.467z"/>
	</g>
	<g>
		<path d="M107.297,154.915l7.046-1.497v-33.583h-8.045v-10.244h8.045v-5.997c0-6.063,1.75-10.736,5.247-14.018
			c3.498-3.282,8.412-4.922,14.742-4.922c1.233,0,2.491,0.092,3.774,0.274c1.282,0.184,2.69,0.443,4.223,0.774l-1.25,10.844
			c-0.8-0.133-1.574-0.25-2.324-0.349s-1.623-0.151-2.623-0.151c-2.366,0-4.156,0.651-5.372,1.949
			c-1.217,1.3-1.824,3.166-1.824,5.598v5.997h10.744v10.244h-10.744v33.583l7.046,1.497v8.748h-28.686L107.297,154.915
			L107.297,154.915z"/>
		<path d="M177.881,163.664c-0.398-0.901-0.747-1.825-1.048-2.774s-0.536-1.907-0.699-2.873c-1.735,2-3.843,3.614-6.325,4.849
			c-2.482,1.232-5.319,1.846-8.518,1.846c-5.298,0-9.504-1.44-12.619-4.322c-3.116-2.879-4.672-6.805-4.672-11.769
			c0-5.063,2.032-8.979,6.096-11.744c4.065-2.765,10.027-4.147,17.892-4.147h7.446v-5.298c0-2.598-0.753-4.613-2.253-6.046
			c-1.5-1.432-3.711-2.149-6.644-2.149c-1.666,0-3.147,0.193-4.447,0.575s-2.349,0.842-3.149,1.373l-0.949,5.798h-10.994
			l0.05-11.994c2.664-1.8,5.721-3.315,9.17-4.548c3.447-1.232,7.203-1.849,11.271-1.849c6.693,0,12.132,1.642,16.313,4.923
			s6.271,7.955,6.271,14.018v22.337c0,0.836,0.012,1.616,0.024,2.351c0.018,0.732,0.078,1.431,0.181,2.096l4.446,0.599v8.748
			L177.881,163.664L177.881,163.664z M165.236,153.918c2.199,0,4.199-0.476,6-1.425c1.795-0.949,3.199-2.141,4.199-3.574v-8.245
			h-7.446c-3.102,0-5.45,0.724-7.048,2.173c-1.599,1.45-2.399,3.191-2.399,5.223c0,1.833,0.59,3.266,1.774,4.297
			C161.499,153.4,163.14,153.918,165.236,153.918z"/>
		<path d="M249.215,138.125c0,8.063-1.798,14.51-5.397,19.343c-3.596,4.831-8.795,7.244-15.59,7.244
			c-3.166,0-5.915-0.657-8.247-1.973c-2.331-1.316-4.298-3.223-5.897-5.724l-1.048,6.649h-12.593V95.999l-7.747-1.498v-8.796h22.288
			v29.634c1.566-2.166,3.44-3.831,5.62-4.997c2.184-1.166,4.69-1.75,7.521-1.75c6.864,0,12.096,2.592,15.692,7.771
			c3.599,5.181,5.397,12.085,5.397,20.715v1.047H249.215z M234.674,137.077c0-5.263-0.774-9.436-2.325-12.519
			c-1.548-3.081-4.19-4.622-7.918-4.622c-2.268,0-4.184,0.474-5.747,1.425c-1.566,0.949-2.801,2.307-3.699,4.072v22.838
			c0.898,1.666,2.138,2.934,3.723,3.798c1.581,0.867,3.524,1.298,5.822,1.298c3.765,0,6.397-1.325,7.894-3.973
			c1.5-2.647,2.25-6.403,2.25-11.269L234.674,137.077L234.674,137.077z"/>
		<path d="M252.291,94.5v-8.796h22.388v67.714l7.045,1.497v8.748h-28.683v-8.748l7.045-1.497v-57.42L252.291,94.5z"/>
		<path d="M319.776,163.664c-0.401-0.901-0.75-1.825-1.051-2.774c-0.298-0.949-0.533-1.907-0.699-2.873
			c-1.732,2-3.84,3.614-6.322,4.849c-2.482,1.232-5.322,1.846-8.521,1.846c-5.295,0-9.503-1.44-12.617-4.322
			c-3.114-2.879-4.672-6.805-4.672-11.769c0-5.063,2.03-8.979,6.096-11.744c4.063-2.765,10.027-4.147,17.891-4.147h7.446v-5.298
			c0-2.598-0.75-4.613-2.25-6.046c-1.5-1.432-3.714-2.149-6.644-2.149c-1.669,0-3.15,0.193-4.449,0.575
			c-1.298,0.383-2.349,0.842-3.147,1.373l-0.952,5.798h-10.994l0.051-11.994c2.666-1.8,5.723-3.315,9.168-4.548
			c3.449-1.232,7.205-1.849,11.271-1.849c6.696,0,12.135,1.642,16.316,4.923s6.271,7.955,6.271,14.018v22.337
			c0,0.836,0.009,1.616,0.024,2.351c0.018,0.732,0.075,1.431,0.178,2.096l4.446,0.599v8.748L319.776,163.664L319.776,163.664z
			 M307.132,153.918c2.199,0,4.199-0.476,5.997-1.425s3.199-2.141,4.199-3.574v-8.245h-7.446c-3.099,0-5.449,0.724-7.048,2.173
			c-1.599,1.45-2.397,3.191-2.397,5.223c0,1.833,0.59,3.266,1.774,4.297C303.391,153.4,305.033,153.918,307.132,153.918z"/>
		<path d="M391.108,138.125c0,8.063-1.798,14.51-5.397,19.343c-3.596,4.831-8.795,7.244-15.59,7.244
			c-3.166,0-5.915-0.657-8.247-1.973c-2.331-1.316-4.298-3.223-5.897-5.724l-1.048,6.649h-12.593V95.999l-7.747-1.498v-8.796h22.288
			v29.634c1.566-2.166,3.44-3.831,5.62-4.997c2.184-1.166,4.69-1.75,7.521-1.75c6.864,0,12.096,2.592,15.692,7.771
			c3.599,5.181,5.397,12.085,5.397,20.715v1.047H391.108z M376.566,137.077c0-5.263-0.774-9.436-2.325-12.519
			c-1.548-3.081-4.19-4.622-7.918-4.622c-2.268,0-4.184,0.474-5.747,1.425c-1.566,0.949-2.801,2.307-3.699,4.072v22.838
			c0.898,1.666,2.138,2.934,3.723,3.798c1.581,0.867,3.524,1.298,5.822,1.298c3.765,0,6.397-1.325,7.894-3.973
			c1.5-2.647,2.25-6.403,2.25-11.269L376.566,137.077L376.566,137.077z"/>
		<path d="M440.856,128.181h-9.795l-1.551-6.747c-1-0.8-2.256-1.465-3.771-1.998c-1.518-0.533-3.193-0.8-5.024-0.8
			c-2.566,0-4.596,0.575-6.096,1.724s-2.25,2.59-2.25,4.322c0,1.632,0.717,2.991,2.151,4.074c1.431,1.083,4.298,2.041,8.596,2.873
			c6.696,1.333,11.659,3.291,14.891,5.872s4.846,6.138,4.846,10.668c0,4.866-2.09,8.839-6.271,11.921
			c-4.181,3.081-9.686,4.62-16.514,4.62c-4.165,0-7.991-0.608-11.469-1.822c-3.482-1.217-6.572-2.958-9.271-5.223l-0.151-12.144
			h10.195l2,7.046c0.864,0.732,2.048,1.274,3.548,1.623c1.497,0.349,3.063,0.524,4.696,0.524c2.967,0,5.223-0.533,6.771-1.599
			c1.551-1.066,2.325-2.515,2.325-4.348c0-1.598-0.783-2.98-2.349-4.147c-1.566-1.166-4.449-2.199-8.644-3.098
			c-6.364-1.3-11.168-3.223-14.418-5.772c-3.247-2.548-4.873-6.021-4.873-10.418c0-4.531,1.867-8.438,5.599-11.719
			c3.729-3.28,9.045-4.922,15.939-4.922c4.199,0,8.171,0.566,11.918,1.699c3.75,1.132,6.69,2.583,8.822,4.348L440.856,128.181z"/>
	</g>
</g>
</svg>
