<?xml version="1.0" encoding="utf-8"?>
<!-- Generator: Adobe Illustrator 17.0.0, SVG Export Plug-In . SVG Version: 6.00 Build 0)  -->
<!DOCTYPE svg PUBLIC "-//W3C//DTD SVG 1.1//EN" "http://www.w3.org/Graphics/SVG/1.1/DTD/svg11.dtd">
<svg version="1.1" id="fablabsio" xmlns="http://www.w3.org/2000/svg" xmlns:xlink="http://www.w3.org/1999/xlink" x="0px" y="0px"
	 width="119.346px" height="19.702px" viewBox="0 0 119.346 19.702" enable-background="new 0 0 119.346 19.702"
	 xml:space="preserve">
<g>
	<g>
		<path fill="#0AAA64" d="M9.418,19.702v-0.844c0-0.068-0.036-0.131-0.095-0.166l-1.734-1.011c-0.059-0.034-0.095-0.097-0.095-0.166
			v-2.263c0.073-0.029,0.146-0.062,0.215-0.102c1.14-0.646,1.284-2.538,0.324-4.221C7.076,9.243,5.375,8.402,4.237,9.051
			c-1.139,0.645-1.285,2.537-0.323,4.221c0.137,0.241,0.289,0.465,0.451,0.668c0.026,0.033,0.041,0.073,0.041,0.116v1.439
			c0,0.148-0.161,0.24-0.289,0.166l-2.094-1.218c-0.059-0.034-0.096-0.097-0.096-0.166V5.892c0-0.069-0.037-0.132-0.096-0.166
			L1.287,5.41c-0.096-0.056-0.221-0.019-0.271,0.08C0.365,6.808,0,8.285,0,9.854C0,15.151,4.175,19.473,9.418,19.702"/>
		<path fill="#EE3045" d="M4.21,3.98c0.059-0.034,0.132-0.034,0.192,0L6.36,5.112C6.349,5.19,6.344,5.27,6.344,5.351
			C6.336,6.66,7.899,7.731,9.837,7.745c1.938,0.011,3.516-1.041,3.524-2.35c0.007-1.309-1.558-2.379-3.495-2.393
			C9.59,3,9.321,3.02,9.063,3.06C9.021,3.067,8.978,3.059,8.941,3.038l-1.245-0.72c-0.128-0.074-0.128-0.259,0-0.333L9.798,0.78
			c0.059-0.034,0.132-0.034,0.192,0l7.305,4.219c0.059,0.034,0.133,0.034,0.192,0l0.525-0.303c0.096-0.055,0.127-0.181,0.066-0.274
			c-0.817-1.24-1.921-2.306-3.295-3.098C10.241-1.299,4.485,0.1,1.635,4.417C1.574,4.509,1.604,4.635,1.7,4.691l0.537,0.31
			c0.059,0.034,0.132,0.034,0.192,0L4.21,3.98z"/>
		<path fill="#1B459B" d="M17.773,7.906c0,0.068-0.037,0.131-0.096,0.166l-1.959,1.132c-0.062-0.051-0.126-0.096-0.197-0.137
			c-1.129-0.66-2.841,0.158-3.819,1.83c-0.979,1.673-0.858,3.565,0.272,4.226c1.129,0.662,2.84-0.157,3.818-1.831
			c0.14-0.237,0.258-0.48,0.351-0.722c0.015-0.04,0.043-0.073,0.08-0.094l1.248-0.719c0.128-0.074,0.288,0.019,0.288,0.167
			l-0.009,2.421c0,0.068-0.037,0.131-0.096,0.166l-7.257,4.191c-0.059,0.034-0.096,0.098-0.096,0.166v0.63
			c0,0.111,0.094,0.201,0.205,0.194c1.465-0.095,2.924-0.517,4.281-1.299c4.53-2.617,6.2-8.275,3.911-12.898
			c-0.049-0.099-0.174-0.136-0.27-0.081l-0.551,0.318c-0.059,0.034-0.096,0.097-0.096,0.166L17.773,7.906z"/>
	</g>
	<g>
		<path d="M109.667,0.86c0-0.24,0.094-0.443,0.282-0.61S110.361,0,110.621,0c0.261,0,0.485,0.083,0.673,0.25
			c0.188,0.167,0.281,0.37,0.281,0.61c0,0.229-0.094,0.43-0.281,0.602c-0.188,0.172-0.412,0.258-0.673,0.258
			c-0.26,0-0.484-0.086-0.672-0.258C109.761,1.29,109.667,1.089,109.667,0.86z M109.808,10.446V4.113
			c0-0.157,0.075-0.284,0.226-0.383c0.151-0.099,0.347-0.148,0.586-0.148s0.438,0.049,0.594,0.148
			c0.157,0.099,0.235,0.226,0.235,0.383v6.333c0,0.135-0.081,0.261-0.243,0.375c-0.162,0.115-0.357,0.172-0.586,0.172
			c-0.229,0-0.422-0.057-0.579-0.172C109.886,10.707,109.808,10.582,109.808,10.446z"/>
		<path d="M112.873,8.007V6.568c0-0.824,0.317-1.543,0.954-2.158c0.636-0.615,1.397-0.922,2.283-0.922
			c0.865,0,1.621,0.305,2.267,0.915c0.646,0.61,0.969,1.332,0.969,2.166v1.439c0,0.813-0.325,1.535-0.977,2.166
			c-0.652,0.631-1.405,0.946-2.259,0.946c-0.865,0-1.622-0.313-2.268-0.938C113.196,9.555,112.873,8.83,112.873,8.007z
			 M114.514,8.002c0,0.425,0.157,0.805,0.469,1.142c0.313,0.337,0.688,0.505,1.127,0.505c0.427,0,0.799-0.168,1.118-0.505
			c0.318-0.336,0.477-0.717,0.477-1.142v-1.43c0-0.414-0.159-0.787-0.477-1.118c-0.318-0.332-0.691-0.497-1.118-0.497
			c-0.438,0-0.813,0.166-1.127,0.497c-0.312,0.331-0.469,0.704-0.469,1.118V8.002z"/>
	</g>
	<g>
		<path d="M25.331,16.909l1.696-0.36V8.467H25.09V6.001h1.936V4.558c0-1.459,0.421-2.584,1.263-3.374
			C29.131,0.395,30.314,0,31.837,0c0.297,0,0.599,0.022,0.908,0.066c0.309,0.044,0.647,0.107,1.016,0.186l-0.301,2.61
			c-0.193-0.032-0.379-0.06-0.559-0.084c-0.18-0.024-0.391-0.036-0.631-0.036c-0.569,0-1,0.157-1.293,0.469
			c-0.293,0.313-0.439,0.762-0.439,1.347v1.443h2.586v2.465h-2.586v8.082l1.696,0.36v2.105h-6.903L25.331,16.909L25.331,16.909z"/>
		<path d="M42.317,19.014c-0.096-0.217-0.18-0.439-0.252-0.668c-0.072-0.228-0.129-0.459-0.168-0.691
			c-0.418,0.481-0.925,0.87-1.522,1.167c-0.597,0.296-1.28,0.444-2.05,0.444c-1.275,0-2.287-0.347-3.037-1.04
			c-0.75-0.693-1.124-1.638-1.124-2.832c0-1.218,0.489-2.161,1.467-2.826c0.978-0.665,2.413-0.998,4.306-0.998h1.792v-1.275
			c0-0.625-0.181-1.11-0.542-1.455c-0.361-0.345-0.893-0.517-1.599-0.517c-0.401,0-0.757,0.046-1.07,0.138
			c-0.313,0.092-0.565,0.203-0.758,0.33l-0.228,1.395h-2.646L34.897,7.3c0.641-0.433,1.377-0.798,2.207-1.095
			c0.83-0.296,1.733-0.445,2.712-0.445c1.611,0,2.92,0.395,3.926,1.185s1.509,1.914,1.509,3.374v5.376
			c0,0.201,0.003,0.389,0.006,0.566c0.004,0.176,0.019,0.344,0.044,0.504l1.07,0.144v2.105L42.317,19.014L42.317,19.014z
			 M39.274,16.669c0.529,0,1.011-0.115,1.444-0.343c0.432-0.228,0.77-0.515,1.011-0.86v-1.984h-1.792
			c-0.747,0-1.312,0.174-1.696,0.523c-0.385,0.349-0.577,0.768-0.577,1.257c0,0.441,0.142,0.786,0.427,1.034
			C38.375,16.544,38.77,16.669,39.274,16.669z"/>
		<path d="M59.484,12.868c0,1.94-0.433,3.492-1.299,4.655c-0.865,1.163-2.117,1.743-3.752,1.743c-0.762,0-1.423-0.158-1.985-0.475
			c-0.561-0.317-1.034-0.776-1.419-1.378l-0.252,1.6h-3.031V2.73L45.883,2.37V0.253h5.364v7.132
			c0.377-0.521,0.828-0.922,1.352-1.203c0.526-0.281,1.129-0.421,1.81-0.421c1.652,0,2.911,0.624,3.776,1.87
			c0.866,1.247,1.299,2.908,1.299,4.985L59.484,12.868L59.484,12.868z M55.985,12.616c0-1.267-0.186-2.271-0.56-3.013
			c-0.373-0.741-1.008-1.112-1.906-1.112c-0.546,0-1.007,0.114-1.383,0.343c-0.377,0.228-0.674,0.555-0.89,0.98v5.496
			c0.216,0.401,0.515,0.706,0.896,0.914c0.38,0.209,0.848,0.312,1.401,0.312c0.906,0,1.539-0.319,1.9-0.956
			c0.361-0.637,0.541-1.541,0.541-2.712L55.985,12.616L55.985,12.616z"/>
		<path d="M60.225,2.37V0.253h5.388v16.296l1.695,0.36v2.105h-6.903v-2.105l1.695-0.36V2.73L60.225,2.37z"/>
		<path d="M76.465,19.014c-0.097-0.217-0.18-0.439-0.253-0.668c-0.072-0.228-0.128-0.459-0.168-0.691
			c-0.417,0.481-0.924,0.87-1.521,1.167c-0.597,0.296-1.281,0.444-2.051,0.444c-1.274,0-2.287-0.347-3.036-1.04
			c-0.749-0.693-1.124-1.638-1.124-2.832c0-1.218,0.489-2.161,1.467-2.826c0.978-0.665,2.413-0.998,4.306-0.998h1.792v-1.275
			c0-0.625-0.18-1.11-0.541-1.455c-0.361-0.345-0.894-0.517-1.599-0.517c-0.402,0-0.758,0.046-1.071,0.138
			c-0.312,0.092-0.565,0.203-0.757,0.33l-0.229,1.395h-2.646L69.045,7.3c0.642-0.433,1.377-0.798,2.206-1.095
			c0.83-0.296,1.734-0.445,2.712-0.445c1.611,0,2.92,0.395,3.927,1.185c1.006,0.79,1.509,1.914,1.509,3.374v5.376
			c0,0.201,0.002,0.389,0.006,0.566c0.004,0.176,0.018,0.344,0.043,0.504l1.07,0.144v2.105L76.465,19.014L76.465,19.014z
			 M73.422,16.669c0.529,0,1.011-0.115,1.443-0.343c0.433-0.228,0.77-0.515,1.011-0.86v-1.984h-1.792
			c-0.746,0-1.311,0.174-1.696,0.523c-0.385,0.349-0.577,0.768-0.577,1.257c0,0.441,0.142,0.786,0.427,1.034
			C72.522,16.544,72.917,16.669,73.422,16.669z"/>
		<path d="M93.632,12.868c0,1.94-0.433,3.492-1.299,4.655c-0.865,1.163-2.117,1.743-3.752,1.743c-0.762,0-1.423-0.158-1.985-0.475
			c-0.561-0.317-1.034-0.776-1.419-1.378l-0.252,1.6h-3.031V2.73L80.03,2.37V0.253h5.364v7.132c0.377-0.521,0.828-0.922,1.352-1.203
			c0.526-0.281,1.129-0.421,1.81-0.421c1.652,0,2.911,0.624,3.776,1.87c0.866,1.247,1.299,2.908,1.299,4.985L93.632,12.868
			L93.632,12.868z M90.132,12.616c0-1.267-0.186-2.271-0.56-3.013c-0.373-0.741-1.008-1.112-1.906-1.112
			c-0.546,0-1.007,0.114-1.383,0.343c-0.377,0.228-0.674,0.555-0.89,0.98v5.496c0.216,0.401,0.515,0.706,0.896,0.914
			c0.38,0.209,0.848,0.312,1.401,0.312c0.906,0,1.539-0.319,1.9-0.956c0.361-0.637,0.541-1.541,0.541-2.712L90.132,12.616
			L90.132,12.616z"/>
		<path d="M105.604,10.475h-2.357l-0.373-1.624c-0.241-0.193-0.543-0.353-0.908-0.481c-0.365-0.128-0.768-0.193-1.209-0.193
			c-0.618,0-1.106,0.138-1.467,0.415c-0.361,0.277-0.541,0.623-0.541,1.04c0,0.393,0.173,0.72,0.518,0.98
			c0.344,0.261,1.034,0.491,2.069,0.691c1.611,0.321,2.806,0.792,3.584,1.413c0.778,0.621,1.166,1.477,1.166,2.567
			c0,1.171-0.503,2.127-1.509,2.869c-1.006,0.741-2.331,1.112-3.974,1.112c-1.002,0-1.923-0.146-2.76-0.438
			c-0.838-0.293-1.582-0.712-2.231-1.257l-0.036-2.923h2.453l0.481,1.696c0.208,0.176,0.493,0.307,0.854,0.391
			c0.36,0.084,0.737,0.126,1.13,0.126c0.714,0,1.257-0.128,1.629-0.385c0.373-0.257,0.56-0.605,0.56-1.046
			c0-0.385-0.188-0.717-0.565-0.998c-0.377-0.281-1.071-0.529-2.08-0.746c-1.532-0.313-2.688-0.776-3.47-1.389
			c-0.781-0.613-1.173-1.449-1.173-2.507c0-1.09,0.449-2.031,1.347-2.82c0.897-0.789,2.177-1.185,3.836-1.185
			c1.011,0,1.966,0.136,2.868,0.409c0.902,0.272,1.61,0.622,2.123,1.046L105.604,10.475z"/>
	</g>
</g>
</svg>
