<?xml version="1.0" encoding="utf-8"?>
<!-- Generator: Adobe Illustrator 17.0.0, SVG Export Plug-In . SVG Version: 6.00 Build 0)  -->
<!DOCTYPE svg PUBLIC "-//W3C//DTD SVG 1.1//EN" "http://www.w3.org/Graphics/SVG/1.1/DTD/svg11.dtd">
<svg version="1.1" id="Layer_1" xmlns="http://www.w3.org/2000/svg" xmlns:xlink="http://www.w3.org/1999/xlink" x="0px" y="0px"
	 width="364.066px" height="52.445px" viewBox="0 0 364.066 52.445" enable-background="new 0 0 364.066 52.445"
	 xml:space="preserve">
<path fill="#0AAA64" d="M25.069,52.445v-2.247c0-0.182-0.097-0.35-0.254-0.441l-4.615-2.69c-0.157-0.092-0.254-0.26-0.254-0.441
	V40.6c0.193-0.077,0.389-0.164,0.573-0.271c3.033-1.719,3.418-6.756,0.863-11.237c-2.547-4.486-7.074-6.724-10.103-4.998
	c-3.032,1.717-3.42,6.752-0.861,11.236c0.364,0.642,0.769,1.238,1.201,1.779c0.07,0.088,0.109,0.196,0.109,0.309v3.83
	c0,0.394-0.427,0.64-0.768,0.442l-5.574-3.243c-0.157-0.092-0.254-0.26-0.254-0.442V15.683c0-0.183-0.097-0.351-0.255-0.442
	l-1.45-0.838c-0.256-0.148-0.589-0.051-0.72,0.214C0.971,18.123,0,22.055,0,26.23C0,40.333,11.113,51.836,25.069,52.445"/>
<path fill="#EE3045" d="M11.206,10.594c0.158-0.091,0.352-0.09,0.51,0.001l5.215,3.012c-0.031,0.209-0.044,0.422-0.044,0.637
	c-0.021,3.485,4.139,6.337,9.298,6.372c5.159,0.029,9.361-2.77,9.382-6.257c0.02-3.484-4.146-6.333-9.304-6.369
	c-0.735-0.005-1.452,0.05-2.138,0.157c-0.113,0.018-0.226-0.003-0.325-0.06l-3.315-1.916c-0.341-0.197-0.34-0.69,0.001-0.886
	l5.593-3.209c0.158-0.091,0.352-0.09,0.51,0.001l19.446,11.231c0.158,0.091,0.353,0.091,0.511,0l1.399-0.807
	c0.255-0.147,0.339-0.483,0.177-0.729c-2.174-3.302-5.115-6.14-8.771-8.247C27.26-3.458,11.939,0.265,4.35,11.757
	c-0.162,0.246-0.08,0.582,0.175,0.729l1.43,0.826c0.158,0.091,0.352,0.091,0.51,0.001L11.206,10.594z"/>
<path fill="#1B459B" d="M47.312,21.045c-0.001,0.182-0.098,0.35-0.255,0.44l-5.215,3.014c-0.164-0.135-0.335-0.256-0.524-0.364
	c-3.007-1.757-7.564,0.42-10.167,4.873c-2.605,4.453-2.284,9.49,0.724,11.25c3.007,1.761,7.558-0.418,10.165-4.875
	c0.373-0.631,0.687-1.277,0.936-1.923c0.041-0.106,0.115-0.194,0.214-0.251l3.322-1.913c0.341-0.197,0.768,0.051,0.766,0.445
	l-0.025,6.445c-0.001,0.182-0.098,0.35-0.255,0.441L27.679,49.782c-0.158,0.091-0.255,0.26-0.255,0.443v1.677
	c0,0.296,0.25,0.536,0.545,0.517c3.899-0.253,7.784-1.376,11.395-3.459c12.059-6.967,16.503-22.029,10.412-34.334
	c-0.131-0.265-0.464-0.362-0.72-0.215l-1.467,0.846c-0.158,0.091-0.255,0.259-0.256,0.441L47.312,21.045z"/>
<g>
	<g>
		<path fill="#FFFFFF" d="M59.44,5.759h26.105v6.864H67.605v8.58h15.548v6.345H67.605v15.341H59.44V5.759z"/>
		<path fill="#FFFFFF" d="M96.413,5.759h8.373l13.884,37.13h-8.476l-2.809-8.269H93.501l-2.912,8.269h-8.268L96.413,5.759z
			 M95.633,28.536h9.62l-4.68-13.625h-0.104L95.633,28.536z"/>
		<path fill="#FFFFFF" d="M120.75,5.759h17.473c7.072,0,11.856,2.288,11.856,9.204c0,3.641-1.82,6.188-5.044,7.749
			c4.524,1.3,6.812,4.785,6.812,9.413c0,7.54-6.396,10.765-13.104,10.765H120.75V5.759z M128.914,20.787h8.268
			c2.86,0,4.992-1.3,4.992-4.42c0-3.536-2.704-4.264-5.616-4.264h-7.644V20.787z M128.914,36.544h8.736
			c3.224,0,6.032-1.04,6.032-4.888c0-3.797-2.392-5.305-5.876-5.305h-8.892V36.544z"/>
		<path fill="#FFFFFF" d="M156.214,5.759h8.165v30.266h18.097v6.864h-26.262V5.759z"/>
		<path fill="#FFFFFF" d="M196.048,5.759h8.372l13.885,37.13h-8.477l-2.808-8.269h-13.885l-2.912,8.269h-8.269L196.048,5.759z
			 M195.268,28.536h9.62l-4.68-13.625h-0.104L195.268,28.536z"/>
		<path fill="#FFFFFF" d="M220.385,5.759h17.473c7.072,0,11.856,2.288,11.856,9.204c0,3.641-1.82,6.188-5.044,7.749
			c4.524,1.3,6.812,4.785,6.812,9.413c0,7.54-6.396,10.765-13.104,10.765h-17.993V5.759z M228.55,20.787h8.268
			c2.86,0,4.992-1.3,4.992-4.42c0-3.536-2.704-4.264-5.616-4.264h-7.644V20.787z M228.55,36.544h8.736
			c3.224,0,6.031-1.04,6.031-4.888c0-3.797-2.392-5.305-5.876-5.305h-8.892V36.544z"/>
		<path fill="#E3E3E3" d="M272.023,4.875c11.805,0,17.785,9.36,17.785,19.448c0,10.089-5.98,19.449-17.785,19.449
			s-17.785-9.36-17.785-19.449C254.238,14.235,260.218,4.875,272.023,4.875z M272.023,39.612c9.049,0,12.845-7.801,12.845-15.289
			s-3.796-15.288-12.845-15.288s-12.845,7.8-12.845,15.288S262.974,39.612,272.023,39.612z"/>
		<path fill="#E3E3E3" d="M296.048,5.759h17.473c6.968,0,11.284,3.796,11.284,9.725c0,4.472-1.977,8.164-6.448,9.412V25
			c4.316,0.832,5.2,4.004,5.564,7.644c0.312,3.641,0.104,7.696,2.184,10.245h-5.512c-1.404-1.509-0.625-5.513-1.353-9.152
			c-0.521-3.641-1.404-6.709-6.188-6.709h-12.064v15.861h-4.939V5.759z M311.285,22.867c4.628,0,8.58-1.196,8.58-6.604
			c0-3.64-1.977-6.344-6.604-6.344h-12.272v12.948H311.285z"/>
		<path fill="#E3E3E3" d="M359.646,38.26c-2.86,3.9-7.54,5.513-11.908,5.513c-11.076,0-17.681-9.049-17.681-18.721
			c0-10.816,5.928-20.177,17.681-20.177c8.112,0,14.561,3.64,15.965,12.324h-4.94c-0.988-5.616-5.513-8.164-11.024-8.164
			c-8.996,0-12.74,7.8-12.74,15.756c0,7.749,4.472,14.821,12.74,14.821c7.645,0,12.221-5.356,11.908-12.116H347.79v-4.161h16.276
			v19.553h-3.12L359.646,38.26z"/>
	</g>
</g>
</svg>
