<?xml version="1.0" encoding="utf-8"?>
<!-- Generator: Adobe Illustrator 17.0.0, SVG Export Plug-In . SVG Version: 6.00 Build 0)  -->
<!DOCTYPE svg PUBLIC "-//W3C//DTD SVG 1.1//EN" "http://www.w3.org/Graphics/SVG/1.1/DTD/svg11.dtd">
<svg version="1.1" id="modules" xmlns="http://www.w3.org/2000/svg" xmlns:xlink="http://www.w3.org/1999/xlink" x="0px" y="0px"
	 width="500px" height="250px" viewBox="0 0 500 250" enable-background="new 0 0 500 250" xml:space="preserve">
<g>
	<g>
		<rect x="35.266" y="83.774" fill="#11286E" width="23.137" height="23.137"/>
		<rect x="4.667" y="114.787" fill="#11286E" width="23.137" height="23.137"/>
		<rect x="4.667" y="144.948" fill="#11286E" width="23.137" height="23.137"/>
		<rect x="35.266" y="144.948" fill="#11286E" width="23.137" height="23.137"/>
		<rect x="65.841" y="144.948" fill="#11286E" width="23.137" height="23.137"/>
		<rect x="65.841" y="114.787" fill="#11286E" width="23.137" height="23.137"/>
		<rect x="65.841" y="83.774" fill="#11286E" width="23.137" height="23.137"/>
		<circle fill="#C70927" cx="16.157" cy="95.24" r="13.325"/>
		<circle fill="#C70927" cx="47.054" cy="126.136" r="13.325"/>
	</g>
	<g>
		<g>
			<path fill="#231E20" d="M108.18,117.325h8.976v4.689h0.134c2.479-3.551,6.096-5.627,10.584-5.627
				c4.354,0,8.239,1.608,10.115,5.761c2.01-3.015,5.627-5.761,10.45-5.761c7.368,0,12.66,3.417,12.66,12.393v23.177h-9.512V132.33
				c0-4.622-0.402-8.44-5.828-8.44c-5.359,0-6.364,4.421-6.364,8.775v19.292h-9.512v-19.426c0-4.02,0.268-8.642-5.761-8.642
				c-1.875,0-6.431,1.206-6.431,7.972v20.096h-9.512V117.325z"/>
			<path fill="#231E20" d="M183.935,116.387c10.919,0,17.952,7.235,17.952,18.288c0,10.985-7.033,18.22-17.952,18.22
				c-10.852,0-17.885-7.234-17.885-18.22C166.049,123.622,173.083,116.387,183.935,116.387z M183.935,145.728
				c6.498,0,8.44-5.561,8.44-11.053c0-5.56-1.943-11.12-8.44-11.12c-6.431,0-8.373,5.561-8.373,11.12
				C175.562,140.167,177.504,145.728,183.935,145.728z"/>
			<path fill="#231E20" d="M231.289,147.536h-0.134c-2.21,3.751-6.096,5.358-10.517,5.358c-10.45,0-15.541-8.976-15.541-18.555
				c0-9.312,5.158-17.953,15.34-17.953c4.086,0,8.105,1.742,10.249,5.158h0.134v-17.416h9.512v47.828h-9.043V147.536z
				 M222.983,123.555c-6.229,0-8.373,5.359-8.373,11.053c0,5.426,2.479,11.12,8.373,11.12c6.297,0,8.172-5.493,8.172-11.187
				C231.155,128.914,229.146,123.555,222.983,123.555z"/>
			<path fill="#231E20" d="M278.511,151.957h-9.043v-4.823h-0.201c-2.411,3.886-6.564,5.761-10.584,5.761
				c-10.115,0-12.661-5.693-12.661-14.268v-21.302h9.512v19.56c0,5.694,1.675,8.508,6.096,8.508c5.158,0,7.369-2.881,7.369-9.914
				v-18.153h9.512V151.957z"/>
			<path fill="#231E20" d="M284.533,104.129h9.513v47.828h-9.513V104.129z"/>
			<path fill="#231E20" d="M307.91,136.952c0.268,6.028,3.215,8.775,8.507,8.775c3.818,0,6.899-2.345,7.502-4.488h8.374
				c-2.68,8.172-8.374,11.655-16.211,11.655c-10.919,0-17.685-7.502-17.685-18.22c0-10.383,7.168-18.288,17.685-18.288
				c11.789,0,17.483,9.915,16.813,20.565H307.91z M323.384,130.924c-0.871-4.823-2.947-7.369-7.569-7.369
				c-6.029,0-7.771,4.689-7.904,7.369H323.384z"/>
			<path fill="#231E20" d="M344.413,140.703c0.067,4.153,3.551,5.828,7.302,5.828c2.746,0,6.229-1.072,6.229-4.421
				c0-2.881-3.952-3.886-10.784-5.359c-5.493-1.205-10.986-3.148-10.986-9.244c0-8.842,7.637-11.12,15.072-11.12
				c7.569,0,14.536,2.545,15.272,11.053h-9.043c-0.268-3.685-3.081-4.689-6.497-4.689c-2.144,0-5.292,0.402-5.292,3.216
				c0,3.416,5.358,3.885,10.784,5.157c5.561,1.273,10.986,3.282,10.986,9.713c0,9.11-7.904,12.058-15.809,12.058
				c-8.039,0-15.876-3.014-16.278-12.191H344.413z"/>
			<path fill="#231E20" d="M371.94,141.642h10.517v10.315H371.94V141.642z"/>
			<path fill="#C0BFBF" d="M412.866,128.445c-0.87-4.354-3.885-6.9-8.574-6.9c-8.239,0-10.784,6.498-10.784,13.531
				c0,6.364,2.88,12.661,10.114,12.661c5.493,0,8.775-3.216,9.513-8.44h5.827c-1.272,8.44-6.564,13.464-15.272,13.464
				c-10.584,0-16.211-7.368-16.211-17.685c0-10.383,5.359-18.555,16.345-18.555c7.838,0,14.135,3.685,14.938,11.924H412.866z"/>
			<path fill="#C0BFBF" d="M424.853,104.129h5.693v17.886h0.134c1.876-3.818,6.297-5.493,11.053-5.493
				c10.651,0,15.943,8.44,15.943,18.22c0,9.78-5.226,18.02-15.809,18.02c-3.551,0-8.642-1.34-11.188-5.426h-0.134v4.622h-5.693
				V104.129z M440.929,121.545c-7.636,0-10.584,6.565-10.584,13.062c0,6.833,3.082,13.13,10.919,13.13
				c7.771,0,10.383-6.632,10.383-13.397C451.646,127.842,448.298,121.545,440.929,121.545z"/>
			<path fill="#C0BFBF" d="M494.379,151.823c-1.005,0.603-2.277,0.938-4.086,0.938c-2.947,0-4.823-1.607-4.823-5.358
				c-3.148,3.684-7.368,5.358-12.191,5.358c-6.297,0-11.455-2.813-11.455-9.713c0-7.837,5.828-9.512,11.723-10.65
				c6.297-1.206,11.656-0.805,11.656-5.092c0-4.956-4.087-5.761-7.704-5.761c-4.822,0-8.373,1.474-8.641,6.565h-5.694
				c0.335-8.574,6.967-11.589,14.67-11.589c6.229,0,12.995,1.406,12.995,9.512v17.818c0,2.68,0,3.886,1.809,3.886
				c0.47,0,1.005-0.067,1.742-0.335V151.823z M485.135,134.071c-2.211,1.608-6.498,1.675-10.315,2.345
				c-3.752,0.67-6.967,2.01-6.967,6.229c0,3.752,3.215,5.092,6.698,5.092c7.503,0,10.584-4.689,10.584-7.838V134.071z"/>
		</g>
	</g>
</g>
</svg>
