<?xml version="1.0" encoding="utf-8"?>
<!-- Generator: Adobe Illustrator 17.0.0, SVG Export Plug-In . SVG Version: 6.00 Build 0)  -->
<!DOCTYPE svg PUBLIC "-//W3C//DTD SVG 1.1//EN" "http://www.w3.org/Graphics/SVG/1.1/DTD/svg11.dtd">
<svg version="1.1" id="modules" xmlns="http://www.w3.org/2000/svg" xmlns:xlink="http://www.w3.org/1999/xlink" x="0px" y="0px"
	 width="172.917px" height="30px" viewBox="0 0 172.917 30" enable-background="new 0 0 172.917 30" xml:space="preserve">
<g>
	<g>
		<rect x="11.292" y="0.647" fill="#11286E" width="8.055" height="8.055"/>
		<rect x="0.639" y="11.444" fill="#11286E" width="8.055" height="8.055"/>
		<rect x="0.639" y="21.945" fill="#11286E" width="8.055" height="8.055"/>
		<rect x="11.292" y="21.945" fill="#11286E" width="8.055" height="8.055"/>
		<rect x="21.936" y="21.945" fill="#11286E" width="8.055" height="8.055"/>
		<rect x="21.936" y="11.444" fill="#11286E" width="8.055" height="8.055"/>
		<rect x="21.936" y="0.647" fill="#11286E" width="8.055" height="8.055"/>
		<circle fill="#C70927" cx="4.639" cy="4.639" r="4.639"/>
		<circle fill="#C70927" cx="15.396" cy="15.396" r="4.639"/>
	</g>
	<g>
		<g>
			<path fill="#231E20" d="M36.677,12.328h3.125v1.633h0.047c0.863-1.236,2.122-1.959,3.685-1.959c1.516,0,2.868,0.56,3.521,2.006
				c0.7-1.05,1.959-2.006,3.638-2.006c2.565,0,4.408,1.189,4.408,4.315v8.069h-3.312v-6.833c0-1.609-0.14-2.939-2.029-2.939
				c-1.866,0-2.216,1.539-2.216,3.055v6.716h-3.311v-6.763c0-1.399,0.093-3.009-2.006-3.009c-0.653,0-2.239,0.42-2.239,2.775v6.996
				h-3.311V12.328z"/>
			<path fill="#231E20" d="M63.05,12.001c3.801,0,6.25,2.519,6.25,6.367c0,3.825-2.449,6.343-6.25,6.343
				c-3.778,0-6.227-2.519-6.227-6.343C56.824,14.52,59.273,12.001,63.05,12.001z M63.05,22.216c2.262,0,2.939-1.936,2.939-3.848
				c0-1.936-0.676-3.871-2.939-3.871c-2.239,0-2.915,1.936-2.915,3.871C60.135,20.28,60.812,22.216,63.05,22.216z"/>
			<path fill="#231E20" d="M79.537,22.846H79.49c-0.77,1.306-2.122,1.866-3.662,1.866c-3.638,0-5.41-3.125-5.41-6.46
				c0-3.242,1.796-6.25,5.341-6.25c1.423,0,2.822,0.606,3.568,1.796h0.047V7.734h3.312v16.651h-3.148V22.846z M76.645,14.497
				c-2.169,0-2.915,1.866-2.915,3.848c0,1.889,0.863,3.871,2.915,3.871c2.192,0,2.845-1.912,2.845-3.895
				C79.49,16.363,78.791,14.497,76.645,14.497z"/>
			<path fill="#231E20" d="M95.977,24.385h-3.148v-1.679h-0.07c-0.839,1.353-2.285,2.006-3.685,2.006
				c-3.522,0-4.408-1.982-4.408-4.967v-7.416h3.312v6.81c0,1.982,0.583,2.962,2.122,2.962c1.796,0,2.566-1.003,2.566-3.452v-6.32
				h3.312V24.385z"/>
			<path fill="#231E20" d="M98.074,7.734h3.312v16.651h-3.312V7.734z"/>
			<path fill="#231E20" d="M106.213,19.161c0.093,2.099,1.119,3.055,2.962,3.055c1.329,0,2.402-0.816,2.612-1.563h2.915
				c-0.933,2.845-2.915,4.058-5.644,4.058c-3.801,0-6.157-2.612-6.157-6.343c0-3.615,2.496-6.367,6.157-6.367
				c4.104,0,6.087,3.452,5.854,7.16H106.213z M111.6,17.062c-0.303-1.679-1.026-2.566-2.635-2.566c-2.099,0-2.705,1.633-2.752,2.566
				H111.6z"/>
			<path fill="#231E20" d="M118.921,20.467c0.023,1.446,1.236,2.029,2.542,2.029c0.956,0,2.169-0.373,2.169-1.539
				c0-1.003-1.376-1.353-3.755-1.866c-1.912-0.42-3.825-1.096-3.825-3.218c0-3.078,2.659-3.871,5.247-3.871
				c2.635,0,5.061,0.886,5.317,3.848h-3.148c-0.093-1.283-1.073-1.633-2.262-1.633c-0.746,0-1.842,0.14-1.842,1.12
				c0,1.189,1.866,1.352,3.755,1.795c1.936,0.443,3.825,1.143,3.825,3.382c0,3.172-2.752,4.198-5.504,4.198
				c-2.799,0-5.527-1.049-5.667-4.244H118.921z"/>
			<path fill="#231E20" d="M128.505,20.794h3.661v3.591h-3.661V20.794z"/>
			<path fill="#C0BFBF" d="M142.753,16.199c-0.303-1.516-1.352-2.402-2.985-2.402c-2.868,0-3.755,2.262-3.755,4.711
				c0,2.216,1.003,4.408,3.521,4.408c1.912,0,3.055-1.12,3.312-2.939h2.029c-0.443,2.939-2.285,4.687-5.317,4.687
				c-3.685,0-5.644-2.565-5.644-6.157c0-3.615,1.866-6.46,5.69-6.46c2.729,0,4.921,1.283,5.201,4.151H142.753z"/>
			<path fill="#C0BFBF" d="M146.926,7.734h1.982v6.227h0.047c0.653-1.329,2.192-1.912,3.848-1.912c3.708,0,5.551,2.939,5.551,6.343
				c0,3.405-1.819,6.273-5.504,6.273c-1.236,0-3.009-0.466-3.895-1.889h-0.047v1.609h-1.982V7.734z M152.523,13.797
				c-2.658,0-3.685,2.286-3.685,4.548c0,2.379,1.073,4.571,3.801,4.571c2.705,0,3.615-2.309,3.615-4.664
				C156.254,15.989,155.088,13.797,152.523,13.797z"/>
			<path fill="#C0BFBF" d="M171.131,24.338c-0.35,0.21-0.793,0.326-1.423,0.326c-1.026,0-1.679-0.56-1.679-1.866
				c-1.096,1.282-2.565,1.866-4.244,1.866c-2.192,0-3.988-0.98-3.988-3.382c0-2.728,2.029-3.311,4.081-3.708
				c2.192-0.42,4.058-0.28,4.058-1.773c0-1.725-1.423-2.006-2.682-2.006c-1.679,0-2.915,0.513-3.008,2.286h-1.982
				c0.117-2.985,2.425-4.035,5.107-4.035c2.169,0,4.524,0.49,4.524,3.311v6.203c0,0.933,0,1.353,0.63,1.353
				c0.164,0,0.35-0.023,0.607-0.117V24.338z M167.913,18.158c-0.77,0.56-2.262,0.583-3.591,0.816
				c-1.306,0.233-2.425,0.7-2.425,2.169c0,1.306,1.119,1.773,2.332,1.773c2.612,0,3.685-1.633,3.685-2.729V18.158z"/>
		</g>
	</g>
</g>
</svg>
