<?xml version="1.0" encoding="utf-8"?>
<!-- Generator: Adobe Illustrator 17.0.0, SVG Export Plug-In . SVG Version: 6.00 Build 0)  -->
<!DOCTYPE svg PUBLIC "-//W3C//DTD SVG 1.1//EN" "http://www.w3.org/Graphics/SVG/1.1/DTD/svg11.dtd">
<svg version="1.1" id="demo_copy_2" xmlns="http://www.w3.org/2000/svg" xmlns:xlink="http://www.w3.org/1999/xlink" x="0px"
	 y="0px" width="500px" height="250px" viewBox="0 0 500 250" enable-background="new 0 0 500 250" xml:space="preserve">
<g>
	<g>
		<rect x="80.33" y="83.774" fill="#11286E" width="23.137" height="23.137"/>
		<rect x="49.731" y="114.787" fill="#11286E" width="23.137" height="23.137"/>
		<rect x="49.731" y="144.948" fill="#11286E" width="23.137" height="23.137"/>
		<rect x="80.33" y="144.948" fill="#11286E" width="23.137" height="23.137"/>
		<rect x="110.905" y="144.948" fill="#11286E" width="23.137" height="23.137"/>
		<rect x="110.905" y="114.787" fill="#11286E" width="23.137" height="23.137"/>
		<rect x="110.905" y="83.774" fill="#11286E" width="23.137" height="23.137"/>
		<circle fill="#C70927" cx="61.221" cy="95.24" r="13.325"/>
		<circle fill="#C70927" cx="92.118" cy="126.136" r="13.325"/>
	</g>
	<g>
		<g>
			<path fill="#231E20" d="M153.244,117.325h8.976v4.689h0.134c2.479-3.551,6.096-5.627,10.584-5.627
				c4.354,0,8.239,1.608,10.115,5.761c2.01-3.015,5.627-5.761,10.45-5.761c7.368,0,12.66,3.417,12.66,12.393v23.177h-9.512V132.33
				c0-4.622-0.402-8.44-5.828-8.44c-5.359,0-6.364,4.421-6.364,8.775v19.292h-9.512v-19.426c0-4.02,0.268-8.642-5.761-8.642
				c-1.875,0-6.431,1.206-6.431,7.972v20.096h-9.512V117.325z"/>
			<path fill="#231E20" d="M224.243,117.325h6.966v6.363h-6.966v17.148c0,3.216,0.804,4.02,4.019,4.02
				c1.005,0,1.943-0.067,2.947-0.268v7.436c-1.607,0.268-3.684,0.335-5.56,0.335c-5.828,0-10.919-1.34-10.919-8.239v-20.432h-5.761
				v-6.363h5.761v-10.383h9.512V117.325z"/>
			<path fill="#231E20" d="M234.556,117.325h8.976v4.689h0.134c2.479-3.551,6.096-5.627,10.584-5.627
				c4.354,0,8.239,1.608,10.114,5.761c2.01-3.015,5.627-5.761,10.45-5.761c7.368,0,12.66,3.417,12.66,12.393v23.177h-9.512V132.33
				c0-4.622-0.402-8.44-5.828-8.44c-5.358,0-6.363,4.421-6.363,8.775v19.292h-9.512v-19.426c0-4.02,0.268-8.642-5.761-8.642
				c-1.875,0-6.431,1.206-6.431,7.972v20.096h-9.512V117.325z"/>
			<path fill="#231E20" d="M292.358,123.086c-0.335-10.718,5.761-18.957,17.014-18.957c8.574,0,16.077,5.493,16.077,14.67
				c0,7.033-3.751,10.919-8.373,14.201s-10.115,5.962-13.531,10.785h22.172v8.172h-34.431c0.067-10.852,6.698-15.474,14.804-20.967
				c4.153-2.813,9.78-5.693,9.847-11.454c0-4.421-2.947-7.235-7.033-7.235c-5.627,0-7.436,5.828-7.436,10.785H292.358z"/>
			<path fill="#231E20" d="M329.665,141.642h10.517v10.315h-10.517V141.642z"/>
			<path fill="#C0BFBF" d="M370.591,128.445c-0.87-4.354-3.885-6.9-8.574-6.9c-8.239,0-10.784,6.498-10.784,13.531
				c0,6.364,2.88,12.661,10.114,12.661c5.493,0,8.775-3.216,9.513-8.44h5.827c-1.272,8.44-6.564,13.464-15.272,13.464
				c-10.584,0-16.211-7.368-16.211-17.685c0-10.383,5.359-18.555,16.345-18.555c7.838,0,14.135,3.685,14.938,11.924H370.591z"/>
			<path fill="#C0BFBF" d="M382.577,104.129h5.693v17.886h0.134c1.876-3.818,6.297-5.493,11.053-5.493
				c10.651,0,15.943,8.44,15.943,18.22c0,9.78-5.226,18.02-15.809,18.02c-3.551,0-8.642-1.34-11.188-5.426h-0.134v4.622h-5.693
				V104.129z M398.653,121.545c-7.636,0-10.584,6.565-10.584,13.062c0,6.833,3.082,13.13,10.919,13.13
				c7.771,0,10.383-6.632,10.383-13.397C409.371,127.842,406.022,121.545,398.653,121.545z"/>
			<path fill="#C0BFBF" d="M452.103,151.823c-1.005,0.603-2.277,0.938-4.086,0.938c-2.947,0-4.823-1.607-4.823-5.358
				c-3.148,3.684-7.368,5.358-12.191,5.358c-6.297,0-11.455-2.813-11.455-9.713c0-7.837,5.828-9.512,11.723-10.65
				c6.297-1.206,11.656-0.805,11.656-5.092c0-4.956-4.087-5.761-7.704-5.761c-4.822,0-8.373,1.474-8.641,6.565h-5.694
				c0.335-8.574,6.967-11.589,14.67-11.589c6.23,0,12.995,1.406,12.995,9.512v17.818c0,2.68,0,3.886,1.81,3.886
				c0.469,0,1.004-0.067,1.741-0.335V151.823z M442.859,134.071c-2.211,1.608-6.498,1.675-10.315,2.345
				c-3.752,0.67-6.967,2.01-6.967,6.229c0,3.752,3.215,5.092,6.698,5.092c7.503,0,10.584-4.689,10.584-7.838V134.071z"/>
		</g>
	</g>
</g>
</svg>
