<?xml version="1.0" encoding="utf-8"?>
<!-- Generator: Adobe Illustrator 17.0.0, SVG Export Plug-In . SVG Version: 6.00 Build 0)  -->
<!DOCTYPE svg PUBLIC "-//W3C//DTD SVG 1.1//EN" "http://www.w3.org/Graphics/SVG/1.1/DTD/svg11.dtd">
<svg version="1.1" id="mtm2" xmlns="http://www.w3.org/2000/svg" xmlns:xlink="http://www.w3.org/1999/xlink" x="0px" y="0px"
	 width="113.583px" height="30px" viewBox="0 0 113.583 30" enable-background="new 0 0 113.583 30" xml:space="preserve">
<g>
	<g>
		<rect x="11.292" y="0.647" fill="#11286E" width="8.055" height="8.055"/>
		<rect x="0.639" y="11.444" fill="#11286E" width="8.055" height="8.055"/>
		<rect x="0.639" y="21.945" fill="#11286E" width="8.055" height="8.055"/>
		<rect x="11.292" y="21.945" fill="#11286E" width="8.055" height="8.055"/>
		<rect x="21.936" y="21.945" fill="#11286E" width="8.055" height="8.055"/>
		<rect x="21.936" y="11.444" fill="#11286E" width="8.055" height="8.055"/>
		<rect x="21.936" y="0.647" fill="#11286E" width="8.055" height="8.055"/>
		<circle fill="#C70927" cx="4.639" cy="4.639" r="4.639"/>
		<circle fill="#C70927" cx="15.396" cy="15.396" r="4.639"/>
	</g>
	<g>
		<g>
			<path fill="#231E20" d="M36.677,12.328h3.125v1.633h0.047c0.863-1.236,2.122-1.959,3.685-1.959c1.516,0,2.868,0.56,3.521,2.006
				c0.7-1.05,1.959-2.006,3.638-2.006c2.565,0,4.408,1.189,4.408,4.315v8.069h-3.312v-6.833c0-1.609-0.14-2.939-2.029-2.939
				c-1.866,0-2.216,1.539-2.216,3.055v6.716h-3.312v-6.763c0-1.399,0.093-3.009-2.006-3.009c-0.653,0-2.239,0.42-2.239,2.775v6.996
				h-3.311V12.328z"/>
			<path fill="#231E20" d="M61.395,12.328h2.425v2.215h-2.425v5.97c0,1.12,0.28,1.399,1.399,1.399c0.35,0,0.676-0.023,1.026-0.093
				v2.589c-0.56,0.093-1.283,0.117-1.936,0.117c-2.029,0-3.801-0.466-3.801-2.868v-7.113h-2.006v-2.215h2.006V8.713h3.312V12.328z"
				/>
			<path fill="#231E20" d="M64.985,12.328h3.125v1.633h0.047c0.863-1.236,2.122-1.959,3.685-1.959c1.516,0,2.868,0.56,3.521,2.006
				c0.7-1.05,1.959-2.006,3.638-2.006c2.565,0,4.408,1.189,4.408,4.315v8.069h-3.312v-6.833c0-1.609-0.14-2.939-2.029-2.939
				c-1.866,0-2.215,1.539-2.215,3.055v6.716h-3.312v-6.763c0-1.399,0.093-3.009-2.006-3.009c-0.653,0-2.239,0.42-2.239,2.775v6.996
				h-3.311V12.328z"/>
			<path fill="#231E20" d="M85.109,14.334c-0.117-3.731,2.006-6.6,5.923-6.6c2.985,0,5.597,1.912,5.597,5.107
				c0,2.449-1.306,3.801-2.915,4.944c-1.609,1.143-3.522,2.076-4.711,3.755h7.719v2.845H84.736c0.023-3.778,2.332-5.387,5.154-7.3
				c1.446-0.98,3.405-1.982,3.428-3.988c0-1.539-1.026-2.519-2.449-2.519c-1.959,0-2.589,2.029-2.589,3.755H85.109z"/>
			<path fill="#231E20" d="M98.097,20.794h3.661v3.591h-3.661V20.794z"/>
			<path fill="#C0BFBF" d="M112.346,16.199c-0.303-1.516-1.352-2.402-2.985-2.402c-2.868,0-3.755,2.262-3.755,4.711
				c0,2.216,1.003,4.408,3.521,4.408c1.912,0,3.055-1.12,3.312-2.939h2.029c-0.443,2.939-2.285,4.687-5.317,4.687
				c-3.685,0-5.644-2.565-5.644-6.157c0-3.615,1.866-6.46,5.69-6.46c2.729,0,4.921,1.283,5.201,4.151H112.346z"/>
			<path fill="#C0BFBF" d="M116.519,7.734h1.982v6.227h0.047c0.653-1.329,2.192-1.912,3.848-1.912c3.708,0,5.551,2.939,5.551,6.343
				c0,3.405-1.819,6.273-5.504,6.273c-1.236,0-3.009-0.466-3.895-1.889h-0.047v1.609h-1.982V7.734z M122.116,13.797
				c-2.658,0-3.685,2.286-3.685,4.548c0,2.379,1.073,4.571,3.801,4.571c2.705,0,3.615-2.309,3.615-4.664
				C125.847,15.989,124.681,13.797,122.116,13.797z"/>
			<path fill="#C0BFBF" d="M140.724,24.338c-0.35,0.21-0.793,0.326-1.423,0.326c-1.026,0-1.679-0.56-1.679-1.866
				c-1.096,1.282-2.565,1.866-4.244,1.866c-2.192,0-3.988-0.98-3.988-3.382c0-2.728,2.029-3.311,4.081-3.708
				c2.192-0.42,4.058-0.28,4.058-1.773c0-1.725-1.423-2.006-2.682-2.006c-1.679,0-2.915,0.513-3.008,2.286h-1.982
				c0.117-2.985,2.425-4.035,5.107-4.035c2.169,0,4.524,0.49,4.524,3.311v6.203c0,0.933,0,1.353,0.63,1.353
				c0.163,0,0.35-0.023,0.606-0.117V24.338z M137.506,18.158c-0.77,0.56-2.262,0.583-3.591,0.816
				c-1.306,0.233-2.425,0.7-2.425,2.169c0,1.306,1.119,1.773,2.332,1.773c2.612,0,3.685-1.633,3.685-2.729V18.158z"/>
		</g>
	</g>
</g>
</svg>
