<?xml version="1.0" encoding="utf-8"?>
<!-- Generator: Adobe Illustrator 17.0.0, SVG Export Plug-In . SVG Version: 6.00 Build 0)  -->
<!DOCTYPE svg PUBLIC "-//W3C//DTD SVG 1.1//EN" "http://www.w3.org/Graphics/SVG/1.1/DTD/svg11.dtd">
<svg version="1.1" id="shop" xmlns="http://www.w3.org/2000/svg" xmlns:xlink="http://www.w3.org/1999/xlink" x="0px" y="0px"
	 width="145.917px" height="27.475px" viewBox="0 0 145.917 27.475" enable-background="new 0 0 145.917 27.475"
	 xml:space="preserve">
<g>
	<g>
		<path fill="#0AAA64" d="M9.341,24.291v-0.837c0-0.068-0.036-0.13-0.095-0.164l-1.719-1.002c-0.059-0.034-0.095-0.097-0.095-0.164
			v-2.245c0.072-0.029,0.145-0.061,0.213-0.101c1.13-0.64,1.274-2.517,0.321-4.187c-0.949-1.672-2.636-2.505-3.764-1.862
			c-1.13,0.64-1.274,2.516-0.321,4.186c0.136,0.239,0.287,0.461,0.447,0.663c0.026,0.033,0.04,0.073,0.04,0.115v1.427
			c0,0.147-0.159,0.238-0.286,0.165l-2.077-1.208c-0.059-0.034-0.095-0.097-0.095-0.165v-8.317c0-0.068-0.036-0.131-0.095-0.165
			l-0.54-0.312c-0.095-0.055-0.22-0.019-0.268,0.08C0.362,11.503,0,12.968,0,14.524C0,19.778,4.141,24.064,9.341,24.291"/>
		<path fill="#EE3045" d="M4.175,8.698c0.059-0.034,0.131-0.034,0.19,0l1.943,1.122c-0.011,0.078-0.017,0.157-0.017,0.237
			c-0.008,1.299,1.542,2.361,3.465,2.374c1.922,0.011,3.488-1.032,3.496-2.331c0.007-1.298-1.545-2.36-3.467-2.373
			C9.512,7.726,9.245,7.746,8.989,7.786C8.947,7.793,8.905,7.785,8.868,7.764L7.633,7.05C7.506,6.976,7.506,6.793,7.633,6.72
			l2.084-1.196c0.059-0.034,0.131-0.034,0.19,0l7.246,4.185c0.059,0.034,0.131,0.034,0.19,0l0.521-0.301
			c0.095-0.055,0.126-0.18,0.066-0.271c-0.81-1.23-1.906-2.288-3.268-3.073C10.157,3.462,4.448,4.849,1.621,9.131
			c-0.06,0.092-0.03,0.217,0.065,0.272l0.533,0.308c0.059,0.034,0.131,0.034,0.19,0L4.175,8.698z"/>
		<path fill="#1B459B" d="M17.628,12.592c0,0.068-0.036,0.13-0.095,0.164l-1.943,1.123c-0.061-0.05-0.125-0.095-0.195-0.136
			c-1.12-0.655-2.818,0.156-3.788,1.816c-0.971,1.659-0.851,3.536,0.27,4.192c1.12,0.656,2.816-0.156,3.787-1.816
			c0.139-0.235,0.256-0.476,0.349-0.717c0.015-0.04,0.043-0.072,0.08-0.094l1.238-0.713c0.127-0.073,0.286,0.019,0.285,0.166
			l-0.009,2.401c0,0.068-0.037,0.13-0.095,0.164l-7.198,4.157c-0.059,0.034-0.095,0.097-0.095,0.165v0.625
			c0,0.11,0.093,0.2,0.203,0.193c1.453-0.094,2.9-0.513,4.246-1.289c4.493-2.596,6.149-8.208,3.879-12.793
			c-0.049-0.099-0.173-0.135-0.268-0.08l-0.546,0.315c-0.059,0.034-0.095,0.096-0.095,0.164L17.628,12.592z"/>
	</g>
	<g>
		<g>
			<path fill="#231E20" d="M24.951,14.521h8.896v2.339h-6.114v2.924h5.298v2.162h-5.298v5.227h-2.782V14.521z"/>
			<path fill="#231E20" d="M37.551,14.521h2.853l4.731,12.652h-2.888l-0.957-2.817h-4.731l-0.992,2.817h-2.817L37.551,14.521z
				 M37.285,22.282h3.278l-1.595-4.643h-0.035L37.285,22.282z"/>
			<path fill="#231E20" d="M45.844,14.521h5.954c2.41,0,4.04,0.78,4.04,3.136c0,1.241-0.62,2.109-1.719,2.64
				c1.542,0.443,2.321,1.63,2.321,3.208c0,2.569-2.18,3.668-4.466,3.668h-6.132V14.521z M48.626,19.642h2.817
				c0.975,0,1.701-0.443,1.701-1.506c0-1.205-0.921-1.453-1.914-1.453h-2.605V19.642z M48.626,25.012h2.977
				c1.099,0,2.056-0.354,2.056-1.666c0-1.294-0.815-1.807-2.003-1.807h-3.03V25.012z"/>
			<path fill="#C0BFBF" d="M58.089,14.521h8.736v1.418h-7.053v4.023h6.574v1.418h-6.574v4.377h7.106v1.418h-8.79V14.521z"/>
			<path fill="#C0BFBF" d="M77.634,18.331c-0.354-1.79-1.79-2.694-3.544-2.694c-3.013,0-4.289,2.481-4.289,5.121
				c0,2.889,1.276,5.299,4.306,5.299c2.215,0,3.491-1.559,3.651-3.651h1.683c-0.319,3.154-2.286,5.068-5.476,5.068
				c-3.934,0-5.848-2.906-5.848-6.592c0-3.668,2.091-6.663,5.989-6.663c2.64,0,4.82,1.418,5.21,4.111H77.634z"/>
			<path fill="#C0BFBF" d="M86.707,14.22c4.023,0,6.06,3.19,6.06,6.627c0,3.438-2.038,6.628-6.06,6.628
				c-4.023,0-6.06-3.19-6.06-6.628C80.647,17.409,82.684,14.22,86.707,14.22z M86.707,26.057c3.083,0,4.377-2.658,4.377-5.21
				s-1.294-5.21-4.377-5.21c-3.083,0-4.377,2.658-4.377,5.21S83.624,26.057,86.707,26.057z"/>
			<path fill="#C0BFBF" d="M94.628,14.521h1.79l6.663,10.26h0.036v-10.26h1.595v12.652h-1.843l-6.61-10.154h-0.035v10.154h-1.595
				V14.521z"/>
			<path fill="#C0BFBF" d="M112.615,14.22c4.023,0,6.061,3.19,6.061,6.627c0,3.438-2.038,6.628-6.061,6.628s-6.061-3.19-6.061-6.628
				C106.554,17.409,108.592,14.22,112.615,14.22z M112.615,26.057c3.084,0,4.377-2.658,4.377-5.21s-1.294-5.21-4.377-5.21
				s-4.377,2.658-4.377,5.21S109.531,26.057,112.615,26.057z"/>
			<path fill="#C0BFBF" d="M120.589,14.521h2.304l3.987,10.632l4.005-10.632h2.304v12.652h-1.595V16.647h-0.035l-3.952,10.526
				h-1.435l-3.952-10.526h-0.036v10.526h-1.595V14.521z"/>
			<path fill="#C0BFBF" d="M141.038,21.999v5.174h-1.683v-5.174l-4.891-7.478h2.003l3.792,6.025l3.704-6.025h1.914L141.038,21.999z"
				/>
		</g>
	</g>
	<g>
		<path fill="#231E20" d="M24.994,8.074c0.044,1.114,1.011,1.465,2.037,1.465c0.777,0,1.832-0.176,1.832-1.128
			c0-0.967-1.231-1.128-2.476-1.407c-1.231-0.278-2.476-0.689-2.476-2.139c0-1.524,1.509-2.154,2.828-2.154
			c1.67,0,3.004,0.527,3.106,2.374h-1.245C28.511,4.118,27.661,3.81,26.84,3.81c-0.747,0-1.612,0.205-1.612,0.967
			c0,0.894,1.319,1.04,2.476,1.319c1.245,0.279,2.476,0.689,2.476,2.154c0,1.802-1.685,2.388-3.223,2.388
			c-1.7,0-3.136-0.689-3.209-2.564H24.994z"/>
		<path fill="#231E20" d="M31.236,0h1.245v4h0.029c0.41-0.908,1.48-1.289,2.389-1.289c1.993,0,2.608,1.143,2.608,2.769v4.982h-1.246
			V5.334c0-0.923-0.586-1.524-1.538-1.524c-1.509,0-2.242,1.011-2.242,2.374v4.279h-1.245V0z"/>
		<path fill="#231E20" d="M42.329,2.711c2.403,0,3.678,1.744,3.678,3.971c0,2.213-1.275,3.956-3.678,3.956s-3.678-1.744-3.678-3.956
			C38.651,4.454,39.926,2.711,42.329,2.711z M42.329,9.539c1.304,0,2.359-1.026,2.359-2.857c0-1.846-1.055-2.872-2.359-2.872
			c-1.304,0-2.359,1.026-2.359,2.872C39.97,8.513,41.025,9.539,42.329,9.539z"/>
		<path fill="#231E20" d="M47.194,2.887h1.246v1.026h0.029c0.41-0.835,1.377-1.202,2.418-1.202c2.33,0,3.487,1.846,3.487,3.986
			s-1.143,3.942-3.458,3.942c-0.777,0-1.89-0.293-2.447-1.187h-0.029v3.912h-1.246V2.887z M50.71,3.81
			c-1.67,0-2.315,1.436-2.315,2.857c0,1.495,0.674,2.872,2.389,2.872c1.7,0,2.271-1.451,2.271-2.93
			C53.055,5.187,52.322,3.81,50.71,3.81z"/>
		<path fill="#231E20" d="M55.795,8.836h1.626v1.626h-1.626V8.836z"/>
	</g>
</g>
</svg>
