<?xml version="1.0" encoding="utf-8"?>
<!-- Generator: Adobe Illustrator 17.0.0, SVG Export Plug-In . SVG Version: 6.00 Build 0)  -->
<!DOCTYPE svg PUBLIC "-//W3C//DTD SVG 1.1//EN" "http://www.w3.org/Graphics/SVG/1.1/DTD/svg11.dtd">
<svg version="1.1" id="shopfab" xmlns="http://www.w3.org/2000/svg" xmlns:xlink="http://www.w3.org/1999/xlink" x="0px" y="0px"
	 width="500px" height="250px" viewBox="0 0 500 250" enable-background="new 0 0 500 250" xml:space="preserve">
<g>
	<path fill="#0AAA64" d="M61.87,155.971v-2.457c0-0.199-0.106-0.383-0.277-0.483l-5.046-2.941c-0.172-0.1-0.277-0.284-0.277-0.483
		v-6.588c0.211-0.085,0.425-0.18,0.626-0.297c3.317-1.879,3.737-7.387,0.943-12.287c-2.785-4.905-7.735-7.352-11.047-5.465
		c-3.315,1.878-3.739,7.383-0.942,12.285c0.398,0.702,0.841,1.353,1.313,1.945c0.077,0.097,0.119,0.214,0.119,0.337v4.188
		c0,0.431-0.467,0.7-0.84,0.483l-6.094-3.546c-0.172-0.1-0.278-0.284-0.278-0.483v-24.406c0-0.2-0.106-0.384-0.279-0.484
		l-1.586-0.916c-0.28-0.162-0.644-0.056-0.788,0.234c-1.896,3.834-2.958,8.133-2.958,12.698
		C34.46,142.728,46.611,155.305,61.87,155.971"/>
	<path fill="#EE3045" d="M46.713,110.212c0.173-0.099,0.385-0.099,0.557,0.001l5.702,3.293c-0.033,0.228-0.048,0.462-0.048,0.697
		c-0.022,3.811,4.525,6.928,10.167,6.967c5.641,0.032,10.235-3.029,10.258-6.841c0.022-3.809-4.534-6.924-10.173-6.964
		c-0.803-0.005-1.587,0.054-2.338,0.172c-0.123,0.019-0.247-0.003-0.355-0.066l-3.624-2.095c-0.373-0.216-0.372-0.754,0.002-0.968
		l6.116-3.509c0.173-0.099,0.385-0.099,0.557,0.001l21.262,12.28c0.173,0.1,0.386,0.1,0.559,0l1.529-0.883
		c0.279-0.161,0.37-0.528,0.193-0.797c-2.377-3.61-5.592-6.713-9.591-9.017c-13.22-7.635-29.972-3.564-38.27,9.001
		c-0.177,0.269-0.087,0.636,0.191,0.797l1.564,0.903c0.172,0.1,0.385,0.1,0.557,0.001L46.713,110.212z"/>
	<path fill="#1B459B" d="M86.191,121.638c-0.001,0.199-0.107,0.382-0.279,0.482l-5.702,3.295c-0.18-0.148-0.366-0.28-0.573-0.398
		c-3.287-1.922-8.27,0.459-11.117,5.328c-2.848,4.869-2.497,10.376,0.791,12.301c3.287,1.926,8.264-0.458,11.114-5.331
		c0.408-0.69,0.751-1.397,1.023-2.103c0.045-0.116,0.126-0.212,0.234-0.275l3.632-2.092c0.373-0.215,0.839,0.056,0.838,0.486
		l-0.027,7.047c-0.001,0.199-0.107,0.382-0.279,0.482l-21.123,12.199c-0.173,0.1-0.279,0.284-0.279,0.484v1.834
		c0,0.323,0.274,0.586,0.596,0.565c4.263-0.276,8.511-1.505,12.459-3.782c13.185-7.618,18.044-24.086,11.384-37.541
		c-0.143-0.289-0.507-0.396-0.787-0.235l-1.604,0.925c-0.172,0.099-0.279,0.283-0.28,0.482L86.191,121.638z"/>
</g>
<g>
	<g>
		<path fill="#231E20" d="M107.681,127.299h26.105v6.864h-17.941v8.58h15.548v6.345h-15.548v15.34h-8.165V127.299z"/>
		<path fill="#231E20" d="M144.654,127.299h8.373l13.884,37.129h-8.476l-2.809-8.268h-13.884l-2.912,8.268h-8.268L144.654,127.299z
			 M143.874,150.076h9.62l-4.68-13.624h-0.104L143.874,150.076z"/>
		<path fill="#231E20" d="M168.99,127.299h17.473c7.072,0,11.856,2.288,11.856,9.204c0,3.641-1.82,6.188-5.044,7.749
			c4.524,1.3,6.812,4.784,6.812,9.413c0,7.54-6.396,10.764-13.104,10.764H168.99V127.299z M177.155,142.328h8.268
			c2.86,0,4.992-1.3,4.992-4.42c0-3.536-2.704-4.264-5.616-4.264h-7.644V142.328z M177.155,158.085h8.736
			c3.224,0,6.032-1.04,6.032-4.889c0-3.796-2.392-5.304-5.876-5.304h-8.892V158.085z"/>
		<path fill="#C0BFBF" d="M204.924,127.299h25.637v4.16h-20.697v11.805h19.293v4.16h-19.293v12.844h20.854v4.16h-25.793V127.299z"/>
		<path fill="#C0BFBF" d="M262.28,138.48c-1.04-5.252-5.252-7.904-10.4-7.904c-8.841,0-12.585,7.28-12.585,15.028
			c0,8.477,3.744,15.549,12.637,15.549c6.5,0,10.244-4.576,10.713-10.713h4.939c-0.936,9.257-6.708,14.873-16.068,14.873
			c-11.544,0-17.16-8.528-17.16-19.345c0-10.765,6.136-19.553,17.576-19.553c7.748,0,14.145,4.16,15.289,12.064H262.28z"/>
		<path fill="#C0BFBF" d="M288.905,126.416c11.805,0,17.785,9.36,17.785,19.448c0,10.089-5.979,19.449-17.785,19.449
			c-11.805,0-17.784-9.36-17.784-19.449C271.121,135.776,277.101,126.416,288.905,126.416z M288.905,161.153
			c9.048,0,12.845-7.801,12.845-15.289s-3.797-15.288-12.845-15.288c-9.048,0-12.845,7.8-12.845,15.288
			S279.858,161.153,288.905,161.153z"/>
		<path fill="#C0BFBF" d="M312.151,127.299h5.252l19.553,30.109h0.104v-30.109h4.681v37.129h-5.408l-19.397-29.797h-0.104v29.797
			h-4.681V127.299z"/>
		<path fill="#C0BFBF" d="M364.932,126.416c11.805,0,17.785,9.36,17.785,19.448c0,10.089-5.98,19.449-17.785,19.449
			s-17.785-9.36-17.785-19.449C347.147,135.776,353.128,126.416,364.932,126.416z M364.932,161.153
			c9.049,0,12.845-7.801,12.845-15.289s-3.796-15.288-12.845-15.288s-12.845,7.8-12.845,15.288S355.883,161.153,364.932,161.153z"/>
		<path fill="#C0BFBF" d="M388.333,127.299h6.76l11.701,31.201l11.752-31.201h6.761v37.129h-4.681V133.54h-0.104l-11.597,30.889
			h-4.212l-11.597-30.889h-0.104v30.889h-4.68V127.299z"/>
		<path fill="#C0BFBF" d="M448.342,149.244v15.185h-4.939v-15.185l-14.354-21.944h5.877l11.128,17.681l10.868-17.681h5.617
			L448.342,149.244z"/>
	</g>
</g>
<g>
	<path fill="#231E20" d="M107.807,108.38c0.129,3.268,2.967,4.3,5.977,4.3c2.279,0,5.375-0.516,5.375-3.311
		c0-2.838-3.612-3.311-7.267-4.128c-3.612-0.817-7.267-2.021-7.267-6.278c0-4.472,4.429-6.321,8.299-6.321
		c4.902,0,8.815,1.548,9.116,6.966h-3.655c-0.258-2.838-2.752-3.741-5.16-3.741c-2.193,0-4.73,0.602-4.73,2.838
		c0,2.623,3.87,3.053,7.267,3.87c3.655,0.817,7.267,2.021,7.267,6.321c0,5.289-4.945,7.009-9.459,7.009
		c-4.988,0-9.202-2.021-9.417-7.525H107.807z"/>
	<path fill="#231E20" d="M126.125,84.687h3.655v11.739h0.086c1.204-2.666,4.343-3.784,7.009-3.784c5.848,0,7.654,3.354,7.654,8.127
		v14.62h-3.655v-15.05c0-2.709-1.72-4.472-4.515-4.472c-4.429,0-6.579,2.967-6.579,6.966v12.556h-3.655V84.687z"/>
	<path fill="#231E20" d="M158.676,92.642c7.052,0,10.793,5.117,10.793,11.653c0,6.493-3.741,11.61-10.793,11.61
		s-10.793-5.117-10.793-11.61C147.883,97.759,151.624,92.642,158.676,92.642z M158.676,112.68c3.827,0,6.923-3.01,6.923-8.385
		c0-5.418-3.096-8.428-6.923-8.428c-3.827,0-6.923,3.01-6.923,8.428C151.753,109.67,154.849,112.68,158.676,112.68z"/>
	<path fill="#231E20" d="M172.952,93.158h3.655v3.01h0.086c1.204-2.451,4.042-3.526,7.095-3.526c6.837,0,10.234,5.418,10.234,11.696
		s-3.354,11.567-10.148,11.567c-2.279,0-5.547-0.86-7.181-3.483h-0.086v11.48h-3.655V93.158z M183.271,95.867
		c-4.902,0-6.794,4.214-6.794,8.385c0,4.386,1.978,8.428,7.009,8.428c4.988,0,6.665-4.257,6.665-8.6
		C190.151,99.909,188.001,95.867,183.271,95.867z"/>
	<path fill="#231E20" d="M198.192,110.616h4.773v4.773h-4.773V110.616z"/>
</g>
</svg>
