<?xml version="1.0" encoding="utf-8"?>
<!-- Generator: Adobe Illustrator 17.0.0, SVG Export Plug-In . SVG Version: 6.00 Build 0)  -->
<!DOCTYPE svg PUBLIC "-//W3C//DTD SVG 1.1//EN" "http://www.w3.org/Graphics/SVG/1.1/DTD/svg11.dtd">
<svg version="1.1" id="Layer_6_copy_3" xmlns="http://www.w3.org/2000/svg" xmlns:xlink="http://www.w3.org/1999/xlink" x="0px"
	 y="0px" width="500px" height="250px" viewBox="0 0 500 250" enable-background="new 0 0 500 250" xml:space="preserve">
<g>
	<path fill="#0AAA64" d="M24.875,151.732v-2.185c0-0.177-0.094-0.34-0.247-0.429l-4.487-2.615c-0.153-0.089-0.247-0.252-0.247-0.429
		v-5.858c0.188-0.075,0.378-0.16,0.557-0.264c2.949-1.671,3.324-6.569,0.839-10.926c-2.476-4.362-6.879-6.538-9.823-4.86
		c-2.948,1.67-3.325,6.565-0.837,10.925c0.354,0.624,0.748,1.203,1.168,1.73c0.069,0.086,0.106,0.19,0.106,0.3v3.724
		c0,0.383-0.415,0.622-0.747,0.429l-5.419-3.153c-0.153-0.089-0.247-0.253-0.247-0.429v-21.703c0-0.177-0.095-0.341-0.248-0.43
		l-1.41-0.815c-0.249-0.144-0.573-0.05-0.7,0.208c-1.686,3.409-2.63,7.233-2.63,11.292C0.5,139.955,11.306,151.14,24.875,151.732"/>
	<path fill="#EE3045" d="M11.396,111.04c0.154-0.088,0.342-0.088,0.496,0.001l5.071,2.929c-0.03,0.203-0.043,0.41-0.043,0.619
		c-0.02,3.389,4.024,6.161,9.041,6.195c5.016,0.028,9.102-2.693,9.122-6.084c0.019-3.387-4.032-6.157-9.046-6.193
		c-0.714-0.005-1.411,0.048-2.079,0.153c-0.11,0.017-0.22-0.003-0.316-0.058l-3.223-1.863c-0.332-0.192-0.331-0.671,0.001-0.861
		l5.438-3.12c0.154-0.088,0.342-0.088,0.496,0.001l18.908,10.92c0.154,0.089,0.343,0.089,0.497,0l1.36-0.785
		c0.248-0.143,0.329-0.469,0.172-0.708c-2.114-3.21-4.973-5.97-8.529-8.019c-11.756-6.79-26.653-3.17-34.032,8.004
		c-0.158,0.239-0.078,0.566,0.17,0.709l1.391,0.803c0.153,0.089,0.342,0.089,0.496,0.001L11.396,111.04z"/>
	<path fill="#1B459B" d="M46.503,121.2c-0.001,0.177-0.095,0.34-0.248,0.428l-5.071,2.931c-0.16-0.131-0.326-0.249-0.509-0.354
		c-2.923-1.709-7.354,0.408-9.886,4.738c-2.533,4.329-2.22,9.227,0.704,10.939c2.923,1.713,7.349-0.407,9.884-4.74
		c0.363-0.613,0.668-1.242,0.91-1.87c0.04-0.104,0.112-0.189,0.208-0.244l3.23-1.86c0.332-0.191,0.746,0.049,0.745,0.432
		l-0.024,6.267c-0.001,0.177-0.095,0.34-0.248,0.428l-18.784,10.848c-0.154,0.089-0.248,0.253-0.248,0.43v1.631
		c0,0.288,0.243,0.521,0.53,0.503c3.791-0.246,7.569-1.338,11.079-3.363c11.725-6.774,16.046-21.419,10.124-33.384
		c-0.127-0.257-0.451-0.352-0.7-0.209l-1.426,0.822c-0.153,0.088-0.248,0.252-0.249,0.428L46.503,121.2z"/>
	<g>
		<g>
			<path fill="#231E20" d="M66.284,113.012h-10.82v-6.674h29.579v6.674h-10.82v29.427h-7.939V113.012z"/>
			<path fill="#231E20" d="M88.077,106.338h27v6.674H96.015v7.736h17.495v6.169H96.015v8.848h19.466v6.674H88.077V106.338z"/>
			<path fill="#231E20" d="M128.577,123.529l-11.629-17.191h9.202l7.079,11.528l7.332-11.528h8.697l-11.579,17.242l12.59,18.86
				h-9.455l-7.888-12.488l-8.04,12.488h-8.949L128.577,123.529z"/>
			<path fill="#231E20" d="M160.33,113.012h-10.82v-6.674h29.579v6.674h-10.82v29.427h-7.939V113.012z"/>
			<path fill="#231E20" d="M182.121,106.338h7.939v36.101h-7.939V106.338z"/>
			<path fill="#231E20" d="M195.926,106.338h7.939v29.427h17.595v6.674h-25.534V106.338z"/>
			<path fill="#231E20" d="M224.795,106.338h27.001v6.674h-19.062v7.736h17.495v6.169h-17.495v8.848h19.467v6.674h-27.406V106.338z"
				/>
			<path fill="#C0BFBF" d="M269.19,106.338h5.309l14.107,36.101h-5.309l-3.944-10.87h-15.269l-4.045,10.87h-4.956L269.19,106.338z
				 M265.6,127.524h12.237l-6.017-16.838h-0.101L265.6,127.524z"/>
			<path fill="#C0BFBF" d="M318.893,117.209c-1.011-5.107-5.107-7.686-10.113-7.686c-8.595,0-12.236,7.079-12.236,14.612
				c0,8.242,3.641,15.118,12.286,15.118c6.321,0,9.962-4.45,10.416-10.416h4.804c-0.911,9.001-6.523,14.461-15.625,14.461
				c-11.224,0-16.685-8.292-16.685-18.809c0-10.467,5.966-19.012,17.09-19.012c7.535,0,13.753,4.045,14.866,11.731H318.893z"/>
			<path fill="#C0BFBF" d="M339.32,106.338h5.309l14.107,36.101h-5.309l-3.944-10.87h-15.269l-4.045,10.87h-4.956L339.32,106.338z
				 M335.729,127.524h12.237l-6.017-16.838h-0.102L335.729,127.524z"/>
			<path fill="#C0BFBF" d="M361.77,106.338h12.388c11.124,0,17.342,5.562,17.342,17.191c0,12.085-5.309,18.91-17.342,18.91H361.77
				V106.338z M366.573,138.394h7.989c3.286,0,12.135-0.91,12.135-14.208c0-8.595-3.186-13.803-12.034-13.803h-8.09V138.394z"/>
			<path fill="#C0BFBF" d="M396.859,106.338h24.928v4.045h-20.124v11.478h18.759v4.045h-18.759v12.488h20.275v4.045h-25.079V106.338
				z"/>
			<path fill="#C0BFBF" d="M427.349,106.338h6.573l11.377,30.338l11.427-30.338h6.574v36.101h-4.551v-30.034h-0.101l-11.276,30.034
				h-4.095l-11.276-30.034h-0.102v30.034h-4.55V106.338z"/>
			<path fill="#C0BFBF" d="M485.697,127.675v14.764h-4.804v-14.764l-13.954-21.337h5.713l10.82,17.191l10.568-17.191h5.46
				L485.697,127.675z"/>
		</g>
	</g>
</g>
</svg>
