<?xml version="1.0" encoding="utf-8"?>
<!-- Generator: Adobe Illustrator 17.0.0, SVG Export Plug-In . SVG Version: 6.00 Build 0)  -->
<!DOCTYPE svg PUBLIC "-//W3C//DTD SVG 1.1//EN" "http://www.w3.org/Graphics/SVG/1.1/DTD/svg11.dtd">
<svg version="1.1" id="textileacademy" xmlns="http://www.w3.org/2000/svg" xmlns:xlink="http://www.w3.org/1999/xlink" x="0px"
	 y="0px" width="197.403px" height="20.75px" viewBox="0 0 197.403 20.75" enable-background="new 0 0 197.403 20.75"
	 xml:space="preserve">
<g>
	<path fill="#FFFFFF" d="M9.56,20v-0.857c0-0.069-0.037-0.133-0.097-0.168l-1.76-1.026c-0.06-0.035-0.097-0.099-0.097-0.168v-2.298
		c0.074-0.03,0.148-0.063,0.218-0.104c1.157-0.656,1.303-2.576,0.329-4.285C7.183,9.383,5.456,8.53,4.301,9.188
		c-1.156,0.655-1.304,2.575-0.328,4.285c0.139,0.245,0.293,0.472,0.458,0.678c0.027,0.034,0.041,0.075,0.041,0.118v1.461
		c0,0.15-0.163,0.244-0.293,0.168l-2.126-1.237c-0.06-0.035-0.097-0.099-0.097-0.168V5.981c0-0.07-0.037-0.134-0.097-0.169
		L1.306,5.492c-0.098-0.056-0.225-0.02-0.275,0.081C0.37,6.911,0,8.411,0,10.003C0,15.381,4.238,19.768,9.56,20"/>
	<path fill="#FFFFFF" d="M4.274,4.04c0.06-0.035,0.134-0.034,0.194,0l1.989,1.149C6.445,5.269,6.44,5.35,6.44,5.432
		c-0.008,1.329,1.578,2.416,3.546,2.43c1.967,0.011,3.57-1.056,3.578-2.386c0.008-1.329-1.581-2.415-3.548-2.429
		C9.735,3.045,9.462,3.066,9.2,3.107C9.157,3.114,9.114,3.106,9.076,3.084L7.812,2.353c-0.13-0.075-0.13-0.263,0.001-0.338
		l2.133-1.224c0.06-0.035,0.134-0.034,0.194,0l7.416,4.283c0.06,0.035,0.135,0.035,0.195,0l0.533-0.308
		c0.097-0.056,0.129-0.184,0.067-0.278c-0.829-1.259-1.951-2.341-3.345-3.145C10.396-1.319,4.553,0.101,1.659,4.484
		C1.597,4.577,1.628,4.706,1.726,4.762l0.545,0.315c0.06,0.035,0.134,0.035,0.194,0L4.274,4.04z"/>
	<path fill="#FFFFFF" d="M18.043,8.025c0,0.069-0.037,0.133-0.097,0.168l-1.989,1.149c-0.063-0.052-0.128-0.098-0.2-0.139
		c-1.147-0.67-2.884,0.16-3.877,1.858c-0.993,1.698-0.871,3.619,0.276,4.29c1.147,0.672,2.882-0.16,3.876-1.859
		c0.142-0.241,0.262-0.487,0.357-0.733c0.016-0.041,0.044-0.074,0.082-0.096l1.267-0.73c0.13-0.075,0.293,0.019,0.292,0.17
		l-0.009,2.458c0,0.069-0.037,0.133-0.097,0.168l-7.367,4.255c-0.06,0.035-0.097,0.099-0.097,0.169v0.64
		c0,0.113,0.095,0.204,0.208,0.197c1.487-0.096,2.969-0.525,4.345-1.319c4.599-2.657,6.293-8.401,3.971-13.093
		c-0.05-0.101-0.177-0.138-0.274-0.082l-0.559,0.323c-0.06,0.035-0.097,0.099-0.098,0.168L18.043,8.025z"/>
</g>
<g>
	<g>
		<path fill="#FFFFFF" d="M27.494,5.538H23.25V2.92h11.601v2.618h-4.244v11.541h-3.114V5.538z"/>
		<path fill="#FFFFFF" d="M36.041,2.92h10.59v2.618h-7.476v3.034h6.861v2.42h-6.861v3.47h7.635v2.618H36.041V2.92z"/>
		<path fill="#FFFFFF" d="M51.925,9.663L47.364,2.92h3.609l2.776,4.521l2.876-4.521h3.411l-4.541,6.762l4.938,7.397h-3.708
			l-3.094-4.898l-3.153,4.898h-3.51L51.925,9.663z"/>
		<path fill="#FFFFFF" d="M64.379,5.538h-4.244V2.92h11.601v2.618h-4.244v11.541h-3.114V5.538z"/>
		<path fill="#FFFFFF" d="M72.926,2.92h3.114v14.159h-3.114V2.92z"/>
		<path fill="#FFFFFF" d="M78.34,2.92h3.114v11.541h6.901v2.618H78.34V2.92z"/>
		<path fill="#FFFFFF" d="M89.663,2.92h10.59v2.618h-7.476v3.034h6.862v2.42h-6.862v3.47h7.635v2.618H89.663V2.92z"/>
		<path fill="#FFFFFF" d="M107.074,2.92h2.082l5.533,14.159h-2.082l-1.547-4.263h-5.989l-1.586,4.263h-1.944L107.074,2.92z
			 M105.666,11.23h4.799l-2.36-6.604h-0.039L105.666,11.23z"/>
		<path fill="#FFFFFF" d="M126.568,7.184c-0.397-2.003-2.003-3.014-3.966-3.014c-3.371,0-4.799,2.776-4.799,5.731
			c0,3.233,1.428,5.93,4.819,5.93c2.479,0,3.907-1.745,4.085-4.085h1.884c-0.357,3.53-2.558,5.672-6.128,5.672
			c-4.402,0-6.544-3.252-6.544-7.377c0-4.105,2.34-7.456,6.703-7.456c2.955,0,5.394,1.586,5.83,4.601H126.568z"/>
		<path fill="#FFFFFF" d="M134.58,2.92h2.082l5.533,14.159h-2.082l-1.547-4.263h-5.989l-1.586,4.263h-1.944L134.58,2.92z
			 M133.172,11.23h4.799l-2.36-6.604h-0.04L133.172,11.23z"/>
		<path fill="#FFFFFF" d="M143.385,2.92h4.858c4.363,0,6.802,2.181,6.802,6.743c0,4.74-2.082,7.417-6.802,7.417h-4.858V2.92z
			 M145.269,15.493h3.133c1.289,0,4.759-0.357,4.759-5.572c0-3.371-1.249-5.414-4.72-5.414h-3.173V15.493z"/>
		<path fill="#FFFFFF" d="M157.147,2.92h9.777v1.586h-7.893v4.502h7.357v1.586h-7.357v4.898h7.952v1.586h-9.836V2.92z"/>
		<path fill="#FFFFFF" d="M169.105,2.92h2.578l4.462,11.899l4.482-11.899h2.578v14.159h-1.785V5.3h-0.039l-4.422,11.779h-1.606
			L170.93,5.3h-0.04v11.779h-1.785V2.92z"/>
		<path fill="#FFFFFF" d="M191.99,11.289v5.791h-1.884v-5.791l-5.473-8.368h2.241l4.244,6.743l4.145-6.743h2.141L191.99,11.289z"/>
	</g>
</g>
</svg>
